<svg width="21" height="26" viewBox="0 0 21 26" fill="none" xmlns="http://www.w3.org/2000/svg">
<g clip-path="url(#clip0_72_923)">
<path d="M3.80864 8.37404C1.98201 11.0103 -0.411515 14.2513 0.0587911 17.6551C0.361131 19.8575 1.84763 21.7471 3.57769 23.157C6.42052 25.472 10.4013 26.7735 13.832 25.4762C16.0114 24.6503 17.7289 22.8692 18.829 20.8252C19.9292 18.7813 20.4625 16.4871 20.7942 14.1929C21.2058 11.3523 21.1596 8.04868 19.0054 6.14242C17.9682 5.22474 16.4187 4.55734 16.2424 3.18916C16.1542 2.50091 16.4691 1.82933 16.6119 1.14942C16.6119 1.14108 16.6119 1.13691 16.6161 1.12856C16.8008 0.227571 15.6629 -0.356405 14.9952 0.281797C14.4283 0.824061 13.8614 1.36632 13.2987 1.90442C13.0678 2.12549 12.8284 2.35074 12.5261 2.46337C12.1566 2.59685 11.7451 2.53428 11.3503 2.54262C10.1788 2.5593 9.09539 3.18499 8.16317 3.86074C6.45831 5.0996 5.0054 6.64714 3.80444 8.37821L3.80864 8.37404Z" fill="#F9CE23"/>
<path d="M20.6725 9.67969C20.4079 12.7706 18.4889 15.5195 16.1332 17.555C15.012 18.5228 13.7607 19.3779 12.3413 19.8033C9.33894 20.7043 5.86203 19.4154 4.0312 16.8876C2.58669 14.8979 2.19197 12.2742 2.76725 9.88825C1.19676 12.2075 -0.323331 14.8771 0.0587922 17.6551C0.365331 19.8576 1.84763 21.7471 3.57769 23.157C4.82484 24.1706 6.28615 24.9924 7.82724 25.4846C8.44871 25.4762 9.07439 25.4262 9.68747 25.3595C10.9472 25.226 12.228 25.0299 13.3407 24.4376C15.1968 23.4532 16.3263 21.5302 17.3299 19.6949C19.0348 16.5706 20.6977 13.2378 20.6683 9.68386L20.6725 9.67969Z" fill="#F7BE13"/>
<path d="M20.4247 10.8059C20.0048 13.0334 19.3959 15.2775 18.2705 17.3006C17.1452 19.3236 15.4529 21.1256 13.3785 22.0224C10.1074 23.4365 6.44991 22.3645 3.90522 20.2622C2.35573 18.9816 1.05819 17.2297 0.881822 15.1148C0.810436 14.2555 0.923814 13.4004 1.16317 12.5578C0.348528 14.1721 -0.180566 15.8907 0.0629855 17.6551C0.369524 19.8575 1.85183 21.7471 3.58188 23.157C6.42471 25.4721 10.4055 26.7735 13.8362 25.4762C16.0156 24.6503 17.7331 22.8692 18.8332 20.8253C19.9334 18.7814 20.4667 16.4872 20.7984 14.193C21.0462 12.4953 21.1218 10.6307 20.6893 8.99976C20.6305 9.60876 20.5381 10.2178 20.4289 10.8059H20.4247Z" fill="#EDB100"/>
<path d="M15.0036 0.281797C14.4367 0.824061 13.8698 1.36215 13.3029 1.90442C13.072 2.12549 12.8326 2.35074 12.5303 2.46337C12.1608 2.59685 11.7492 2.53428 11.3545 2.54262C10.3593 2.55513 9.43551 3.01397 8.60408 3.56458C7.53749 6.40521 6.37012 10.8851 9.20876 13.0333C10.3551 13.901 11.9298 14.1345 13.3155 13.7383C15.18 13.2085 16.9436 11.2981 18.09 9.79227C18.7744 8.89545 19.2489 7.86515 19.6101 6.79313C19.4295 6.56371 19.2322 6.34681 19.0054 6.14659C17.9682 5.22474 16.4187 4.56151 16.2465 3.18916C16.1584 2.50091 16.4733 1.82933 16.6161 1.14942C16.6161 1.14108 16.6161 1.13691 16.6203 1.12856C16.805 0.227571 15.6671 -0.356405 14.9994 0.281797H15.0036Z" fill="#FEF3CD"/>
<path d="M1.06238 13.4171C1.06238 13.4171 1.08758 13.7258 1.11277 14.2639C1.10857 14.535 1.15896 14.8562 1.23875 15.2149C1.27234 15.3943 1.31013 15.582 1.34792 15.7864C1.40671 15.9824 1.4697 16.191 1.53689 16.4037C1.60827 16.6165 1.65866 16.8459 1.75944 17.067C1.86022 17.288 1.9694 17.5133 2.07858 17.7469C2.17516 17.9846 2.31373 18.2099 2.4649 18.431C2.61607 18.652 2.74205 18.8981 2.90581 19.1192C3.26274 19.5447 3.59867 20.0119 4.04378 20.3873C4.42591 20.8128 4.976 21.1339 5.39591 21.4551C5.94181 21.7304 6.4919 22.0683 7.02519 22.2101C7.54588 22.427 8.12117 22.5188 8.66706 22.6439C8.94001 22.6857 9.21715 22.6898 9.4859 22.7232C9.75464 22.7566 10.0192 22.7774 10.2753 22.7566C10.5357 22.7482 10.7834 22.7399 11.027 22.7315C11.2705 22.719 11.4973 22.6606 11.724 22.6273C11.9466 22.5897 12.1608 22.5522 12.3665 22.5188C12.5639 22.4604 12.757 22.4103 12.9334 22.3561C13.2945 22.2644 13.6053 22.1642 13.8446 22.0391C14.3359 21.8222 14.6257 21.7054 14.6257 21.7054C14.6257 21.7054 14.3737 21.8806 13.9118 22.1768C13.6893 22.3394 13.3869 22.4813 13.0342 22.6273C12.8578 22.7065 12.6689 22.7899 12.4715 22.8775C12.2699 22.9484 12.0432 22.9943 11.8164 23.0569C11.5855 23.1111 11.3461 23.1904 11.0942 23.2279C10.838 23.2571 10.5735 23.2905 10.3047 23.3239C10.0318 23.3697 9.75044 23.3697 9.4607 23.3614C9.17096 23.3572 8.87702 23.3531 8.57888 23.3239C7.9868 23.2154 7.36532 23.1612 6.75644 22.9109C6.10977 22.7315 5.59747 22.4187 5.03899 22.1476C4.4721 21.7304 3.9556 21.4092 3.51889 20.9296C3.03599 20.5124 2.70425 19.9827 2.33893 19.5072C2.17936 19.2569 2.04498 18.9941 1.90641 18.7396C1.76784 18.4894 1.64187 18.2391 1.56208 17.9763C1.4697 17.7219 1.37732 17.4716 1.28914 17.2338C1.20515 16.9919 1.17156 16.7458 1.11697 16.5164C1.07078 16.2828 1.00779 16.0659 0.982597 15.8531C0.974199 15.6362 0.961601 15.4318 0.953203 15.24C0.928008 14.8562 0.91961 14.5308 0.9658 14.2639C1.02459 13.73 1.06658 13.4213 1.06658 13.4213L1.06238 13.4171Z" fill="#F9CE23"/>
<path d="M3.23755 13.9052C2.61607 12.9833 3.77924 9.88824 5.16076 7.84015C6.54229 5.79206 9.5069 3.38107 11.955 3.75649C8.14217 6.20502 5.06838 9.77978 3.23755 13.9052Z" fill="#FDFCF1"/>
<path d="M16.6245 1.12857C16.7295 0.611335 16.3977 0.210894 15.9736 0.0732422C15.3899 0.957549 15.4949 2.25481 15.8812 3.3018C16.3431 4.55317 17.1074 5.74198 17.1368 7.07262C17.1746 8.68272 16.129 10.1218 14.949 11.2272C14.021 12.0948 12.9334 12.8665 11.6821 13.1126C10.4307 13.3587 8.9904 12.9791 8.26814 11.9321C8.31013 12.0406 8.36892 12.1407 8.42351 12.245C8.64607 12.5328 8.90222 12.7998 9.21295 13.0375C10.3593 13.9051 11.934 14.1387 13.3197 13.7425C15.1842 13.2127 16.9478 11.3023 18.0942 9.79645C18.7786 8.89963 19.2531 7.86933 19.6143 6.79731C19.4337 6.56789 19.2363 6.35099 19.0096 6.15077C17.9724 5.22892 16.4229 4.56569 16.2507 3.19334C16.1626 2.50509 16.4775 1.83351 16.6203 1.1536C16.6203 1.14526 16.6203 1.14108 16.6245 1.13274V1.12857Z" fill="#F2CE97"/>
<path d="M20.6851 8.99976C20.6263 9.60876 20.5339 10.2178 20.4247 10.8059C20.0048 13.0334 19.3959 15.2775 18.2706 17.3006C17.9136 17.9429 17.4937 18.5561 17.0276 19.1317C16.213 20.4874 15.222 21.7304 14.0084 22.7441C14.105 23.5867 14.2058 24.4251 14.3023 25.2677C16.255 24.375 17.8128 22.719 18.829 20.8253C19.9292 18.7814 20.4625 16.4872 20.7943 14.193C21.042 12.4953 21.1176 10.6307 20.6851 8.99976Z" fill="#EDB100"/>
<path d="M13.2693 2.52596C14.2226 2.44253 15.0792 1.70422 15.2933 0.778198C14.9196 0.874137 13.4625 2.19226 13.2693 2.52596Z" fill="#FDFCF1"/>
</g>
<defs>
<clipPath id="clip0_72_923">
<rect width="21" height="26" fill="white"/>
</clipPath>
</defs>
</svg>
