<svg width="24" height="30" viewBox="0 0 24 30" fill="none" xmlns="http://www.w3.org/2000/svg">
<g clip-path="url(#clip0_148_1465)">
<g clip-path="url(#clip1_148_1465)">
<path d="M23.3477 16.7236C23.9546 14.6191 24.2384 12.5146 24.0916 10.5078C24.0084 9.41113 23.7833 8.27008 22.9855 7.56857C22.7163 7.33326 22.3835 7.14234 22.2415 6.81823C22.1241 6.55184 22.1485 6.22773 22.173 5.9125C22.2317 5.13995 22.2905 4.37185 22.3492 3.59931C22.3639 3.4084 22.3149 3.253 22.2317 3.12868L22.2905 3.03545C22.2268 3.00881 22.1583 2.99105 22.0898 2.97773C22.036 2.93777 21.9821 2.90225 21.9185 2.87561L21.8598 2.96885C21.6885 2.98661 21.5074 3.04433 21.3263 3.16864C20.6068 3.66147 19.8873 4.1543 19.1629 4.64269C18.8693 4.84248 18.5658 5.05116 18.233 5.12663C17.8268 5.21987 17.4499 5.10888 17.0584 5.06892C15.9082 4.94904 14.6552 5.46407 13.5295 6.05457C11.4788 7.13347 9.57974 8.55867 7.87649 10.2014C5.28736 12.71 1.94449 15.7735 1.35717 19.3387C0.764945 22.9395 3.13872 26.8466 7.24511 28.2851C10.9208 29.5682 15.3894 28.6936 18.233 26.447C21.3801 23.9606 22.4177 19.9292 23.3477 16.7281V16.7236Z" fill="#C06400"/>
<path d="M22.8142 18.5662C21.2284 20.8394 18.7812 22.7352 16.1333 23.5033C12.0465 24.6932 6.71651 22.4555 5.47823 19.0146C4.67555 16.7946 5.09647 14.0419 6.39348 11.6488C4.14696 13.8554 1.8368 16.4306 1.35715 19.3343C0.975391 21.643 1.84659 23.7608 3.10934 25.4213C3.94139 26.5136 5.07689 27.5303 6.48158 28.1608C7.94989 28.8223 9.5993 28.9377 11.2438 28.8489C13.6078 28.7202 16.1969 28.0586 18.233 26.447C20.8026 24.4179 21.9674 21.3633 22.8093 18.5662H22.8142Z" fill="#BC5800"/>
<path d="M24.0329 10.0105C23.9154 9.07809 23.6609 8.16347 22.9855 7.57297C22.7163 7.33765 22.3835 7.14674 22.2416 6.82263C22.1241 6.55623 22.1486 6.23212 22.1681 5.91689C22.2269 5.14435 22.2856 4.37625 22.3443 3.60371C22.359 3.41279 22.315 3.2574 22.2269 3.13308L22.2856 3.0354C22.222 3.00876 22.1535 2.991 22.0849 2.98212C22.0311 2.94216 21.9773 2.90664 21.9136 2.88L21.8549 2.97768C21.6836 2.99544 21.5025 3.05316 21.3263 3.17748C20.6068 3.67031 19.8874 4.15869 19.163 4.65152C18.8693 4.85132 18.561 5.05999 18.2331 5.13547C17.8268 5.22871 17.45 5.11771 17.0584 5.07775C16.0795 4.97563 15.037 5.3397 14.0533 5.81033C12.1395 8.6119 9.61894 13.0962 11.7333 15.6447C12.58 16.6614 14.2539 17.3718 15.7516 17.3363C19.4909 17.2564 22.4031 12.9364 24.0231 10.0105H24.0329Z" fill="#9E513E"/>
<path d="M21.7031 21.6696C21.1647 22.491 20.5383 23.2546 19.7747 23.9073C17.8953 25.519 15.5509 26.1805 13.4169 26.3137C9.97128 26.5268 6.14876 24.9285 4.31336 22.4776C3.18765 20.977 2.46329 19.0145 2.93804 16.8168C3.12892 15.9244 3.50579 15.0542 4.00012 14.2106C2.70311 15.7779 1.66061 17.4917 1.35715 19.3342C0.975391 21.6429 1.84659 23.7608 3.10934 25.4213C4.9839 27.8854 7.66602 29.0442 11.2438 28.8489C13.6078 28.7201 16.1969 28.0586 18.233 26.4469C19.8628 25.1593 20.9249 23.4544 21.7031 21.6696Z" fill="#9E513E"/>
<path d="M5.95293 24.3203C5.77184 24.1782 5.59075 24.0272 5.40966 23.8851C5.09642 23.5033 4.65592 23.1082 4.4161 22.6287C4.09796 22.1847 3.91197 21.6696 3.69173 21.1857C3.60363 20.9326 3.55468 20.6707 3.47148 20.422C3.39317 20.1734 3.32465 19.9292 3.30507 19.6717C3.27081 19.4186 3.23655 19.1744 3.20229 18.9347C3.17292 18.6949 3.19739 18.4507 3.1925 18.2243C3.1925 17.9934 3.1925 17.7759 3.1925 17.5627C3.21697 17.3496 3.24144 17.1498 3.26102 16.9634C3.29528 16.586 3.33933 16.2441 3.43232 15.9688C3.57426 15.4094 3.64278 15.0897 3.64278 15.0897C3.64278 15.0897 3.50574 15.4005 3.28549 15.9466C3.15824 16.2175 3.06525 16.5549 2.97225 16.9545C2.92331 17.1543 2.86947 17.3674 2.81074 17.5938C2.77158 17.8158 2.76179 18.0467 2.73732 18.2909C2.72264 18.5351 2.67859 18.7926 2.68348 19.0501C2.69327 19.3076 2.70795 19.574 2.72264 19.8493C2.72264 20.129 2.76669 20.3998 2.82542 20.6751C2.87926 20.9504 2.9282 21.239 3.01141 21.5187C3.22187 22.0515 3.38338 22.6375 3.72599 23.1259C4.00497 23.672 4.4112 24.0672 4.83701 24.56C4.98874 24.671 5.13557 24.7909 5.2824 24.9019C5.46839 25.044 5.75716 25.044 5.94315 24.9019C6.14871 24.742 6.14382 24.4801 5.94315 24.3247L5.95293 24.3203Z" fill="#D47601"/>
<path d="M5.62503 15.84C5.302 14.8144 7.39191 11.7598 9.36924 9.81066C11.3515 7.86155 14.9929 5.72152 17.2786 6.39638C12.7953 8.47425 8.68892 11.7997 5.62503 15.84Z" fill="#D47601"/>
<path d="M18.9377 5.2864C19.897 5.31304 20.9591 4.64705 21.4535 3.71912C21.057 3.77239 19.2265 4.96229 18.9377 5.2864Z" fill="#D47601"/>
</g>
</g>
<defs>
<clipPath id="clip0_148_1465">
<rect width="24" height="30" fill="white"/>
</clipPath>
<clipPath id="clip1_148_1465">
<rect width="23" height="26" fill="white" transform="translate(1.19995 2.88)"/>
</clipPath>
</defs>
</svg>
