<svg width="81" height="83" viewBox="0 0 81 83" fill="none" xmlns="http://www.w3.org/2000/svg">
<g clip-path="url(#clip0_72_49)">
<path d="M26.38 55.3333C26.5842 55.9678 26.7803 56.4966 26.9273 57.0416C27.0499 57.4972 27.1642 57.9283 27.4583 58.3269C28.3569 59.539 28.1364 61.3124 27.4175 62.4594C26.9028 63.2729 26.2493 63.9969 25.4896 64.5338C24.5747 65.1765 23.5699 65.7785 22.3691 65.811C22.0668 65.811 21.8626 65.9493 21.7809 66.1689C21.5522 66.7872 21.1029 67.2509 20.7843 67.7959C20.5719 68.1538 20.4004 68.5769 20.286 68.9755C19.902 70.2689 19.1097 71.1312 17.9088 71.7251C16.6671 72.3352 15.401 72.7582 13.9959 72.6931C13.4567 72.6687 12.9176 72.6687 12.3784 72.6931C11.7249 72.7256 9.88691 72.2701 9.03734 71.9122C8.63706 71.7495 8.24495 71.5705 7.85284 71.3997C6.46412 70.8058 5.32863 69.9435 4.47089 68.6745C3.81738 67.7146 3.08217 66.8035 2.34697 65.9086C1.49739 64.8755 1.12979 64.0295 0.860216 62.6547C0.639654 61.5321 0.419092 60.4013 0.182193 59.2787C-0.0220313 58.2863 0.0759961 57.3264 0.0188134 56.3583C-0.0138624 55.7889 0.0188134 55.2113 0.0106445 54.6418C-0.0138624 53.568 0.223037 52.5349 0.402754 51.4855C0.541626 50.6476 0.803033 49.8585 1.03176 49.0532C1.24416 48.2885 1.44021 47.4913 1.80781 46.808C2.19176 46.1084 2.52668 45.3437 3.14752 44.7824C3.46611 44.4977 3.79287 44.2048 4.05428 43.8713C4.67512 43.0985 5.51652 42.5697 6.34158 42.0979C6.92158 41.7644 7.63228 41.5773 8.28579 41.3413C9.56832 40.8777 10.9815 40.837 12.1906 40.1048C12.9666 39.633 13.7181 39.1205 14.4779 38.6324C15.2294 38.1525 15.8339 37.9572 16.6753 37.7051C17.4432 37.4692 18.2274 37.4203 18.9544 37.5586C19.5018 37.6644 20.0736 37.7864 20.6209 37.9084C21.1764 38.0386 21.6012 38.4128 22.2384 38.5674C22.0505 38.1362 21.9443 37.7539 21.7401 37.4285C21.3316 36.7696 21.0865 36.0618 20.866 35.3215C20.6618 34.622 20.4085 33.9386 20.2043 33.2309C19.7468 31.6527 19.706 30.0583 19.8449 28.472C19.9184 27.6829 19.9429 26.8857 20.0327 26.0966C20.0981 25.5028 20.3023 24.9252 20.4494 24.3395C20.6618 23.5016 20.9313 22.6881 21.3071 21.9072C21.6175 21.2564 21.9851 20.6544 22.4998 20.15C22.9327 19.727 23.3739 19.2959 23.7905 18.8566C24.3214 18.3034 24.9423 17.8967 25.6285 17.5794C26.5679 17.1483 27.4502 16.6195 28.1282 15.8223C28.7245 15.1308 29.0921 14.3011 29.4924 13.4957C30.1459 12.1616 30.7504 10.7868 31.502 9.5015C32.0574 8.54972 32.6293 7.59794 33.2011 6.6543C33.9853 5.35272 34.9738 4.25451 36.0602 3.22952C36.4197 2.88786 36.7219 2.49738 37.0814 2.14758C37.8247 1.43985 38.6988 1.06565 39.6301 0.732117C40.1284 0.55315 40.6185 0.317239 41.1332 0.219621C41.8438 0.0894634 42.5872 -0.0488293 43.2979 0.0162496C44.8909 0.162677 46.394 0.618229 47.6683 1.66763C48.2238 2.12318 48.7956 2.51365 49.2041 3.15631C49.5635 3.72575 50.0373 4.23011 50.4049 4.80768C50.5928 5.10054 50.9114 5.31204 51.1483 5.57236C52.1694 6.71938 53.1333 7.92333 53.795 9.30626C54.2607 10.2824 54.5466 11.3562 54.906 12.3894C54.9959 12.6416 55.0367 12.91 55.1266 13.1541C55.2001 13.3412 55.2818 13.5852 55.4288 13.6503C55.5514 13.7072 55.7801 13.4876 55.9598 13.5038C57.0054 13.5608 58.0756 13.3167 59.1049 13.7072C60.0279 14.0489 60.8367 14.5695 61.6372 15.1308C62.5685 15.7897 63.3119 16.6439 64.1288 17.4167C65.3051 18.5475 66.0485 19.9385 66.5304 21.4597C66.8082 22.3546 66.9879 23.2738 67.1839 24.1931C67.429 25.3482 67.7639 26.4871 67.8375 27.6829C67.862 28.049 67.8375 29.6271 67.9273 30.0583C68.2459 31.6121 68.3684 32.3117 68.2622 33.8654C68.2214 34.4837 68.2051 34.4999 68.6952 34.4999C69.9859 34.5081 71.2766 34.5162 72.5755 34.4999C73.4087 34.4918 74.1847 34.7521 74.9363 35.045C76.4639 35.6388 77.7382 36.6231 78.8329 37.8434C79.421 38.5023 79.9684 39.8933 80.3605 40.9671C80.8179 42.2199 81.0058 43.4727 80.9895 44.7824C80.9731 46.206 80.2706 47.2635 79.2332 48.1258C78.9717 48.3373 78.547 48.3699 78.1875 48.4349C77.9425 48.4838 77.6892 48.4431 77.3625 48.4431C77.3461 48.6058 77.3216 48.7685 77.3216 48.9312C77.3298 50.2816 76.9867 51.4855 76.2842 52.6976C75.5816 53.9178 74.7811 54.9998 73.76 55.9353C73.0166 56.6186 72.167 57.0579 71.0969 57.0416C70.1166 57.0254 69.2344 56.8627 68.3358 56.4152C67.3882 55.9353 66.7428 55.2194 66.122 54.4303C66.0566 54.349 66.0158 54.2595 65.9504 54.1782C65.1499 53.2426 64.913 53.202 63.7693 53.8121C63.3037 54.0561 62.8871 54.7639 63.1321 55.1625C63.4181 55.618 63.124 56.1305 63.3445 56.4641C63.655 56.9196 63.4834 57.3508 63.5243 57.79C63.5651 58.2537 63.6141 58.7337 63.5243 59.1811C63.3037 60.1736 63.2465 61.1904 62.9933 62.1747C62.7074 63.2811 62.1029 64.2491 61.4657 65.1846C61.0082 65.868 60.4609 66.4862 59.9544 67.137C59.4153 67.8366 58.6065 68.2189 57.9122 68.707C57.4956 68.9999 56.9319 69.13 56.4173 69.2358C55.7474 69.3741 55.0531 69.4229 54.2852 69.5286C54.2852 69.7239 54.2688 69.9679 54.2852 70.2038C54.424 72.4735 53.6398 74.5072 52.7086 76.5246C52.1204 77.7937 51.2218 78.8187 50.1517 79.6321C49.0979 80.4294 47.9787 81.2022 46.7125 81.6903C46.1897 81.8936 45.7649 82.3329 45.1523 82.341C45.0379 82.341 44.9072 82.5526 44.8174 82.5363C44.3027 82.4143 43.8861 82.7803 43.396 82.7641C42.6444 82.7478 41.8847 82.7885 41.1332 82.7559C40.4306 82.7234 39.7853 83.0569 39.0664 82.9918C38.2822 82.9186 36.6566 82.5282 35.7253 82.2109C34.8839 81.9262 34.1324 81.4544 33.4625 80.95C32.4414 80.1935 31.796 79.1278 31.8859 77.7611C31.8941 77.6228 31.9022 77.4764 31.8859 77.33C31.7307 75.9959 32.2127 74.8651 32.9969 73.8239C33.34 73.3683 33.6994 72.9046 33.9771 72.4084C34.4428 71.5705 34.8267 70.7163 34.696 69.6995C34.6062 69.008 34.5245 68.8779 33.8464 68.5931C33.4543 68.4304 33.0132 68.3898 32.6619 68.0481C32.376 67.7715 31.9022 67.6251 31.4856 67.56C30.3093 67.3729 29.5904 66.5431 28.9124 65.7378C28.0873 64.7535 27.8341 63.5251 28.0138 62.2642C28.1445 61.345 28.4794 60.4745 28.9287 59.6448C29.3372 58.8882 29.7538 58.1398 30.0234 57.3101C30.3501 56.3095 29.9499 55.5448 29.4761 54.7557C29.2637 54.4059 28.9124 54.4059 28.6265 54.4873C27.8995 54.6988 27.1888 54.9916 26.4699 55.252C26.4127 55.2764 26.3637 55.3496 26.3719 55.3414L26.38 55.3333Z" fill="#FEF3CD"/>
<path d="M57.667 66.0551C58.8515 64.843 58.9822 62.9395 58.6718 61.28C58.3614 59.6204 57.6752 58.026 57.4955 56.3502C57.1769 53.4217 58.5166 50.3792 60.8856 48.6221C63.2546 46.865 66.5712 46.4664 69.2915 47.6134C69.8633 47.8574 70.4351 48.1747 70.7864 48.6872C71.2112 49.3054 71.252 50.1027 71.4236 50.8267C71.7176 52.0876 72.461 53.2427 73.4903 54.0481C72.3058 54.9104 70.6639 53.9342 69.6999 52.8278C68.7441 51.7296 67.772 50.3467 66.3098 50.2735C65.354 50.2247 64.48 50.7779 63.6876 51.3148C63.1076 51.7052 62.5194 52.1201 62.1028 52.6814C60.6569 54.6582 61.8904 57.3752 62.1436 59.8075C62.6011 64.2329 58.9414 68.6664 54.4893 69.0732C53.0761 69.2033 48.6404 67.7553 51.7609 66.7954C53.8113 66.1609 55.6657 68.097 57.667 66.0551Z" fill="#F2CE97"/>
<path d="M61.7189 57.3345C61.3594 56.7894 60.567 57.1148 60.5507 57.6192C60.3138 57.6761 60.1096 57.8632 60.1259 58.1886C60.2321 61.3612 60.2893 65.5507 57.0462 67.3159C55.4451 68.1864 53.6969 67.6169 52.1612 66.8848C50.3313 66.0062 48.5342 65.0626 46.7288 64.1515C46.0181 63.7935 45.4463 64.7697 46.108 65.209C47.8153 66.356 48.8119 68.406 48.624 70.456C48.428 72.6036 47.2353 74.8651 45.7731 76.427C44.417 77.8831 42.6117 78.843 40.5858 78.7617C38.6334 78.6885 36.8036 77.6147 36.1827 75.703C35.6517 74.0679 35.7661 71.8552 36.5912 70.3258C37.6286 68.4223 40.2427 67.8528 41.6151 66.0957C43.4122 63.7854 43.5511 61.2229 42.7669 58.4489C42.6852 58.1561 42.3911 57.9609 42.0889 58.0097C41.8111 58.0503 41.517 58.3025 41.5579 58.6116C41.9908 62.5082 39.7035 66.4048 35.4393 66.2503C35.276 66.1608 35.0799 66.1364 34.892 66.2015C34.6715 66.1689 34.4591 66.1364 34.2385 66.0794C33.8137 65.9656 33.4134 65.8029 33.0377 65.5995C31.6898 64.6233 31.1588 62.7604 31.7061 61.2067C31.7306 61.1334 31.7388 61.0521 31.7306 60.9789C31.8205 60.9708 31.9103 60.9626 32.0002 60.9463C32.7844 60.8081 32.4413 59.6448 31.6734 59.7668C31.314 59.8319 30.9954 59.7668 30.7259 59.6041C30.7259 59.539 30.7259 59.4821 30.7013 59.4089C30.1704 57.6029 30.7013 55.5692 32.0901 54.2839C33.5115 52.9661 35.6517 52.6488 37.4326 53.3403C37.4897 53.3647 37.5551 53.3728 37.6204 53.3647C37.841 53.5436 38.0616 53.7226 38.2658 53.9341C38.8213 54.4954 39.6954 53.6331 39.1399 53.0637C37.6531 51.5506 35.5619 50.6802 33.4379 50.6883C32.6129 50.6883 31.9512 51.697 31.216 51.9411C30.2112 52.2664 29.1819 52.7139 28.3895 53.3647C27.8831 53.7877 27.5563 54.2839 27.3521 54.8289C27.3357 54.8615 27.3276 54.894 27.3194 54.9265C27.7524 54.7639 28.1853 54.6093 28.6346 54.4791C28.9205 54.3978 29.2718 54.3978 29.4842 54.7476C29.958 55.5367 30.3582 56.3013 30.0315 57.3019C29.7619 58.1317 29.3453 58.8801 28.9368 59.6366C28.4876 60.4664 28.1608 61.3368 28.0219 62.2561C27.8422 63.517 28.0873 64.7453 28.9205 65.7296C29.5985 66.535 30.3174 67.3648 31.4937 67.5519C31.9103 67.6169 32.3842 67.7634 32.6701 68.0399C33.0213 68.3816 33.4624 68.4223 33.8546 68.585C34.5244 68.8697 34.6143 68.9999 34.7041 69.6913C34.8348 70.7082 34.4509 71.5705 33.9853 72.4002C33.7075 72.8965 33.3481 73.3601 33.005 73.8157C32.2208 74.857 31.7388 75.9877 31.894 77.3218C31.9104 77.4601 31.9022 77.6065 31.894 77.753C31.8042 79.1196 32.4495 80.1853 33.4706 80.9418C34.1486 81.4462 34.892 81.918 35.7334 82.2027C36.6647 82.52 38.2903 82.9105 39.0745 82.9837C39.7934 83.0488 40.4387 82.7152 41.1413 82.7478C41.8928 82.7803 42.6525 82.7478 43.4041 82.7559C43.8942 82.764 44.3108 82.4061 44.8255 82.5281C44.9153 82.5525 45.046 82.341 45.1604 82.3329C45.7731 82.3166 46.1978 81.8855 46.7207 81.6821C47.9868 81.194 49.106 80.4212 50.1598 79.624C51.2218 78.8105 52.1203 77.7936 52.7167 76.5165C53.6479 74.499 54.4321 72.4653 54.2933 70.1957C54.2769 69.9598 54.2933 69.7157 54.2933 69.5205C55.0612 69.4229 55.7555 69.3741 56.4254 69.2276C56.94 69.1219 57.5037 68.9917 57.9203 68.6989C58.6228 68.2108 59.4234 67.8284 59.9625 67.1288C60.469 66.4781 61.0163 65.8598 61.4738 65.1765C62.1028 64.241 62.7155 63.2729 63.0014 62.1666C63.1484 61.5809 63.2383 60.9789 63.32 60.3769C62.887 59.3112 62.3642 58.2862 61.727 57.3263L61.7189 57.3345Z" fill="#F2CE97"/>
<path d="M27.4583 58.327C27.1642 57.9203 27.0498 57.4973 26.9273 57.0417C26.8374 56.7082 26.7231 56.3746 26.6087 56.0167C26.4862 56.155 26.4208 56.3421 26.4862 56.5455C26.527 56.6756 26.5597 56.8058 26.5842 56.936C26.6005 57.1149 26.625 57.2939 26.6659 57.4729C26.8374 59.4415 25.7591 61.4508 23.8966 62.2724C22.6223 62.8337 21.1845 62.8581 19.8203 62.8175C19.0851 62.7931 18.2192 62.8175 17.435 62.6629C17.0674 62.5002 16.6916 62.3619 16.3077 62.2317C16.226 62.1748 16.1361 62.126 16.0544 62.0609C15.842 61.882 15.597 61.8819 15.3927 61.9633C14.6902 61.7925 13.9632 61.6867 13.2361 61.646C12.0598 61.5728 10.8835 61.6542 9.72348 61.8331C8.41645 62.0365 7.13392 62.4026 5.82689 62.606C5.04267 62.728 5.3776 63.9075 6.15365 63.7855C6.98688 63.6554 7.80378 63.4764 8.62067 63.3055C8.71053 63.4601 8.88208 63.5659 9.12715 63.5577C12.2477 63.4113 15.6868 63.3381 17.9905 65.7948C18.1538 65.9656 18.2927 66.1446 18.4316 66.3236C16.6017 67.6252 14.4778 68.5281 12.2395 68.7803C9.67447 69.065 7.05223 68.4549 4.92014 66.9906C0.0269343 63.6472 0.435382 57.1963 1.84861 52.1445C2.69818 49.1021 3.94803 46.1979 5.53281 43.4646C5.56548 43.4402 5.58999 43.4158 5.62267 43.3833C5.77788 43.2531 5.83506 43.1067 5.82689 42.9603C5.8759 42.8708 5.92492 42.7894 5.9821 42.6999C6.07196 42.5454 6.0883 42.399 6.05562 42.2688C5.32858 42.6999 4.60972 43.188 4.05423 43.8714C3.78465 44.2049 3.46606 44.4978 3.14747 44.7825C2.51846 45.3438 2.19171 46.1003 1.80777 46.8081C1.43199 47.4995 1.24411 48.2886 1.03172 49.0533C0.802985 49.8586 0.541578 50.6477 0.402706 51.4856C0.222989 52.535 -0.0139105 53.5681 0.0105963 54.6419C0.0269342 55.2114 -0.0139105 55.7889 0.0187653 56.3584C0.075948 57.3264 -0.0220795 58.2945 0.182144 59.2788C0.419044 60.4014 0.631437 61.524 0.860167 62.6548C1.12974 64.0214 1.49735 64.8756 2.34692 65.9087C3.08212 66.8117 3.8255 67.7146 4.47084 68.6746C5.32858 69.9355 6.46407 70.8059 7.85279 71.3997C8.25307 71.5706 8.64518 71.7495 9.03729 71.9122C9.88686 72.262 11.7167 72.7257 12.3784 72.6932C12.9175 72.6606 13.4567 72.6606 13.9958 72.6932C15.4009 72.7664 16.6589 72.3352 17.9088 71.7251C19.1178 71.1394 19.902 70.269 20.2859 68.9755C20.4003 68.5769 20.58 68.1539 20.7842 67.796C21.1028 67.251 21.5521 66.7791 21.7809 66.169C21.8625 65.9575 22.0668 65.8192 22.369 65.8111C23.5617 65.7785 24.5746 65.1847 25.4814 64.5339C26.2411 63.997 26.8946 63.273 27.4093 62.4595C28.1363 61.3125 28.3487 59.5391 27.4501 58.327H27.4583Z" fill="#F2CE97"/>
<path d="M80.9894 44.7905C81.0058 43.4727 80.8179 42.2199 80.3604 40.9753C79.9683 39.9015 79.4292 38.5104 78.8328 37.8515C77.7382 36.6394 76.4638 35.6551 74.9362 35.0531C74.4216 34.8497 73.8906 34.6707 73.3351 34.5731C72.9022 34.5731 72.461 34.5894 72.0281 34.6057C71.8565 34.6057 71.6605 34.687 71.4644 34.7928C71.4971 34.6951 71.5216 34.6057 71.5543 34.508C70.5985 34.508 69.6509 34.508 68.6952 34.508C68.205 34.508 68.2214 34.4918 68.2622 33.8735C68.4256 31.3354 68.1315 28.7811 67.6495 26.3081C67.5188 28.7811 66.8816 31.2541 65.9831 33.4993C64.8557 36.2896 63.3363 38.9741 61.6535 41.4634C60.0442 43.8387 58.0919 46.1002 55.5676 47.5401C52.8719 49.0776 49.4328 49.6796 46.541 48.3292C46.0181 48.0851 45.5525 48.5814 45.6097 48.9962C44.9398 48.8173 44.4007 49.7853 45.0869 50.0863C48.0685 51.396 51.3198 52.7139 54.6446 52.2176C57.8304 51.7377 60.2811 49.2484 62.5603 47.1659C63.9653 45.8806 65.6808 42.9683 67.2983 42.1467C69.0546 41.2518 76.0145 41.4634 76.423 44.0502C76.6436 45.425 76.0309 46.8324 76.6435 48.1665C76.7824 48.4756 76.9866 48.7441 77.2317 48.9637C77.2481 50.2083 76.7824 51.4611 75.9083 52.3478C74.9771 53.2996 73.6782 53.7877 72.3548 53.7633C72.1425 53.5843 71.9627 53.3728 71.8239 53.1287C71.4154 52.4291 71.3827 51.5587 71.2684 50.7778C71.1458 49.9399 70.9171 49.1264 70.3453 48.4756C69.7816 47.8248 68.9892 47.4832 68.1478 47.3367C67.9273 47.2635 67.6985 47.1984 67.4453 47.174C66.849 47.1008 66.2445 47.174 65.6726 47.3449C64.0797 47.5482 62.4786 48.0363 61.4411 49.3216C60.2648 50.7859 59.9871 52.6895 59.7665 54.4954C59.6685 55.2763 60.902 55.2682 61 54.4954C61.0327 54.2188 61.0735 53.9341 61.1144 53.6494C61.2369 53.6982 61.3676 53.7063 61.4901 53.6819C61.4901 53.9178 61.6454 54.1375 61.8659 54.227C62.1355 54.3327 62.4949 54.2514 62.6338 53.9748C62.9197 53.3972 63.1403 52.8034 63.2955 52.1851C63.5242 51.6726 63.7856 51.1682 64.096 50.6639C64.2186 50.4605 64.1941 50.2083 64.0715 50.0212C64.2104 49.826 64.3493 49.6389 64.5208 49.4599C64.9211 49.0369 65.4357 48.7115 65.9912 48.5244C66.2526 48.5 66.514 48.4837 66.7673 48.4756C67.1431 48.4675 67.5352 48.4756 67.9109 48.5407C69.2506 49.0694 69.3242 50.7046 69.5937 51.9167C69.847 53.0311 70.378 54.0073 71.2602 54.6906C71.3256 54.772 71.4154 54.8371 71.5216 54.8777C71.6115 54.9428 71.7013 54.9998 71.7994 55.0567C72.4937 55.4472 73.2453 55.6424 74.0131 55.6587C74.9036 54.7883 75.6306 53.7958 76.2678 52.6895C76.9621 51.4774 77.3134 50.2815 77.3052 48.923C77.3052 48.7603 77.3297 48.5895 77.3461 48.4349C77.6647 48.4349 77.9261 48.4756 78.1711 48.4268C78.5306 48.3617 78.9554 48.3292 79.2168 48.1177C80.2624 47.2635 80.9568 46.1978 80.9731 44.7742L80.9894 44.7905Z" fill="#F2CE97"/>
<path d="M16.0217 37.9166C17.3206 39.69 19.2648 41.0078 21.4132 41.504C22.2955 41.7074 23.1859 41.7562 24.0845 41.6911C24.8034 41.6423 25.7836 41.4634 26.4371 41.862C26.8129 42.0897 26.8946 42.4965 26.9681 42.9032C27.0416 43.3588 27.1152 43.7899 27.2949 44.2211C27.4583 44.6116 27.6788 44.9695 27.9484 45.2949C27.9811 45.3437 28.0138 45.3762 28.0546 45.4169C28.2588 45.6447 28.4712 45.8643 28.7163 46.0514C30.1622 47.174 32.1227 47.4994 33.7892 46.7022C34.41 46.4094 33.9689 45.3274 33.3154 45.5796C32.2289 45.9945 30.6605 45.8806 29.9498 44.8393C29.5413 44.2455 29.6884 43.5052 29.6966 42.83C29.7047 42.0409 29.5413 41.2519 28.8715 40.7556C28.6673 40.6011 28.4385 40.5034 28.2016 40.4384C27.2867 40.0479 26.4453 39.5354 25.6856 38.9172C25.6774 38.7789 25.6202 38.6406 25.5059 38.5429C24.885 37.9816 24.3296 37.3634 23.8394 36.6882C23.6679 36.1838 23.4636 35.6876 23.2349 35.2077C22.9898 34.4104 22.8101 33.5888 22.6794 32.7672C22.1811 29.619 22.3527 26.3407 23.0879 23.2413C23.5127 21.4353 24.1253 19.6863 24.9341 18.0187C24.9422 17.9943 24.9504 17.9699 24.9586 17.9536C24.5501 18.2058 24.1662 18.4986 23.8312 18.8484C23.5127 19.182 23.1777 19.5074 22.851 19.8328C22.7121 20.207 22.5814 20.573 22.467 20.9472C22.4344 20.7439 22.3935 20.5486 22.3445 20.3534C21.9279 20.8171 21.6093 21.3377 21.3479 21.899C21.1682 22.2732 21.0211 22.6556 20.8823 23.0379C20.8577 23.7538 20.8414 24.4615 20.8332 25.1774C20.7761 25.4051 20.727 25.6248 20.678 25.8444C20.5228 26.5115 20.4003 27.1785 20.3268 27.8537C20.1879 27.8375 20.049 27.8781 19.9347 27.9595C19.9265 28.1303 19.9102 28.3012 19.8938 28.472C19.7549 30.0583 19.7958 31.6527 20.2532 33.2309C20.4575 33.9386 20.7107 34.6219 20.9149 35.3215C21.1273 36.0618 21.3724 36.7695 21.789 37.4285C21.9932 37.7539 22.0994 38.1362 22.2873 38.5674C21.6501 38.4128 21.2254 38.0386 20.6699 37.9084C20.1225 37.7864 19.5425 37.6644 19.0034 37.5586C18.2764 37.4203 17.4921 37.4691 16.7243 37.7051C16.4874 37.7783 16.2668 37.8434 16.0626 37.9166H16.0217Z" fill="#F2CE97"/>
<path d="M45.8956 1.47243C47.0393 2.31845 48.2074 3.19702 49.0407 4.3603C49.8657 5.51545 50.3804 6.84957 50.8215 8.19182C51.6874 10.8601 52.6023 13.7561 52.1367 16.5789C51.1728 17.8723 49.8085 18.8404 48.5097 19.7677C48.0931 20.0606 48.1176 20.7358 48.6567 20.8903C50.2497 21.3378 51.7119 20.4022 52.6922 19.2227C53.697 18.0106 54.5384 16.709 55.7882 15.7166C56.9891 14.7648 58.4676 14.2116 60.0116 14.4638C60.3547 14.5207 60.6814 14.6102 61.0082 14.716C60.4118 14.3255 59.791 13.9757 59.113 13.7235C58.0837 13.3412 57.0136 13.5771 55.9679 13.5202C55.7882 13.512 55.5595 13.7317 55.437 13.6666C55.2899 13.6015 55.2082 13.3493 55.1347 13.1704C55.0448 12.9263 54.9958 12.6579 54.9141 12.4057C54.5547 11.3726 54.277 10.3069 53.8032 9.32257C53.1415 7.93964 52.1775 6.73568 51.1564 5.58867C50.9195 5.32022 50.5928 5.11685 50.413 4.82399C50.0454 4.24642 49.5716 3.74205 49.2122 3.17261C48.8038 2.52996 48.2319 2.13949 47.6765 1.68393C47.0801 1.18771 46.4348 0.829774 45.7486 0.569458C45.5689 0.837908 45.5607 1.24465 45.8874 1.4887L45.8956 1.47243Z" fill="#F2CE97"/>
<path d="M28.4304 15.4482C28.4304 15.4482 28.4385 15.4807 28.4467 15.4888C29.3453 17.9456 31.0935 20.0118 33.536 21.0287C34.0343 21.2402 34.5081 20.5487 34.2303 20.1257C33.6667 19.2634 33.2419 18.3523 32.9396 17.4249C33.005 17.2785 32.9968 17.0995 32.858 16.9206C32.8253 16.8718 32.7926 16.8311 32.7599 16.7823C32.6047 16.1884 32.4903 15.5783 32.4168 14.9682C32.3351 13.8293 32.3351 12.6823 32.4005 11.5434C32.5802 9.6968 33.0132 7.85833 33.5687 6.1012C33.4461 6.28016 33.3236 6.451 33.2174 6.6381C32.6537 7.58174 32.0819 8.53352 31.5182 9.4853C30.7667 10.7706 30.1704 12.1373 29.5087 13.4795C29.1819 14.1547 28.8633 14.8299 28.4222 15.44L28.4304 15.4482Z" fill="#F2CE97"/>
<path d="M68.2703 33.8736C68.4827 30.644 67.8782 27.4308 67.192 24.2012C66.996 23.282 66.8163 22.3627 66.5385 21.4679C66.0566 19.9386 65.3132 18.5475 64.1369 17.4249C64.0633 17.3517 63.9898 17.2785 63.9245 17.2134C64.8394 21.5655 64.7087 26.1373 63.467 30.4081C61.5636 36.9648 57.087 42.7487 51.1972 46.2467C50.3803 46.7348 48.1829 47.41 46.884 48.1991C45.9283 48.1747 44.9725 47.9632 44.1066 47.5564C42.7505 46.9219 41.6314 45.7423 40.0956 45.5308C39.7607 45.4902 39.4421 45.6122 39.3359 45.962C39.2542 46.2467 39.4339 46.6697 39.7689 46.7185C40.5531 46.8243 41.2066 47.2148 41.852 47.6459C42.53 48.0933 43.1917 48.5082 43.9432 48.8173C43.9432 48.8417 43.9432 48.8661 43.9595 48.8905C44.0086 49.0288 44.0984 49.1915 44.2455 49.2566L44.3843 49.3217C44.4088 49.4193 44.4578 49.5169 44.5395 49.582C44.8173 49.826 45.1359 50.0131 45.4953 50.1108C45.8139 50.2002 46.1243 50.2084 46.4429 50.1677C46.5409 50.2328 46.639 50.2979 46.7615 50.3629C49.7268 51.9818 54.7997 49.7772 57.2913 48.1828C60.0524 46.4175 62.3315 43.9933 64.4554 41.4959C65.7135 40.0154 66.9388 38.4779 67.7475 36.7126C68.0743 36.0049 68.3194 35.2646 68.5154 34.5081C68.2295 34.4918 68.2377 34.4023 68.2785 33.8817L68.2703 33.8736Z" fill="#F2CE97"/>
<path d="M68.3439 56.4153C69.2425 56.8709 70.1247 57.0254 71.105 57.0417C72.1833 57.058 73.0329 56.6187 73.7681 55.9353C73.5965 55.61 73.3514 55.3334 73.09 55.0975C72.363 54.4385 71.4889 53.8854 71.056 53.0068C70.6965 52.2747 70.7047 51.4124 70.3861 50.664C69.7653 49.1915 67.9763 48.4675 66.3915 48.6628C64.7985 48.8661 63.4017 49.8098 62.2253 50.8917C61.3431 51.7134 60.5262 52.657 60.1259 53.7959C59.5949 55.3008 60.0279 62.5083 61.4983 65.1196C62.1191 64.2004 62.7073 63.2486 62.985 62.1666C63.2383 61.1823 63.2955 60.1655 63.516 59.173C63.614 58.7337 63.565 58.2456 63.516 57.782C63.4752 57.3427 63.6467 56.9115 63.3363 56.456C63.1076 56.1224 63.4017 55.61 63.1239 55.1544C62.8788 54.7558 63.2955 54.0562 63.7611 53.804C64.9047 53.1939 65.1416 53.2346 65.9422 54.1701C66.0076 54.2433 66.0484 54.3409 66.1137 54.4223C66.7346 55.2113 67.3881 55.9272 68.3275 56.4072L68.3439 56.4153Z" fill="#D47601"/>
<path d="M20.049 60.8894C20.58 60.4257 21.0211 59.6936 20.7516 59.0509C20.5964 58.6767 20.2288 58.4327 19.8938 58.1967C18.2355 57.0416 16.6916 55.496 16.2586 53.5273C15.8094 51.4855 16.6916 49.2891 18.2274 47.8573C19.7631 46.4256 21.8625 45.7097 23.9538 45.547C25.5467 45.425 27.2377 45.6365 28.5284 46.572C29.1656 47.0357 29.6802 47.654 30.0887 48.3292C31.0036 49.8341 31.4202 51.6319 31.265 53.3809C30.203 52.299 28.945 51.3146 27.4501 51.0543C25.9552 50.794 24.2152 51.4611 23.6679 52.8684C23.0961 54.3245 23.9211 55.9271 24.7625 57.245C25.6039 58.571 26.5188 60.0759 26.1267 61.589C25.6039 63.5983 23.1696 64.3467 21.1028 64.6314C18.8482 64.9324 15.8829 65.1602 14.1184 63.4681C15.0088 62.9068 15.5316 62.4106 16.4792 62.0608C17.7781 61.589 18.8645 61.9225 20.049 60.8812V60.8894Z" fill="#F2CE97"/>
<path d="M47.366 6.89028C46.9412 6.13373 46.4919 5.4016 46.0998 4.62878C45.8057 4.04307 45.5117 3.4411 45.1441 2.89606C44.4007 1.78158 43.2979 0.862344 41.8683 1.01691C40.112 1.21214 38.7641 2.72523 37.7757 4.05934C36.9016 5.2389 36.2562 6.57302 35.8478 7.98035C35.7824 8.04543 35.7253 8.12678 35.6844 8.23253C35.1289 9.79442 35.1779 11.6736 35.374 13.3005C35.5619 14.838 36.2889 16.1477 37.6776 16.8962C39.05 17.6364 40.643 17.6934 42.1461 17.3517C43.6818 17.0019 45.2993 16.3023 46.5736 15.3668C47.8316 14.4394 48.6976 13.1867 48.7874 11.5922C48.8854 9.90831 48.1584 8.32201 47.3497 6.89028H47.366Z" fill="#FDFCF1"/>
<path d="M61.8659 17.8561C61.6535 16.8311 61.0327 15.92 59.9952 15.619C59.1293 15.3668 58.1245 15.6027 57.6425 16.3837C57.4955 16.4162 57.3566 16.5057 57.2668 16.6846C55.3389 20.4674 51.7201 22.8997 48.6649 25.6981C46.9821 27.2356 45.4708 28.9439 44.2618 30.88C43.641 31.8724 42.9956 32.9462 42.8813 34.1339C42.7996 35.0613 43.1263 35.948 43.7308 36.6476C44.9807 38.1037 47.0883 38.5674 48.9344 38.4617C51.0094 38.3396 53.0108 37.5912 54.7181 36.4279C58.4513 33.8817 60.5098 29.7574 61.3758 25.4215C61.629 24.128 61.7924 22.8183 61.8986 21.5086C61.9884 20.3128 62.1191 19.0438 61.8741 17.8561H61.8659Z" fill="#FDFCF1"/>
<path d="M32.523 25.6737C32.0411 24.7788 31.5428 23.9003 31.0281 23.0217C30.5216 22.1594 30.0315 21.2564 29.4352 20.4511C28.9859 19.8491 28.2343 19.4505 27.5073 19.841C27.1969 20.0118 26.96 20.2721 26.7803 20.5731C26.6169 20.5487 26.4453 20.5894 26.2901 20.7277C25.1056 21.7852 24.9014 23.5261 24.7299 25.0066C24.5256 26.7719 24.5665 28.5453 24.8115 30.3024C25.2118 33.1496 26.0941 36.7859 29.1166 37.9166C29.8518 38.1932 30.636 38.2908 31.4039 38.4291C31.7633 38.4942 32.1228 38.5593 32.474 38.6569C32.8661 38.7627 33.2419 38.9335 33.6585 38.9172C35.2188 38.844 35.5946 36.4035 35.6844 35.2321C35.9458 31.8074 34.0915 28.5697 32.5149 25.6655L32.523 25.6737Z" fill="#FDFCF1"/>
<path d="M40.1283 38.4372C39.7117 38.0874 39.1725 38.0061 38.6579 38.1281C38.4864 38.1688 38.3311 38.2339 38.1923 38.3071C38.0044 38.3233 37.841 38.4291 37.7185 38.5999C37.6613 38.6731 37.6204 38.7545 37.5714 38.8358C37.3917 39.0636 37.2447 39.3239 37.1303 39.6005C37.0895 39.6819 37.0404 39.7632 37.0078 39.8527C36.7954 40.3245 36.5421 40.8695 36.583 41.3983C36.632 41.984 37.0405 42.4721 37.6286 42.5941C38.1678 42.6999 38.6742 42.5453 39.1072 42.2118C39.4911 41.9189 39.8016 41.5203 40.0793 41.1299C40.3489 40.7394 40.5613 40.3001 40.6266 39.8283C40.692 39.3158 40.5368 38.787 40.1365 38.4454L40.1283 38.4372Z" fill="#FDFCF1"/>
<path d="M40.7573 19.8978C40.308 19.5806 39.7607 19.426 39.2216 19.304C38.6007 19.1657 37.9881 19.0274 37.3672 18.881C37.3264 18.8728 37.2855 18.8647 37.2447 18.8647C36.5667 18.5881 35.8641 18.5718 35.4965 19.2389C35.2106 19.7514 35.276 20.4591 35.4393 21.0042C35.6109 21.5573 35.9295 22.078 36.3543 22.4766C36.5422 22.6474 36.7709 22.8182 37.0078 22.9484C37.6531 23.5666 38.6089 23.8839 39.4911 23.591C39.6464 23.5422 39.7607 23.4446 39.8342 23.3226C40.4061 23.2168 40.9452 22.9647 41.3047 22.5172C41.999 21.6468 41.5987 20.4917 40.7573 19.8978Z" fill="#FDFCF1"/>
<path d="M40.3162 56.2445C40.259 55.5123 39.8506 54.9022 39.2461 54.5036C39.2379 54.4711 39.2297 54.4467 39.2134 54.4141C38.8785 53.7227 37.9962 53.7064 37.359 53.9098C37.3345 53.9098 37.3182 53.926 37.2937 53.9342C36.4359 53.9179 35.57 54.1782 34.9329 54.7232C34.6306 54.8534 34.3692 55.0242 34.1568 55.2357C33.6013 55.7808 33.3154 56.578 33.1765 57.3264C33.0377 58.0748 33.0458 58.8883 33.5523 59.5065C34.0506 60.1085 34.8757 60.3038 35.6272 60.2712C37.1548 60.2143 38.7232 59.4171 39.6463 58.1968C40.0711 57.6437 40.3734 56.9359 40.3162 56.2282V56.2445Z" fill="#FDFCF1"/>
<path d="M75.8675 43.3914C74.683 42.3013 72.7306 41.7238 71.0315 42.0003C70.1901 41.919 69.3242 42.0573 68.6135 42.521C67.6087 43.188 67.0777 44.7906 68.3439 45.5065C69.2261 46.0027 70.4025 45.4902 71.2112 46.1247C71.9954 46.743 72.3058 47.8656 72.7878 48.7035C73.1309 49.2973 73.572 49.7773 74.3072 49.7773C74.8954 49.7773 75.4754 49.4844 75.9165 49.1102C77.6728 47.6541 77.4523 44.8557 75.8593 43.3914H75.8675ZM75.4182 47.8818C75.214 48.1422 74.9444 48.3537 74.634 48.4757C74.4543 48.5408 74.2664 48.6058 74.1112 48.4757C73.9968 48.3781 73.9069 48.2072 73.8334 48.0445C73.8988 48.0283 73.956 48.0039 74.0213 47.9713C74.2582 48.1584 74.634 48.1422 74.8627 47.9388C75.0179 47.7924 75.1486 47.6297 75.2548 47.4588C75.459 47.4263 75.6551 47.288 75.745 47.1009C75.7776 47.0684 75.8185 47.0358 75.8511 47.0033C75.7695 47.3287 75.6224 47.6378 75.4264 47.89L75.4182 47.8818Z" fill="#FDFCF1"/>
<path d="M17.3043 44.6523C17.7944 43.8226 18.064 42.8952 17.8598 41.9353C17.6637 41.0567 17.051 40.292 16.1606 40.0642C16.1198 40.0561 16.0789 40.048 16.0381 40.048C15.9401 39.9422 15.793 39.8853 15.597 39.9015C11.7249 40.349 8.19588 42.4559 6.07196 45.7261C4.05422 48.8336 3.03311 53.5518 5.01816 56.9197C6.64378 59.6855 10.2708 61.1579 13.3668 60.2224C14.2001 59.9703 15.0251 59.5554 15.5643 58.8639C16.1443 58.1236 16.324 57.1719 16.226 56.2445C16.0054 54.2596 14.5187 52.6326 14.5105 50.6233C14.5105 49.4844 14.9108 48.3862 15.4663 47.4019C16.0054 46.4338 16.7569 45.6122 17.3206 44.6604L17.3043 44.6523Z" fill="#FDFCF1"/>
<path d="M56.3519 59.9133C55.9026 58.807 55.2817 57.7982 54.5629 56.8546C53.8603 55.9272 53.0761 54.9917 52.0387 54.4223C50.9522 53.8284 49.4981 53.6169 48.4035 54.3084C47.5457 54.8453 47.0148 55.8296 47.1209 56.8302C47.0229 56.8953 46.9412 57.001 46.8922 57.1312C46.108 59.2462 47.17 61.6053 48.8446 62.9639C49.7432 63.696 50.7643 64.2085 51.8426 64.6234C52.8474 65.0057 54.1789 65.6158 55.2736 65.3555C57.6262 64.8023 56.9809 61.4915 56.3437 59.9214L56.3519 59.9133Z" fill="#FDFCF1"/>
<path d="M44.5559 68.4141C44.0413 67.8366 43.2162 67.56 42.4728 67.8366C41.999 68.0074 41.5906 68.3653 41.3863 68.8127C41.1821 68.7233 40.9371 68.7314 40.7328 68.9348C39.6464 70.0248 38.8703 71.4566 38.6497 72.9859C38.5272 73.8401 38.6497 74.7105 39.2134 75.3938C39.6872 75.9633 40.4469 76.2399 41.174 76.0772C41.95 75.9063 42.53 75.2881 43.012 74.7024C43.543 74.0597 44.0249 73.3845 44.4334 72.6605C45.1849 71.359 45.675 69.6669 44.5559 68.406V68.4141Z" fill="#FDFCF1"/>
<path d="M38.1188 25.3644C38.8376 25.4946 39.581 25.6166 40.2999 25.4865C41.5987 25.2587 42.628 24.25 43.8779 23.8188C45.2993 23.3307 47.0556 23.5666 48.1094 22.501C45.3891 24.551 43.2734 27.3819 42.0807 30.5708C41.517 32.0838 41.1494 33.662 40.5695 35.167C40.4469 35.4842 40.308 35.8096 40.0466 36.0211C39.7852 36.2326 39.3604 36.2896 39.1154 36.0618C38.9275 35.8828 38.8948 35.5981 38.8703 35.3378C38.519 31.4575 37.2038 27.5934 35.0717 24.3639C36.0112 24.9496 37.0486 25.1773 38.1188 25.3644Z" fill="#F2CE97"/>
<path d="M54.2851 70.2039C54.2688 69.9679 54.2851 69.7239 54.2851 69.5287C54.5302 69.4961 54.7671 69.4717 54.9958 69.4473C54.7181 69.3334 54.4403 69.2114 54.1707 69.0812C53.9665 68.9511 53.7623 68.8209 53.5662 68.6745C53.4355 68.5769 53.2885 68.5525 53.1496 68.585C52.3736 68.1945 51.6057 67.7797 50.8623 67.3322C50.2578 66.9662 49.637 67.7959 50.1189 68.2922C51.3606 69.5856 51.9488 71.4241 51.7119 73.2056C51.4341 75.2475 49.9719 76.7606 48.6077 78.1923C48.4851 78.3224 48.3544 78.4526 48.2319 78.5828C47.8888 78.8756 47.5621 79.1847 47.2598 79.5183C46.9167 79.8274 46.5573 80.1121 46.1652 80.3643C45.2666 80.9337 44.27 81.2917 43.2407 81.5357C41.321 81.9913 39.2951 82.0238 37.3509 81.6577C35.57 81.3242 33.8791 80.6571 32.3433 79.7135C32.621 80.1853 33.005 80.6002 33.4624 80.95C34.1405 81.4544 34.8838 81.9262 35.7252 82.2109C36.6565 82.5282 38.2821 82.9186 39.0663 82.9918C39.7852 83.0569 40.4306 82.7234 41.1331 82.7559C41.8765 82.7885 42.628 82.7559 43.3714 82.7641C44.2618 82.5607 45.1522 82.276 45.9691 81.8692C45.9691 81.9425 45.9691 82.0075 45.9854 82.0726C46.2223 81.9425 46.4511 81.7879 46.7125 81.6903C47.9787 81.2022 49.0978 80.4294 50.1516 79.6322C51.2136 78.8187 52.1122 77.8018 52.7085 76.5246C53.6397 74.5072 54.424 72.4735 54.2851 70.2039ZM52.4716 76.4107C52.5696 76.2806 52.6676 76.1423 52.7575 76.004C52.7575 76.0935 52.7902 76.1748 52.8229 76.2481C52.733 76.3131 52.6431 76.3863 52.5614 76.4514C52.5369 76.4352 52.5043 76.4189 52.4798 76.4107H52.4716Z" fill="#E2AE6D"/>
<path d="M27.4093 62.4594C28.1363 61.3124 28.3487 59.539 27.4501 58.3269C27.156 57.9201 27.0417 57.4971 26.9191 57.0416C26.7721 56.4965 26.576 55.9759 26.3718 55.3333C26.3718 55.3333 26.4045 55.2682 26.4698 55.2438C27.1887 54.9753 27.8912 54.6906 28.6264 54.4791C28.847 54.414 29.1084 54.3977 29.3126 54.5604C29.6557 53.6412 30.2194 52.8928 31.1915 52.8765C31.3957 52.8765 31.5346 52.6813 31.4856 52.486C31.0199 50.5174 29.4597 48.9555 27.5563 48.3047C25.6284 47.6458 23.5453 48.0932 22.0504 49.468C20.6045 50.8103 19.8121 52.8684 20.1716 54.8208C20.3921 56.0573 21.0947 57.1392 21.4704 58.3269C21.7809 59.3112 21.7972 60.6535 20.9395 61.4019C20.3921 61.8818 19.6488 61.7761 18.9789 61.7435C18.1375 61.7029 17.2961 61.654 16.4547 61.6134C15.5234 61.5646 14.6003 61.5157 13.6691 61.4669C12.8767 61.3856 12.0761 61.3612 11.3083 61.3449C10.908 61.3368 10.9161 61.9388 11.3083 61.955L13.9223 62.0933C15.4581 62.2642 16.953 62.6709 18.0803 63.7528C18.8074 64.4443 19.3792 65.3879 19.4445 66.4129C19.5099 67.4705 18.9871 68.3978 18.2029 69.0812C16.6998 70.3827 14.4778 70.8952 12.5254 70.9603C10.6221 71.0254 8.69419 70.6512 6.94604 69.8865C5.92492 69.4391 4.96915 68.8534 4.10324 68.1538C4.22578 68.3246 4.34831 68.4955 4.47084 68.6744C5.32858 69.9353 6.46407 70.8058 7.85279 71.3996C8.25307 71.5704 8.64518 71.7494 9.03729 71.9121C9.88686 72.2619 11.7167 72.7256 12.3784 72.6931C12.9175 72.6605 13.4567 72.6605 13.9958 72.6931C15.4009 72.7663 16.6589 72.3351 17.9088 71.725C19.1178 71.1393 19.902 70.2689 20.2859 68.9754C20.4003 68.5768 20.58 68.1538 20.7842 67.7959C21.1028 67.2508 21.5521 66.779 21.7809 66.1689C21.8625 65.9574 22.0668 65.8191 22.369 65.811C23.5617 65.7784 24.5746 65.1846 25.4814 64.5338C26.2411 63.9969 26.8946 63.2729 27.4093 62.4594Z" fill="#E2AE6D"/>
<path d="M75.5244 37.4528C76.9539 37.6969 78.3345 38.1036 79.4781 38.852C79.2739 38.4534 79.0615 38.0955 78.8328 37.8514C77.7381 36.6393 76.4638 35.655 74.9362 35.053C74.1847 34.7602 73.4086 34.4999 72.5754 34.508C72.0035 34.508 71.4317 34.508 70.8599 34.508C70.5576 34.5975 70.0675 34.6056 70.1247 34.508C69.6509 34.508 69.1771 34.508 68.6951 34.508C68.205 34.508 68.2213 34.4917 68.2622 33.8735C68.4746 30.6602 67.8455 27.333 67.1839 24.2011C66.9878 23.2819 66.8081 22.3626 66.5303 21.4678C66.367 20.9553 66.1709 20.4591 65.9422 19.9791C68.8667 28.4719 65.8932 38.6812 58.68 44.1478C56.0986 46.1002 53.1088 47.4424 50.1598 48.7603C49.5308 49.045 49.9474 49.8422 50.4702 49.9073C55.3389 50.493 59.2763 47.0275 62.4459 43.8387C64.2839 41.9839 66.1546 40.0885 67.772 38.0141C67.7884 38.0141 67.8047 38.0141 67.821 38.006C70.2962 37.2332 72.943 37.0135 75.508 37.4528H75.5244Z" fill="#E2AE6D"/>
<path d="M31.4856 67.5518C31.9022 67.6169 32.376 67.7633 32.6619 68.0399C33.0132 68.3816 33.4543 68.4222 33.8464 68.5849C34.5162 68.8696 34.6061 68.9998 34.696 69.6913C34.8267 70.7081 34.4427 71.5704 33.9771 72.4002C33.6993 72.8964 33.3399 73.3601 32.9968 73.8156C32.9478 73.8889 32.8988 73.9539 32.8498 74.0271C33.5523 73.7831 34.1977 73.4089 34.6469 72.8069C35.4802 71.6843 35.2351 70.1387 36.2236 69.0974C36.9261 68.3572 37.9309 67.7226 37.8982 66.5919C37.8982 66.3722 37.6368 66.1933 37.4326 66.3234C35.5374 67.5355 32.9886 67.9179 30.9546 66.8115C29.9253 66.2584 29.1166 65.331 28.6754 64.2572C29.1329 62.98 30.1785 61.833 31.1425 60.9626C31.3304 60.7917 31.1915 60.4175 30.9219 60.4419C30.1377 60.4989 29.3698 60.0108 29.1166 59.2705C29.0512 59.3844 28.994 59.5064 28.9287 59.6203C28.8715 59.7179 28.8307 59.8237 28.7735 59.9294C28.9042 60.1409 28.945 60.1572 28.7735 59.9782C28.3977 60.6941 28.1281 61.4425 28.0138 62.2397C27.834 63.5006 28.0791 64.729 28.9123 65.7133C29.5904 66.5187 30.3092 67.3484 31.4856 67.5355V67.5518Z" fill="#E2AE6D"/>
<path d="M51.0175 18.7183C52.0632 18.8728 52.733 17.9373 53.3702 17.2621L56.0904 14.3987C56.3682 14.1058 56.6786 13.8129 56.9645 13.5038C56.6378 13.512 56.311 13.5282 55.9842 13.5038C55.8045 13.4957 55.5758 13.7153 55.4533 13.6503C55.3062 13.5852 55.2245 13.333 55.151 13.154C55.1347 13.1052 55.1265 13.0645 55.1102 13.0157C55.0938 13.0564 55.0775 13.1052 55.0612 13.1459C55.0693 13.0727 55.0775 13.0076 55.0857 12.9344C55.0366 12.7554 54.9876 12.5683 54.9305 12.3893C54.7181 11.7874 54.5302 11.1691 54.326 10.5671C54.4567 11.1528 54.5302 11.7467 54.5138 12.3568C54.473 14.8217 52.8719 16.774 50.944 18.1488C50.7561 18.279 50.7316 18.6695 51.0175 18.7101V18.7183Z" fill="#E2AE6D"/>
<path d="M2.27338 65.8191C2.33873 65.5669 2.15085 65.4124 1.97113 65.4124C2.06099 65.5425 2.16719 65.6808 2.27338 65.8191Z" fill="#E2AE6D"/>
<path d="M29.5168 13.4876C29.3453 13.8455 29.1737 14.2034 28.9858 14.5451C29.672 15.9931 30.6523 17.3028 31.8613 18.3766C32.1391 18.6207 32.4822 18.3197 32.3433 18.0024C31.4365 15.8955 30.832 13.6747 30.5216 11.405C30.1867 12.0965 29.8599 12.7961 29.525 13.4794L29.5168 13.4876Z" fill="#E2AE6D"/>
<path d="M21.3397 39.7225C22.5732 40.1781 23.7822 40.2025 25.0811 40.2431C25.8817 40.2676 26.6577 40.4058 27.2214 41.0241C27.7033 41.561 27.9729 42.2606 28.218 42.9195C28.316 43.1798 28.7408 43.2449 28.8143 42.9195C29.1574 41.3007 27.8504 40.0967 26.5188 39.4541C25.7346 39.0717 24.9096 38.787 24.1662 38.3152C23.4718 37.8759 22.8591 37.3146 22.3527 36.6638C20.4983 34.3047 20.678 31.2216 19.8775 28.4639C19.7304 30.0583 19.7794 31.6527 20.2287 33.2309C20.433 33.9386 20.6862 34.622 20.8904 35.3216C21.1028 36.0618 21.3479 36.7696 21.7645 37.4285C21.9687 37.7539 22.0749 38.1362 22.2628 38.5674C21.6256 38.4128 21.2008 38.0386 20.6454 37.9084C20.098 37.7864 19.518 37.6644 18.9789 37.5586C18.6685 37.5017 18.3417 37.4773 18.015 37.4936C18.9299 38.4779 20.0735 39.2507 21.3561 39.7225H21.3397Z" fill="#E2AE6D"/>
<path d="M48.2973 49.4112C48.3136 49.2729 48.2319 49.0939 48.0767 49.0776C47.4885 48.9963 46.9004 48.9068 46.3122 48.8254C46.2305 48.8173 46.1488 48.8254 46.0835 48.858C45.8629 48.858 45.6505 48.8824 45.4463 48.9393C45.3401 48.9231 45.2421 48.9393 45.1686 48.9881C44.9807 49.037 44.7928 49.1183 44.6294 49.2322C44.5069 49.3217 44.4088 49.5088 44.515 49.6552C45.0297 50.3385 45.8384 50.7534 46.6962 50.7127C46.835 50.7127 46.9331 50.6232 46.9739 50.5094C47.4477 50.4768 47.9215 50.3223 48.1666 49.883C48.2074 49.8016 48.2156 49.6877 48.1829 49.5983C48.2401 49.5494 48.2809 49.4844 48.2891 49.403L48.2973 49.4112Z" fill="#E2AE6D"/>
<path d="M27.8422 55.3496C28.5692 54.6419 28.8878 54.6093 29.9008 54.5931C30.4808 53.804 30.4644 52.6976 30.1132 51.7865C29.7619 50.8754 29.1247 50.1026 28.4875 49.3542C28.2833 49.1102 28.0628 48.8499 27.7605 48.7278C27.3929 48.5733 26.9681 48.6546 26.576 48.7441C25.2118 49.0776 23.8639 49.6064 22.7856 50.5012C21.7073 51.3961 20.9149 52.6976 20.8414 54.0968C20.8006 54.9591 21.0293 55.8133 21.3152 56.6349C21.6338 57.5623 22.0913 58.5466 22.9817 58.9778C23.3901 59.173 23.8558 59.2381 24.2479 59.4658C25.1628 59.9865 25.416 61.3206 24.8687 62.2154C24.5665 62.7117 24.0681 63.0533 23.5127 63.2242C23.5127 63.2242 23.5127 63.2323 23.5127 63.2404C24.4929 63.2892 25.514 63.4194 26.2329 62.9313C27.3112 62.191 28.1281 60.9464 27.9892 59.653C27.8749 58.5873 27.1397 57.6111 27.254 56.5454C27.3031 56.098 27.5154 55.6669 27.8422 55.3496Z" fill="#D47601"/>
</g>
<defs>
<clipPath id="clip0_72_49">
<rect width="81" height="83" fill="white"/>
</clipPath>
</defs>
</svg>
