<svg width="92" height="86" viewBox="0 0 92 86" fill="none" xmlns="http://www.w3.org/2000/svg">
<g clip-path="url(#clip0_72_55)">
<path d="M46.5171 69.7817C45.9448 70.6031 45.3423 71.1841 44.5892 71.7251C42.3399 73.3379 39.8095 74.3096 37.239 75.2112C36.3654 75.5117 35.4717 75.722 34.5881 76.0025C33.7546 76.263 32.8208 76.1828 32.0476 76.7038C30.4611 76.6537 29.0352 77.3849 27.5089 77.6354C26.7157 77.7656 25.9324 78.1262 25.1191 78.3166C24.5267 78.4468 24.0848 78.7273 23.884 79.3884C23.3819 80.9812 22.1368 82.0531 20.9118 83.0348C20.1587 83.6358 19.0843 83.8662 18.1102 84.1267C16.2325 84.6276 14.3347 85.0684 12.457 85.5592C11.2219 85.8798 9.88641 86.1703 8.59108 85.9098C7.33591 85.6494 5.99038 85.429 4.95612 84.6476C3.90178 83.8462 2.94786 82.8545 2.39558 81.5723C1.93368 80.4703 1.64248 79.3083 1.24083 78.1863C0.758849 76.854 0.708642 75.4416 0.427485 74.0792C0.266824 73.2978 0.0559564 72.3361 0.638353 71.5247C0.728725 71.3945 0.678518 71.1441 0.668477 70.9437C0.497774 68.5996 1.43162 66.5561 2.47591 64.5626C3.20893 63.1601 4.15281 61.8779 5.07662 60.5856C6.26149 58.9227 7.54678 57.35 9.09314 56.0177C10.1876 55.076 11.3524 54.2045 12.7984 53.8439C13.3005 53.7136 13.5816 53.4332 13.4712 52.9223C13.0896 51.1392 13.2 49.2959 12.4469 47.5529C11.8445 46.1505 11.4629 44.6679 11.3324 43.0951C11.252 42.1034 11.0612 41.1017 11.1114 40.0899C11.1416 39.2885 11.3324 38.4871 11.3826 37.6857C11.4328 36.8442 11.2621 35.9727 11.4328 35.1713C11.6135 34.2697 11.8746 33.3782 12.1055 32.4866C12.4369 31.2244 12.6478 29.9322 12.9189 28.66C13.2302 27.1974 13.0695 25.6447 13.7824 24.2723C13.8728 22.2788 14.6962 20.5157 15.5798 18.7727C16.2426 17.4604 17.0057 16.2082 18.3914 15.497C18.5822 15.3968 18.7027 15.1464 18.8433 14.956C19.5763 13.9743 20.2591 12.9425 21.0423 12.0109C21.5042 11.47 22.1268 11.0693 22.6991 10.6385C23.2715 10.1977 23.6731 9.60671 24.3359 9.21603C25.1492 8.74521 25.7818 7.95383 26.545 7.35278C27.7097 6.42116 30.7322 4.29745 32.2384 3.47602C33.2726 2.91504 34.4073 2.68464 35.5319 2.46426C35.9738 2.38412 36.3754 2.22384 36.6766 1.99343C38.8355 0.380621 41.2756 -0.170341 43.9064 0.0400264C45.1515 0.140201 46.1958 0.831407 47.0995 1.65284C48.3145 2.75476 49.4793 3.90677 50.5738 5.11889C51.6081 6.26088 52.4516 7.55313 52.803 9.09582C52.8633 9.35628 53.034 9.5967 53.1645 9.87718C54.5201 8.64504 56.1367 8.02395 57.653 7.26263C58.2554 6.9621 59.0186 6.94207 59.7215 6.87194C60.3139 6.81184 60.9164 6.86193 61.5088 6.86193C63.6476 6.86193 65.8166 8.08406 67.1119 9.91725C67.6943 10.7387 68.4273 11.4499 69.0499 12.2413C69.7126 13.0928 70.3452 13.9543 70.8774 14.8959C71.2589 15.5771 71.2891 16.3184 71.52 17.0096C71.7108 17.6007 71.8012 18.3119 71.8313 18.953C71.9217 20.666 72.3534 22.2688 72.9559 23.8516C72.9861 23.9417 73.0563 24.0219 73.0563 24.102C73.1367 25.6447 73.6588 27.1974 73.3275 28.7301C72.8856 30.8237 73.2371 32.9174 73.0262 35.001C72.9258 35.9927 72.6547 36.9644 72.8154 38.0363C73.0162 37.9461 73.227 37.7658 73.3877 37.7959C74.1107 37.9562 74.924 38.0063 75.5064 38.4069C76.9925 39.4187 77.9666 40.8612 78.4285 42.6343C78.8401 44.2171 78.8301 45.8299 78.6694 47.4127C78.549 48.6648 77.8661 49.7868 76.9323 50.6884C75.6771 51.9105 74.3918 53.1126 73.0865 54.3548C73.7191 54.485 74.4019 54.3948 75.0646 54.4149C75.7575 54.4349 76.4704 54.3347 77.1432 54.4349C79.1815 54.7254 81.2701 54.7054 83.2583 55.4767C84.2323 55.8474 85.3168 55.9976 86.2506 56.5085C88.3894 57.6806 89.8555 59.4236 90.6186 61.7477C91.0404 63.0299 91.4018 64.3121 91.5725 65.6745C91.683 66.526 91.924 67.2873 91.5223 68.1188C91.4018 68.3592 91.4922 68.6998 91.5023 69.0003C91.5525 70.6732 91.1709 72.246 90.6989 73.8588C90.2872 75.2813 89.6848 76.5234 88.8513 77.7055C87.8372 79.148 86.813 80.5505 85.3168 81.5923C84.5838 82.1032 83.911 82.6942 83.1177 83.145C82.4349 83.5357 80.8283 84.1267 80.0953 84.1267C78.7598 84.1267 77.4143 84.1868 76.0788 84.1067C74.8236 84.0365 73.5785 83.7661 72.4338 83.2251C71.6807 82.8745 70.7669 82.8344 70.2347 82.0731C69.4013 82.0331 68.7888 81.4921 68.0759 81.1715C67.2826 80.8109 66.419 80.6106 65.6258 80.2499C64.6618 79.8092 63.6677 79.3784 62.8343 78.7473C61.6896 77.8758 60.4143 77.3849 59.0788 77.0143C57.3417 76.5335 55.6648 75.9324 54.0381 75.151C53.3352 74.8104 52.6122 74.5199 51.8993 74.1994C50.7747 73.6885 49.8207 72.9071 48.8969 72.1057C48.5756 71.8252 48.3547 71.4646 47.8828 71.3043C47.5414 71.1841 47.1799 70.8435 47.0795 70.3427C47.0393 70.1223 46.6979 69.962 46.487 69.7717L46.5171 69.7817Z" fill="#FEF3CD"/>
<path d="M91.5424 68.1188C91.944 67.2874 91.693 66.526 91.5926 65.6746C91.4219 64.3122 91.0604 63.0299 90.6387 61.7477C89.8755 59.4237 88.3995 57.6806 86.2707 56.5086C85.3369 55.9977 84.2524 55.8474 83.2784 55.4768C82.5454 55.1963 81.7923 55.016 81.0392 54.8958C80.5471 56.188 80.4066 57.5303 80.8986 58.8627C81.23 59.7642 81.8224 60.5556 82.0333 61.4873C82.6659 64.2721 79.774 66.476 77.2837 67.8784C72.9459 70.3126 67.6541 72.7769 63.2259 70.503C61.9707 69.8518 60.9164 68.8701 59.6913 68.1589C57.2111 66.7264 54.2389 66.5361 51.4976 65.7246C48.7563 64.9132 45.9247 63.0199 45.6335 60.175C44.8603 62.8296 41.7475 64.0918 38.9761 64.1719C36.2047 64.2521 33.4333 63.5208 30.6819 63.8714C27.3482 64.2921 24.4162 66.2155 21.7552 68.2591C19.0842 70.2926 16.4835 72.5265 13.3406 73.7086C10.1977 74.9007 6.31167 74.8205 3.85154 72.5365C2.2851 71.094 1.58221 69.0705 1.37134 66.9267C0.879313 68.1889 0.568032 69.5112 0.678487 70.9437C0.688528 71.1341 0.748776 71.3945 0.648363 71.5248C0.0659662 72.3362 0.276834 73.2978 0.437495 74.0792C0.718652 75.4416 0.768858 76.8541 1.25084 78.1864C1.65249 79.3083 1.94369 80.4704 2.40559 81.5723C2.94782 82.8545 3.90175 83.8463 4.96613 84.6476C5.99034 85.429 7.33588 85.6494 8.60109 85.9099C9.89642 86.1803 11.2319 85.8798 12.467 85.5592C14.3548 85.0684 16.2425 84.6276 18.1203 84.1267C19.0943 83.8663 20.1687 83.6259 20.9218 83.0348C22.1468 82.0631 23.392 80.9813 23.894 79.3885C24.1049 78.7273 24.5367 78.4569 25.1291 78.3166C25.9424 78.1363 26.7257 77.7757 27.5189 77.6354C29.0452 77.385 30.4711 76.6537 32.0576 76.7038C32.8208 76.1829 33.7546 76.263 34.5981 76.0026C35.4817 75.7221 36.3754 75.5117 37.249 75.2112C39.8195 74.3096 42.35 73.3379 44.5992 71.7251C45.3523 71.1842 45.9648 70.6032 46.5271 69.7817C46.738 69.9721 47.0694 70.1323 47.1196 70.3527C47.22 70.8536 47.5915 71.1942 47.9229 71.3144C48.3948 71.4747 48.6157 71.8353 48.9371 72.1158C49.8709 72.9172 50.8148 73.6986 51.9394 74.2094C52.6524 74.53 53.3753 74.8205 54.0782 75.1611C55.6949 75.9425 57.3818 76.5435 59.119 77.0244C60.4444 77.395 61.7297 77.8959 62.8744 78.7574C63.7078 79.3885 64.7019 79.8192 65.6659 80.26C66.4592 80.6206 67.3227 80.811 68.116 81.1816C68.8289 81.5122 69.4414 82.0531 70.2749 82.0832C70.8071 82.8445 71.7309 82.8846 72.4739 83.2352C73.6287 83.7761 74.8638 84.0466 76.1189 84.1167C77.4544 84.1868 78.7999 84.1368 80.1354 84.1368C80.8584 84.1368 82.4751 83.5457 83.1579 83.155C83.9511 82.7043 84.6239 82.1132 85.3569 81.6023C86.8531 80.5605 87.8773 79.1581 88.8915 77.7156C89.7249 76.5335 90.3173 75.2813 90.7391 73.8688C91.211 72.256 91.5926 70.6833 91.5424 69.0104C91.5424 68.7098 91.442 68.3693 91.5625 68.1288L91.5424 68.1188Z" fill="#F2CE97"/>
<path d="M73.0262 34.8709C71.6405 35.8626 70.5159 37.3652 70.0037 39.2084C69.3109 41.6827 69.6724 44.2873 68.7185 46.7616C67.3428 50.3178 64.3706 52.2512 61.1774 54.0543C58.8177 55.3866 56.448 56.729 54.0883 58.0613C61.3883 58.7625 68.8992 56.759 74.924 52.5918C75.5968 51.9506 76.2695 51.3095 76.9323 50.6684C77.8661 49.7668 78.5489 48.6349 78.6694 47.3927C78.82 45.8099 78.8301 44.1971 78.4284 42.6144C77.9665 40.8413 76.9925 39.3988 75.5064 38.387C74.924 37.9963 74.1106 37.9362 73.3877 37.7759C73.227 37.7359 73.0161 37.9262 72.8153 38.0163C72.6446 36.9445 72.9258 35.9728 73.0262 34.981C73.0262 34.941 73.0262 34.9009 73.0262 34.8608V34.8709Z" fill="#F2CE97"/>
<path d="M62.523 27.9487C62.0611 26.6965 61.0771 25.7148 60.3842 24.5728C59.6412 23.3507 59.4203 21.8982 58.9483 20.6259C58.0446 21.7679 58.0647 23.4409 58.0546 24.8934C58.0345 28.2693 57.7233 31.8054 55.8957 34.6404C54.3895 36.9745 52.0098 38.5973 49.5898 39.9797C48.8869 40.3804 48.174 40.7711 47.441 41.1117C46.1958 41.6927 43.083 40.3203 41.8078 39.9496C39.2272 39.1983 38.9259 34.8107 38.8958 32.5768C38.8556 29.3011 39.7393 26.0454 41.1852 23.1203C43.555 18.3319 47.2903 14.365 50.9956 10.5183C39.2874 14.9761 32.0376 27.7283 31.8367 40.2301C31.8167 41.4523 31.8367 42.7345 31.2945 43.8364C29.8686 46.6714 25.6714 46.5011 22.7895 45.1587C18.6927 43.2554 15.3288 39.8495 13.4913 35.7323C12.9691 34.5602 12.5675 33.3281 12.1758 32.0959C12.1457 32.2162 12.1256 32.3364 12.0855 32.4566C11.8545 33.3481 11.5934 34.2397 11.4127 35.1413C11.242 35.9527 11.4127 36.8242 11.3625 37.6556C11.3123 38.457 11.1215 39.2584 11.0914 40.0598C11.0512 41.0616 11.232 42.0633 11.3123 43.0651C11.4428 44.6378 11.8244 46.1304 12.4269 47.5229C13.18 49.2659 13.0695 51.1091 13.4511 52.8922C13.4812 53.0425 13.4812 53.1627 13.4511 53.2729C13.913 53.2328 14.3347 53.1927 14.7565 53.1627C15.871 52.752 17.0158 52.4414 18.1906 52.2812C19.0441 52.1609 19.9177 52.1309 20.7712 52.211C22.0364 52.1509 23.3016 52.2511 24.5166 52.5316C28.985 53.5734 33.0517 54.9157 35.8934 58.512C35.2408 56.4785 34.578 54.3848 34.6985 52.2511C34.8291 49.897 36.2348 47.8234 38.3736 46.8316C40.2313 45.9601 42.1391 46.4009 44.0872 46.5912C46.6075 46.8417 49.9814 45.5093 52.1805 44.3473C52.6825 44.2071 53.1745 44.0468 53.6565 43.8464C58.9784 41.6827 62.754 36.1931 62.8644 30.4631C62.8845 29.6016 62.8142 28.7301 62.523 27.9287V27.9487Z" fill="#F2CE97"/>
<path d="M57.2814 18.7427C57.2613 18.6725 57.2413 18.6124 57.2212 18.5423C55.7049 14.0044 49.3387 19.2936 47.5715 19.9948C47.471 20.0349 47.3706 20.105 47.2702 20.2052C45.9347 21.6678 44.78 23.3006 43.8963 25.0837C43.0629 26.7667 42.3901 28.6499 42.5608 30.5633C42.6311 31.3747 42.8621 32.146 43.2135 32.8372C43.4445 34.44 45.1113 35.582 46.7581 35.6722C46.8485 35.6722 46.9389 35.6722 47.0292 35.6722C47.712 35.7623 48.4451 35.7022 49.2082 35.4518C52.8331 34.2397 54.0481 30.4831 54.982 27.1674C55.5141 25.2741 55.9359 23.4008 56.7492 21.5976C57.1609 20.6961 57.5023 19.6843 57.2714 18.7427H57.2814Z" fill="#FDFCF1"/>
<path d="M21.685 55.9977C20.2691 54.8456 17.809 55.1762 16.1221 55.4066C15.4995 55.4868 14.877 55.617 14.2745 55.7673C14.0234 55.5769 13.672 55.5669 13.3607 55.7071C10.9207 56.779 8.48063 57.8409 6.05063 58.9127C5.68914 59.073 5.57869 59.5438 5.69919 59.8945C4.39381 61.1567 3.41981 62.7394 2.92778 64.4825C2.45584 66.1554 2.3253 68.239 3.59051 69.6114C4.26328 70.3327 5.24733 70.6532 6.15104 70.9738C7.17526 71.3344 8.20952 71.655 9.30402 71.7652C11.2922 71.9755 13.1398 71.2042 14.6761 69.9921C16.3129 68.6998 17.4777 66.9468 18.6826 65.2738C19.3152 64.3923 19.998 63.5709 20.721 62.7695C21.3436 62.0783 21.9661 61.357 22.3678 60.5155C23.0506 59.063 23.0305 57.0795 21.695 55.9977H21.685Z" fill="#FDFCF1"/>
<path d="M75.878 56.9493C74.181 56.2781 71.9016 56.7389 70.2147 57.2598C68.2867 57.8509 66.66 59.0229 64.8225 59.7842C62.8443 60.6057 60.6754 60.6257 58.5667 60.5856C57.6228 60.5656 56.4078 60.3753 55.8054 61.2969C55.3033 62.0682 55.6045 63.08 56.2371 63.681C57.0404 64.4323 58.2454 64.8731 59.2094 65.374C60.344 65.975 61.4787 66.5661 62.6134 67.1671C62.754 67.2372 62.8845 67.2673 63.015 67.2673C63.256 67.4175 63.5071 67.5678 63.7681 67.688C65.3145 68.4393 67.2525 69.0304 68.9896 68.9102C71.028 68.7699 72.2631 67.4176 73.5383 65.9851C74.3115 65.1135 75.0847 64.252 75.8478 63.3805C76.4604 62.6893 77.0628 61.968 77.4143 61.1065C78.0569 59.5238 77.585 57.6205 75.898 56.9493H75.878Z" fill="#FDFCF1"/>
<path d="M40.4622 51.009C40.7233 50.448 40.8739 49.8269 40.7936 49.2459C40.7233 48.7551 40.5225 48.2642 40.0706 48.0038C39.5485 47.6932 38.9359 47.8235 38.464 48.164C37.741 48.695 37.1486 49.3862 36.7871 50.2076C36.3654 51.1893 36.2348 52.2111 36.4256 53.2629C36.4758 53.5534 36.7469 53.7638 37.0281 53.8339C37.1084 54.0944 37.3293 54.3548 37.5904 54.3849C38.4138 54.5051 39.1468 54.2146 39.689 53.5735C40.2212 52.9424 40.663 52.0709 40.5124 51.2294C40.5024 51.1493 40.4723 51.0791 40.4522 50.999L40.4622 51.009Z" fill="#FDFCF1"/>
<path d="M58.2554 36.654C56.9902 39.4989 54.4498 41.823 51.4173 42.5643C53.0942 43.1153 54.8313 42.0334 56.2271 40.9715C58.3358 39.3787 60.4344 37.6357 61.6594 35.2916C62.8744 32.9475 63.005 29.8521 61.298 27.8386C60.344 26.7166 59.4504 25.9653 59.3299 24.3726C57.2111 27.8586 60.0629 32.6069 58.2554 36.664V36.654Z" fill="#E2AE6D"/>
<path d="M46.5171 5.02873C46.2862 3.58621 45.272 2.46425 43.8361 2.12366C41.5366 1.5727 39.0363 2.14369 36.9176 3.26565C36.6766 3.03525 36.3252 2.91504 35.9436 3.08534C31.1539 5.22908 27.037 8.80531 24.2254 13.233C22.6991 15.6272 21.4941 18.3119 21.1226 21.1468C20.7913 23.6512 21.0523 26.7967 23.1409 28.5397C24.0547 29.3011 25.2596 29.6216 26.4044 29.2109C27.6294 28.7802 28.5733 27.7484 29.3766 26.7666C31.0535 24.7431 32.2685 22.409 33.604 20.1551C34.9796 17.8311 36.536 15.7174 38.7451 14.1146C40.9844 12.4917 43.6152 11.1795 45.3423 8.95557C46.2159 7.83362 46.7481 6.47124 46.5071 5.03874L46.5171 5.02873Z" fill="#FDFCF1"/>
<path d="M72.725 36.0629C72.7852 35.9828 72.8455 35.9026 72.9057 35.8225C72.9459 35.542 72.986 35.2715 73.0162 34.991C73.227 32.9174 72.8756 30.8137 73.3174 28.7201C73.6387 27.1874 73.1266 25.6447 73.0463 24.092C73.0463 24.0019 72.976 23.9217 72.9459 23.8416C72.3434 22.2588 71.9116 20.656 71.8212 18.943C71.7911 18.3019 71.7008 17.6007 71.51 16.9997C71.2891 16.3084 71.2589 15.5672 70.8673 14.886C70.3351 13.9443 69.7025 13.0828 69.0398 12.2313C68.4172 11.4299 67.6842 10.7287 67.1018 9.90728C65.8065 8.07408 63.6376 6.85195 61.4988 6.85195C60.9063 6.85195 60.3039 6.80186 59.7114 6.86197C59.0085 6.93209 58.2454 6.94211 57.6429 7.25265C56.1166 8.01398 54.5 8.63506 53.1544 9.86721C53.0239 9.58672 52.8532 9.3463 52.7929 9.08585C52.4315 7.54316 51.598 6.2509 50.5638 5.10891C49.4592 3.8968 48.2944 2.74479 47.0895 1.64287C46.1958 0.83145 45.1415 0.130227 43.8963 0.0300524C43.6955 0.0100175 43.4947 0.0100175 43.2838 0C44.9005 1.06185 46.4368 2.27397 47.4108 3.9569C48.1338 5.19907 48.4451 6.64159 49.2383 7.8537C49.8508 8.78533 50.7546 9.6869 51.8189 10.0876C52.4415 10.318 53.2147 10.3481 53.7368 9.96739C53.777 9.96739 53.8172 9.96739 53.8573 9.95737C53.8172 10.2278 54.018 10.5384 54.3493 10.4182C58.4362 9.03576 63.2259 10.2879 66.0475 13.5737C68.9193 16.9295 69.2908 22.0585 67.0918 25.8551C67.0115 25.9953 67.0115 26.2358 67.152 26.346C70.0339 28.6299 71.8313 32.0659 72.012 35.7423C72.0321 36.0629 72.4739 36.3234 72.7149 36.0329L72.725 36.0629Z" fill="#F2CE97"/>
<path d="M66.65 33.4082C66.5797 32.9975 66.5094 32.5868 66.3989 32.1861C66.1379 31.2445 64.7622 31.545 64.7923 32.4165C64.7321 32.5668 64.722 32.7371 64.7923 32.9474C64.8927 33.2279 64.9831 33.5084 65.0634 33.7889C65.3345 35.562 65.1839 37.3852 64.9429 39.1683C64.6819 41.1117 64.471 43.1753 63.6777 44.9884C62.1113 48.5747 58.0245 50.0172 54.7309 51.5599C53.3553 52.211 51.9796 52.8522 50.6039 53.5033C49.5496 53.8138 48.5354 54.2346 47.6317 54.9057C46.7882 55.5268 47.4911 56.769 48.4551 56.3182C49.3588 55.8975 50.2625 55.4667 51.1663 55.046C52.3411 54.6954 53.5762 54.505 54.7811 54.2646C56.9099 53.8339 58.9181 53.1026 60.7055 51.8504C64.4007 49.2559 66.7203 45.2088 67.2826 40.7511C67.5938 38.2968 67.3529 35.7924 66.66 33.4283L66.65 33.4082Z" fill="#FDFCF1"/>
<path d="M42.5609 58.3217C42.4705 54.1143 42.591 49.3861 45.6235 46.471C47.3506 44.8081 49.7203 44.0568 51.8692 42.9949C54.1988 41.8429 56.3275 40.2902 58.1249 38.417C59.7416 36.734 61.1674 34.5202 60.7959 32.2161C60.6152 31.0641 59.9926 30.0424 59.5508 28.9605C58.1249 25.5445 58.4362 21.4574 60.3641 18.3019C60.1332 21.9182 63.6276 24.8433 64.9831 28.1991C66.64 32.2963 65.9471 36.9143 65.2141 41.2719C64.943 42.8547 64.6719 44.4775 63.8685 45.88C62.8845 47.603 61.2176 48.8151 59.5508 49.887C56.4882 51.8304 53.2248 53.4532 49.8308 54.7154C47.2 55.6971 44.3783 56.188 42.5709 58.3317L42.5609 58.3217Z" fill="#D47601"/>
<path d="M60.354 18.6926C60.3139 18.6325 60.2838 18.5624 60.2335 18.5123C58.4161 21.6378 58.145 25.6247 59.5407 28.9606C59.9926 30.0324 60.6051 31.0642 60.7858 32.2162C61.1573 34.5203 59.7315 36.7341 58.1148 38.417C56.3174 40.2903 54.1887 41.843 51.8591 42.995C49.7102 44.0569 47.3405 44.8082 45.6134 46.4711C42.9826 49.0055 42.5407 52.9023 42.5307 56.6388C43.3842 54.7455 45.0912 53.1127 46.9388 52.0809C49.9613 50.3979 53.4757 49.7168 56.458 47.9537C61.8703 44.7681 64.8626 37.9462 63.5271 31.8256C62.9849 29.3212 61.7799 27.0372 61.0971 24.5729C60.9063 23.8817 60.9164 22.3791 60.8159 21.0067C60.5247 20.2554 60.344 19.494 60.344 18.6926H60.354Z" fill="#9E513E"/>
<path d="M91.5826 65.6746C91.4119 64.3122 91.0504 63.0299 90.6287 61.7477C89.8655 59.4237 88.3894 57.6806 86.2607 56.5086C85.9996 56.3683 85.7285 56.2481 85.4473 56.158C87.8171 59.5739 89.4237 63.621 89.1827 67.8183C88.9417 72.0457 86.7527 76.3632 82.8065 78.2365C80.9388 79.118 78.7397 79.4285 76.7014 79.0379C74.5023 78.6171 72.9258 77.395 71.4497 75.7922C70.0038 74.2295 68.5679 72.8371 66.3588 72.5265C63.9589 72.1859 61.539 72.827 59.129 72.807C54.9017 72.7769 50.2927 71.1541 48.0535 67.5478C47.7824 66.2956 47.3907 65.0835 46.8485 63.9215C46.8385 63.8914 46.8184 63.8814 46.8083 63.8614C46.728 63.5008 46.6477 63.1401 46.5774 62.7795C47.2602 63.8614 48.2041 64.783 49.3287 65.4141C51.347 66.5461 53.8473 66.6763 55.9861 65.8248C56.4179 65.6545 56.3576 65.0635 55.8757 65.0234C53.8674 64.8631 51.7487 64.6428 49.9212 63.7312C47.8225 62.6893 46.6879 60.796 46.3766 58.5121C46.3264 58.1815 45.985 58.1514 45.764 58.3117C45.5231 58.1615 45.1214 58.2716 45.1314 58.6423C45.1515 59.3736 45.1616 60.0948 45.1716 60.8261C44.8905 63.2303 44.8302 65.6445 45.011 68.0587C43.314 70.2325 40.0003 71.1842 37.4398 71.5548C35.1203 71.8854 32.7304 72.0357 30.5113 72.8571C28.4126 73.6284 26.6454 75.1511 24.4765 75.7321C21.7553 76.4634 18.9336 75.4817 16.4133 74.4899C18.7228 73.2778 20.6105 71.2643 21.3938 68.7599C21.5444 68.2891 20.8716 68.0787 20.6507 68.4594C20.5603 68.4594 20.47 68.4995 20.3896 68.5796C18.7328 70.3828 17.0258 72.256 14.8067 73.378C12.4068 74.5901 9.47472 74.6903 6.8439 75.0609C6.80373 75.0609 6.76357 75.0609 6.73344 75.0709C6.24142 75.1411 6.42216 75.8223 6.8439 75.8723C9.87637 76.2129 13.0394 76.0426 15.8409 74.7604C15.8409 74.7905 15.8309 74.8205 15.8309 74.8506C15.8008 76.5836 14.636 78.0261 13.1298 78.7874C11.4027 79.669 9.3241 79.4586 7.55683 78.7874C4.4139 77.5954 1.87344 75.0409 0.357204 72.0657C0.136295 72.7469 0.276873 73.4681 0.40741 74.0892C0.688567 75.4516 0.738774 76.8641 1.22076 78.1964C1.62241 79.3184 1.91361 80.4804 2.37551 81.5823C2.91774 82.8645 3.87167 83.8563 4.93604 84.6577C5.96026 85.439 7.3058 85.6594 8.571 85.9199C9.86633 86.1903 11.2018 85.8898 12.4369 85.5693C14.3247 85.0784 16.2124 84.6376 18.0902 84.1368C19.0642 83.8763 20.1386 83.6359 20.8917 83.0449C22.1167 82.0732 23.3619 80.9913 23.8639 79.3985C24.0748 78.7373 24.5066 78.4669 25.099 78.3266C25.9124 78.1463 26.6956 77.7857 27.4888 77.6454C29.0151 77.395 30.441 76.6637 32.0275 76.7138C32.7907 76.1929 33.7245 76.273 34.568 76.0126C35.4516 75.7321 36.3453 75.5217 37.2189 75.2212C39.7895 74.3196 42.3199 73.3479 44.5691 71.7351C45.3222 71.1942 45.9348 70.6132 46.4971 69.7917C46.7079 69.9821 47.0393 70.1423 47.0895 70.3627C47.1899 70.8636 47.5614 71.2042 47.8928 71.3244C48.3647 71.4847 48.5857 71.8453 48.907 72.1258C49.8408 72.9272 50.7847 73.7086 51.9093 74.2195C52.6223 74.54 53.3452 74.8305 54.0481 75.1711C55.6648 75.9525 57.3517 76.5535 59.0889 77.0344C60.4143 77.405 61.6996 77.9059 62.8443 78.7674C63.6778 79.3985 64.6718 79.8292 65.6358 80.27C66.4291 80.6306 67.2926 80.821 68.0859 81.1916C68.7988 81.5222 69.4114 82.0631 70.2448 82.0932C70.777 82.8545 71.7008 82.8946 72.4438 83.2452C73.5986 83.7761 74.8337 84.0566 76.0888 84.1267C77.4243 84.1969 78.7699 84.1468 80.1054 84.1468C80.8283 84.1468 82.445 83.5557 83.1278 83.1651C83.9211 82.7143 84.5938 82.1232 85.3268 81.6124C86.823 80.5705 87.8472 79.1681 88.8614 77.7256C89.6948 76.5435 90.2873 75.2913 90.709 73.8789C91.1809 72.2661 91.5625 70.6933 91.5123 69.0204C91.5123 68.7199 91.4119 68.3793 91.5324 68.1389C91.934 67.3074 91.683 66.5461 91.5826 65.6946V65.6746Z" fill="#E2AE6D"/>
<path d="M43.1634 19.6643C44.79 17.6508 46.5975 15.7976 48.3949 13.9444C48.7162 13.6238 48.3045 13.0428 47.9029 13.3032C46.3465 14.295 44.5792 14.9561 43.1533 16.1382C41.7174 17.3203 40.4622 19.1535 39.3477 20.6461C36.5762 24.3525 34.6584 28.7001 33.855 33.2581C33.5538 34.961 33.4132 36.684 33.4132 38.4171C33.4132 39.9698 33.4634 41.5525 33.1923 43.0952C32.9112 44.678 32.2585 46.1505 30.8326 47.012C29.4971 47.8235 28.0512 48.4045 27.8001 50.1375C27.7901 50.2377 27.7901 50.3378 27.7801 50.448C27.2981 49.9872 26.7358 49.6166 26.0831 49.3561C24.7576 48.8252 23.3317 48.4846 21.9661 48.0739C21.5344 47.9437 21.3536 48.6148 21.7854 48.7351C23.0405 49.1157 24.3258 49.4563 25.571 49.8971C26.3743 50.1776 27.047 50.6183 27.5792 51.2294C27.4286 51.1593 27.288 51.0892 27.1374 51.019C27.1374 50.8788 27.0571 50.7385 26.8964 50.6885C25.2095 50.1776 23.5125 49.6767 21.8255 49.1658C20.2491 48.685 18.6726 48.1641 17.2668 47.3026C15.4292 46.1806 14.0335 44.4776 13.2201 42.5242C13.19 42.4441 13.1599 42.3539 13.1298 42.2738C13.0394 42.0534 12.9591 41.823 12.8888 41.5926C12.7683 41.1919 12.6679 40.7812 12.5875 40.3705C12.5172 39.9898 11.8746 40.0699 11.9047 40.4606C12.0453 42.1235 12.4369 43.7263 13.0996 45.259C13.421 45.9903 13.7925 46.7516 14.2544 47.4528C13.4009 47.0621 12.5976 46.6013 11.8846 46.0303C12.0353 46.5412 12.206 47.0421 12.4168 47.5229C13.1699 49.266 13.0595 51.1092 13.441 52.8923C13.5314 53.3231 13.3507 53.5835 12.9992 53.7338C13.5415 53.884 14.1138 53.8039 14.7163 53.6136C19.3152 52.1911 24.1652 52.131 28.7641 53.5635C29.0151 53.9141 29.2963 54.2346 29.5975 54.5252C31.0937 55.9276 33.0517 56.719 34.4877 58.2016C34.7588 58.482 35.3311 58.2016 35.1705 57.8009C34.086 55.0861 33.353 51.9006 34.4776 49.0756C35.3914 46.7816 37.6306 44.9084 40.1911 45.0787C40.2614 45.0787 40.3217 45.0586 40.3819 45.0286C41.9684 45.1688 43.5449 45.4092 45.1013 45.7699C45.4226 45.84 45.7038 45.4393 45.4427 45.1889C44.3482 44.2072 42.9424 43.8365 41.617 43.2956C40.8739 42.985 40.171 42.5743 39.4983 42.1335C39.438 42.0935 39.3778 42.0434 39.3075 42.0033C37.9519 38.8278 37.3996 35.3417 37.721 31.8857C38.1527 27.2876 40.2715 23.2105 43.1433 19.6643H43.1634Z" fill="#E2AE6D"/>
<path d="M53.1846 54.8858C58.3759 56.4685 69.6122 54.6253 71.3493 48.4946C71.6907 47.2925 71.761 46.0404 72.0422 44.8282C72.3233 43.6362 72.735 42.4641 73.2773 41.3622C73.8195 40.2503 74.5425 39.2685 75.1851 38.2267C74.6429 37.9863 73.9802 37.9262 73.3877 37.786C73.2271 37.7459 73.0162 37.9362 72.8154 38.0264C72.6447 36.9545 72.9258 35.9828 73.0262 34.9911C73.0463 34.8308 73.0463 34.6805 73.0564 34.5203C72.1526 34.8809 71.3795 35.532 70.8874 36.4136C70.8171 36.5438 70.8272 36.664 70.8673 36.7642C69.4114 38.6775 69.1804 41.4524 68.9595 43.8065C68.7587 45.8901 68.3871 47.9637 66.9512 49.5665C65.8567 50.7987 64.461 51.7603 63.0954 52.702C59.8721 53.4333 56.5986 53.9041 53.3051 54.0844C52.8532 54.1044 52.7428 54.7455 53.1946 54.8858H53.1846Z" fill="#E2AE6D"/>
<path d="M82.2943 59.4136C82.0634 58.4619 81.6918 57.5403 81.1697 56.6888C81.1094 56.5887 81.0392 56.5386 80.9488 56.5185C80.7781 55.9976 79.9949 56.208 80.1555 56.7089C80.3865 57.4301 80.5672 58.1614 80.7178 58.8927C80.6877 58.9628 80.6676 59.0329 80.6877 59.1231C81.0894 61.8679 81.3705 64.7429 79.543 67.0569C78.087 68.9101 75.898 70.0521 73.7893 71.0038C73.458 71.1541 73.5684 71.6649 73.8897 71.7551C77.2435 72.6366 80.276 69.6815 82.1337 67.2573C83.9009 64.9432 83.9411 61.7777 82.2943 59.4136ZM81.4107 66.8566C81.6918 66.3657 81.9429 65.8548 82.1437 65.3239C82.1738 65.2638 82.214 65.2037 82.2441 65.1436C82.4048 64.813 82.5152 64.4624 82.5855 64.1118C82.4249 65.0935 82.0332 66.0351 81.4107 66.8566Z" fill="#E2AE6D"/>
<path d="M62.6837 66.9968C62.272 65.0634 59.7416 64.0116 58.0747 65.0634C57.6932 65.3039 57.9442 65.8648 58.3057 65.8348C58.4965 66.3156 59.1692 66.2054 59.5809 66.2655C60.4746 66.3858 61.3281 66.7965 62.0009 67.4075C62.3122 67.688 62.7741 67.4075 62.6837 67.0068V66.9968Z" fill="#E2AE6D"/>
<path d="M66.2986 11.1795C65.3647 10.0476 63.7782 9.61681 62.4728 9.07587C61.7398 8.77534 61.0068 8.45478 60.2135 8.35461C59.4504 8.25443 58.6872 8.41471 57.9241 8.45478C57.9542 8.2344 57.7936 8.02403 57.5124 8.08414C55.6949 8.50487 53.8072 9.48658 51.9194 8.90557C51.9997 8.58501 51.5981 8.25443 51.3571 8.55496C50.5839 9.52665 50.0115 10.6286 49.6902 11.8307C49.5898 12.2013 50.132 12.4417 50.3228 12.1011C51.0357 10.8189 52.6323 10.6486 53.9377 10.3982C55.1627 10.1678 56.3074 9.70697 57.3317 9.01576C57.3819 9.10592 57.4722 9.16602 57.6128 9.16602C58.4061 9.16602 59.1893 8.96568 59.9826 9.02578C60.7357 9.08589 61.4486 9.39643 62.1414 9.68693C63.3765 10.1978 64.9229 10.6085 65.8065 11.6704C66.0877 12.011 66.5797 11.5201 66.2986 11.1795Z" fill="#E2AE6D"/>
<path d="M61.9004 7.59324C60.9264 7.47303 59.9424 7.50309 58.9784 7.6834C58.7977 7.71345 58.6872 7.94386 58.7374 8.10414C58.7876 8.29447 58.9784 8.37461 59.1592 8.34455C60.0629 8.18427 60.9867 8.16424 61.8904 8.28445C62.0711 8.30449 62.2318 8.10413 62.2318 7.94386C62.2318 7.73349 62.0711 7.6233 61.8904 7.60326L61.9004 7.59324Z" fill="#E2AE6D"/>
<path d="M66.1379 9.49653C65.194 8.6751 64.0392 8.1041 62.8142 7.8737C62.6334 7.84365 62.4427 7.92379 62.3924 8.11412C62.3422 8.28442 62.4527 8.5048 62.6334 8.53485C63.748 8.74522 64.8024 9.23608 65.6559 9.98739C65.7965 10.1076 66.0073 10.1276 66.1479 9.98739C66.2684 9.86718 66.2885 9.62676 66.1479 9.49653H66.1379Z" fill="#E2AE6D"/>
</g>
<defs>
<clipPath id="clip0_72_55">
<rect width="92" height="86" fill="white"/>
</clipPath>
</defs>
</svg>
