<svg width="89" height="86" viewBox="0 0 89 86" fill="none" xmlns="http://www.w3.org/2000/svg">
<g clip-path="url(#clip0_72_51)">
<path d="M49.828 85.9151C49.5283 85.9151 49.2672 85.8276 49.0254 85.7401C48.7837 85.6525 48.5806 85.5845 48.3679 85.6039C47.9134 85.6525 47.517 85.5261 47.1302 85.4095C47.0431 85.3803 46.9464 85.3511 46.8594 85.3317C45.7087 85.0205 44.7998 84.3496 44.0649 83.7273C43.6007 83.3383 43.1463 82.9105 42.7208 82.5118C42.4017 82.2104 42.0826 81.909 41.7538 81.6173C41.0286 80.9755 40.5064 80.1101 39.9939 79.2739L39.7619 78.9044C39.3364 78.214 39.0753 77.4653 38.8239 76.7457C38.6982 76.3762 38.5628 76.0068 38.4178 75.647C38.2824 75.3261 38.1857 74.9955 38.089 74.6746C38.002 74.3829 37.9149 74.0912 37.7989 73.8092C37.6345 73.4106 37.4798 73.1675 37.3348 73.0994C36.8803 72.8757 36.3291 72.798 35.9036 72.7591C34.3178 72.6035 32.7997 72.2729 31.2622 71.7381C30.4016 71.4367 29.3669 71.495 28.1099 71.9131C27.9938 71.952 27.8875 72.0395 27.8681 72.0784C27.6844 72.7202 27.2009 73.1188 26.7658 73.4494C26.5917 73.5856 26.4563 73.7703 26.3306 73.9648C26.1566 74.2176 25.9535 74.5093 25.6247 74.7038C25.3637 74.8496 25.1509 75.0927 24.9189 75.3456C24.7738 75.5011 24.6191 75.6664 24.4547 75.8123C23.5361 76.6291 21.3411 77.9126 20.2 78.0098C19.8132 78.0487 19.4168 78.1265 19.03 78.1946C18.2081 78.3599 17.3668 78.5252 16.4965 78.321C15.7906 78.1557 15.0461 78.0876 14.3305 78.0293C13.6536 77.9709 12.9574 77.9126 12.2805 77.7667C11.0525 77.5042 9.94047 77.2514 8.86714 76.8235C7.9195 76.4443 6.71079 75.8998 5.75349 75.1025C3.24903 73.0216 1.65353 70.7171 0.860615 68.0529C0.270763 66.0595 0.251424 64.0176 0.299772 61.9173V61.8395L0.338451 61.7811C0.560854 61.4408 0.560854 61.0421 0.560854 60.6143C0.560854 60.3809 0.560854 60.1378 0.599533 59.9045C0.647882 59.5642 0.763918 59.2433 0.870285 58.9321C0.976652 58.621 1.07335 58.339 1.1217 58.0376C1.22806 57.3277 1.49882 56.6568 1.72122 56.122C1.89527 55.7039 2.08867 55.2858 2.28206 54.8774C2.43678 54.5468 2.59149 54.2259 2.73654 53.8856C3.15234 52.9132 3.3554 52.1159 3.39408 51.3088C3.47144 49.6169 3.09432 47.9347 2.25305 46.1748C1.30542 44.1814 0.628542 42.1006 0.0967083 40.3212C0.0290203 40.1073 0.0290203 39.8836 0.0290203 39.6794V39.5725C0.0290203 39.3294 0.0290203 39.0765 0.0290203 38.8335C0.0290203 38.4348 0.0290203 38.0264 0.0193506 37.6277C-0.0386676 36.2762 0.280433 34.9926 1.06368 33.4466C1.80825 31.9783 2.85258 30.7434 4.44808 29.4308C5.84052 28.2834 7.39734 27.4958 8.86714 26.8054C9.15723 26.6693 9.44732 26.5331 9.72774 26.397C10.9751 25.7941 12.2709 25.1718 13.644 24.8218L14.0211 24.7245C14.6786 24.5495 15.3458 24.3648 16.0904 24.4328C16.6416 24.4814 17.2024 24.4717 17.7826 24.462C17.9277 24.462 18.0824 24.462 18.2371 24.462C18.063 23.8397 17.8019 23.2465 17.5505 22.6729C17.2024 21.8658 16.8446 21.0393 16.6899 20.135C16.6899 20.1156 16.6416 20.0572 16.6126 20.028C16.5449 19.9405 16.4579 19.8336 16.4385 19.6877L16.3708 19.3085C16.2741 18.7348 16.1678 18.1319 16.1581 17.5388C16.1388 16.6929 16.1388 15.8372 16.1484 14.9912C16.1484 14.2133 16.1484 13.4257 16.1484 12.6478C16.1194 11.306 16.5642 10.0905 16.9994 8.9237L17.0187 8.85564C17.2991 8.08747 17.7149 7.36793 18.1114 6.66783L18.1984 6.51225C18.5078 5.97745 18.8173 5.57879 19.146 5.28708C19.3008 5.15095 19.4361 4.98565 19.5715 4.81062C19.7165 4.62587 19.8713 4.4314 20.0647 4.25638C20.8479 3.566 21.6505 2.85618 22.6078 2.42834C24.3773 1.63101 25.9922 0.998974 27.549 0.512795C28.2356 0.298876 28.9608 0.240534 29.6667 0.191917L30.1018 0.153022C30.5563 0.114128 31.0204 0.123851 31.4652 0.133575H31.9294C34.8496 0.172469 37.5765 1.07676 40.2647 2.9048C41.9569 4.06191 43.388 5.69547 44.6354 7.893C45.1962 8.88481 45.6991 9.86689 46.1149 10.7906C46.8691 12.4728 47.6523 14.155 48.4356 15.8274C49.2865 17.6555 50.1665 19.5419 51.6846 21.1365C52.2745 20.6503 52.6129 20.0378 52.932 19.4349C52.9997 19.3085 53.077 19.1724 53.1544 19.046C53.4348 18.5598 53.6862 18.0444 53.928 17.5388C54.2471 16.897 54.5662 16.2261 54.9626 15.5941C56.2004 13.6202 57.8152 12.0547 59.8845 10.7906C60.1069 10.6545 60.3293 10.5184 60.5517 10.3725C61.2383 9.93495 61.9538 9.47795 62.7661 9.19596C64.1876 8.71951 65.3092 8.40835 66.4212 8.18471C67.2045 8.02913 67.9877 8.01941 68.742 7.99996C69.2351 7.99996 69.738 7.98051 70.2311 7.93189C71.4302 7.81521 72.5325 8.14581 73.5962 8.47642L73.9636 8.5931C75.182 8.96259 76.2167 9.67242 77.2126 10.3628L78.0152 10.917C79.6301 12.0255 81.3029 13.1632 82.7437 14.5828C83.5656 15.3899 84.1458 16.3622 84.7067 17.3054C86.1861 19.785 87.1434 22.4978 88.0621 25.1329L88.3038 25.8136C88.3908 26.0469 88.3812 26.29 88.3715 26.5137C88.3715 26.8637 88.3715 27.0679 88.5649 27.2429L88.6519 27.3207V27.4471C88.6326 27.9722 88.7196 28.4778 88.8066 29.0224C88.9323 29.7516 89.058 30.5101 88.9033 31.2782L88.8163 31.7061C88.5262 33.2132 88.2168 34.769 87.6559 36.2567C86.7663 38.6293 85.4996 40.8074 84.3779 42.6257C84.2619 42.8201 84.0878 42.9757 83.9234 43.1118C83.8654 43.1605 83.8074 43.2188 83.7494 43.2674C83.4206 43.5883 83.0918 43.9189 82.7631 44.2495C81.6317 45.3969 80.4617 46.5832 79.0306 47.468C78.3924 47.857 78.1796 48.2556 78.315 48.7904C78.3923 49.0919 78.2473 49.4322 78.1409 49.6947C78.0249 49.967 78.0442 50.1031 78.199 50.3365C78.5084 50.7935 78.6534 51.3574 78.6438 51.9992C78.6438 52.2617 78.7018 52.5243 78.7791 52.7965C78.8758 53.1758 78.9725 53.5744 78.9048 54.012C78.6051 55.8886 78.6244 57.8236 78.6534 59.6906C78.6728 61.0324 78.6824 62.4229 78.5857 63.7842C78.46 65.4567 78.0636 67.0999 77.406 68.6752C76.5938 70.6199 75.4818 72.409 74.4181 74.1301L73.8476 75.0636C73.0934 76.2887 72.1457 77.7084 70.821 78.9044C69.5446 80.0518 67.9781 81.3644 66.0635 82.3465C65.8507 82.4535 65.638 82.5702 65.4253 82.6869C64.468 83.1925 63.472 83.7176 62.3793 84.0093C62.0602 84.0968 61.7508 84.2037 61.4413 84.301C60.7258 84.5441 59.9812 84.7969 59.1593 84.7969C58.8789 84.7969 58.5888 84.9136 58.289 85.04C58.1536 85.0983 58.0086 85.1566 57.8732 85.1955C56.7225 85.5845 55.4945 85.954 54.1697 85.9054C52.4775 85.847 51.1141 85.847 49.886 85.9248C49.857 85.9248 49.828 85.9248 49.799 85.9248L49.828 85.9151ZM48.4453 85.0886C48.716 85.0886 48.9577 85.1761 49.1898 85.2539C49.4219 85.3317 49.6346 85.4095 49.8764 85.3997C51.1238 85.3317 52.4969 85.322 54.2084 85.3803C55.4461 85.4289 56.5775 85.0789 57.7282 84.6996C57.8539 84.6607 57.9893 84.6024 58.115 84.5538C58.4437 84.4177 58.7918 84.2815 59.1593 84.2815C59.9135 84.2815 60.5904 84.0579 61.2963 83.8148C61.6154 83.7078 61.9345 83.6009 62.2633 83.5134C63.2979 83.2411 64.2262 82.7452 65.2029 82.2299C65.4156 82.1132 65.638 82.0062 65.8507 81.8895C67.717 80.9366 69.2448 79.6531 70.5019 78.5252C71.7783 77.3778 72.6969 75.997 73.4318 74.801L74.0023 73.8676C75.066 72.1562 76.1587 70.3865 76.9516 68.4807C77.5898 66.9541 77.9766 65.3594 78.0926 63.7453C78.1893 62.4035 78.1796 61.0227 78.1603 59.6906C78.1409 57.8042 78.1216 55.84 78.4214 53.9245C78.4697 53.5939 78.3924 53.2633 78.3053 52.9132C78.228 52.6118 78.1506 52.3006 78.1603 51.97C78.17 51.4255 78.0539 50.9782 77.8025 50.6087C77.5511 50.2295 77.5221 49.9086 77.6961 49.5002C77.7832 49.296 77.8895 49.0432 77.8509 48.9071C77.5801 47.7792 78.4987 47.2055 78.7985 47.0207C80.1812 46.1651 81.3223 45.0079 82.4343 43.88C82.7631 43.5494 83.0918 43.2188 83.4206 42.8882C83.4786 42.8299 83.5463 42.7715 83.614 42.7132C83.759 42.5868 83.8847 42.4701 83.9718 42.334C85.0838 40.5351 86.3312 38.3862 87.2111 36.0525C87.7526 34.6134 88.0524 33.0674 88.3425 31.5797L88.4295 31.1518C88.5649 30.4712 88.4488 29.7905 88.3231 29.0807C88.2361 28.5751 88.1491 28.05 88.1491 27.5152C87.8493 27.1846 87.859 26.7957 87.8687 26.4748C87.8687 26.29 87.8687 26.1053 87.83 25.9594L87.5882 25.2788C86.6696 22.6729 85.7317 19.9794 84.2909 17.568C83.73 16.6345 83.1692 15.6913 82.3956 14.9232C80.9838 13.5327 79.34 12.4047 77.7348 11.3157L76.9226 10.7615C75.9072 10.0614 74.9596 9.40988 73.8089 9.05983L73.4415 8.94315C72.3778 8.61255 71.3818 8.31111 70.2795 8.41807C69.767 8.46669 69.2448 8.47642 68.7516 8.48614C68.0168 8.49586 67.2625 8.51531 66.518 8.66116C65.4253 8.87508 64.3133 9.18624 62.9208 9.65297C62.1569 9.90578 61.509 10.3239 60.8128 10.7712C60.5904 10.917 60.368 11.0532 60.1359 11.199C58.1343 12.4145 56.5775 13.9313 55.3784 15.8274C55.0013 16.44 54.6726 17.0915 54.3631 17.7235C54.1117 18.2292 53.8603 18.7542 53.5702 19.2599C53.5025 19.3863 53.4252 19.5127 53.3575 19.6391C52.9707 20.3392 52.5742 21.0685 51.7813 21.6422L51.6073 21.7686L51.4525 21.613C49.77 19.9211 48.8417 17.9277 47.9424 15.9928C47.1592 14.3203 46.3759 12.6381 45.6217 10.9462C45.2059 10.0322 44.7224 9.06955 44.1616 8.08747C42.9335 5.92883 41.5991 4.40223 39.9456 3.27429C37.3444 1.49488 34.7046 0.619754 31.8907 0.600307H31.4169C30.9818 0.58086 30.537 0.571136 30.1115 0.600307L29.6667 0.639202C28.9898 0.68782 28.2936 0.746161 27.6651 0.940633C26.1276 1.42681 24.5321 2.0394 22.7818 2.83673C21.8922 3.2354 21.1187 3.92578 20.3644 4.58698C20.2 4.73283 20.0743 4.89813 19.9293 5.07316C19.7842 5.25791 19.6295 5.44266 19.4458 5.61768C19.1654 5.87049 18.885 6.22054 18.6142 6.70672L18.5272 6.8623C18.1404 7.54295 17.7343 8.24305 17.4732 8.97232L17.4538 9.04038C17.038 10.1683 16.6126 11.3352 16.6319 12.5798C16.6513 13.3674 16.6416 14.1453 16.6319 14.9329C16.6319 15.7788 16.6319 16.6248 16.6416 17.4707C16.6513 18.0347 16.7576 18.6084 16.8446 19.1626L16.9123 19.5516C16.9123 19.5516 16.9607 19.6294 16.9897 19.6585C17.0574 19.7461 17.1444 19.853 17.1637 19.9989C17.2991 20.8351 17.6376 21.6033 17.9857 22.42C18.2854 23.1104 18.5949 23.83 18.7786 24.6079L18.8559 24.919H18.5368C18.2758 24.919 18.0244 24.919 17.7633 24.9287C17.1831 24.9385 16.5932 24.9579 16.0131 24.8996C15.3652 24.8412 14.7366 25.0162 14.1275 25.1815L13.7503 25.2885C12.4256 25.6288 11.1589 26.2414 9.9308 26.8346C9.64071 26.9707 9.35062 27.1165 9.06053 27.2527C7.61974 27.9236 6.1016 28.7015 4.74784 29.81C3.21035 31.074 2.2047 32.2603 1.49882 33.6605C0.763918 35.119 0.454488 36.3345 0.512506 37.5888C0.531845 37.9972 0.531845 38.4153 0.522176 38.8237C0.522176 39.0668 0.522176 39.3099 0.522176 39.553V39.6697C0.522176 39.8447 0.522175 40.0197 0.560854 40.1559C1.08302 41.9061 1.75023 43.9675 2.68819 45.9317C3.56813 47.7694 3.95492 49.5294 3.87757 51.3088C3.83889 52.184 3.62615 53.0299 3.18135 54.0606C3.0363 54.4009 2.88158 54.7315 2.7172 55.0621C2.52381 55.4705 2.33041 55.8692 2.16603 56.2873C1.90494 56.9388 1.69221 57.4833 1.59551 58.0862C1.54716 58.4265 1.43113 58.7571 1.32476 59.0683C1.21839 59.3697 1.1217 59.6614 1.07335 59.9628C1.04434 60.167 1.04434 60.3712 1.04434 60.5949C1.04434 61.0324 1.04434 61.5186 0.783258 61.9756C0.744579 64.0078 0.763918 65.9817 1.32476 67.8876C2.08867 70.4546 3.63582 72.6716 6.05325 74.6843C6.9622 75.4428 8.12257 75.9581 9.03152 76.3276C10.0662 76.7457 11.1492 76.9888 12.3579 77.2416C13.0058 77.3778 13.6826 77.4361 14.3402 77.4945C15.0751 77.5528 15.8293 77.6209 16.5739 77.7959C17.3281 77.9709 18.092 77.8251 18.8946 77.6695C19.2911 77.5917 19.7069 77.5139 20.113 77.475C21.138 77.3778 23.2267 76.1526 24.0776 75.3942C24.2226 75.2678 24.3677 75.1122 24.5031 74.9663C24.7545 74.7038 25.0059 74.4218 25.325 74.2371C25.5571 74.1009 25.7118 73.8773 25.8665 73.6439C26.0212 73.4203 26.1759 73.1966 26.4177 73.0119C26.8044 72.7202 27.1912 72.3896 27.3363 71.9034C27.4136 71.6311 27.7327 71.4658 27.9068 71.4075C29.2702 70.9602 30.4112 70.9019 31.3782 71.2422C32.8867 71.7575 34.3662 72.0881 35.9036 72.2437C36.3678 72.2923 36.977 72.3799 37.4991 72.6327C37.8569 72.8077 38.0697 73.2453 38.2147 73.6147C38.3307 73.9162 38.4274 74.2273 38.5241 74.5288C38.6208 74.8496 38.7079 75.1608 38.8336 75.4525C38.9883 75.822 39.1237 76.2012 39.2494 76.5804C39.5008 77.3097 39.7425 78.0001 40.139 78.6418L40.371 79.0211C40.8545 79.8281 41.3574 80.6546 42.0246 81.238C42.363 81.5297 42.6821 81.8409 43.0109 82.1423C43.4363 82.541 43.8812 82.9591 44.3356 83.3383C45.0318 83.9218 45.8828 84.5441 46.9368 84.8358C47.0335 84.8649 47.1205 84.8941 47.2172 84.9136C47.575 85.0205 47.9134 85.1178 48.2615 85.0886C48.3099 85.0886 48.3486 85.0886 48.3872 85.0886H48.4453Z" fill="#FEF3CD"/>
<path d="M51.6556 21.4477C52.5355 20.8059 52.9127 19.9405 53.3671 19.1432C54.015 18.025 54.4791 16.8095 55.1754 15.701C56.4228 13.7174 58.0376 12.1811 60.0102 10.9851C60.9288 10.4308 61.7991 9.76963 62.8434 9.41958C64.0328 9.02091 65.2319 8.67086 66.4696 8.41805C67.746 8.16523 69.003 8.30136 70.2504 8.17496C71.5365 8.04855 72.6969 8.46667 73.8862 8.82644C75.153 9.20566 76.207 9.97382 77.2803 10.7031C79.1079 11.9574 80.9741 13.1729 82.5696 14.7481C83.3722 15.5357 83.9427 16.4886 84.5036 17.4415C86.0798 20.0864 87.0467 22.9937 88.062 25.8816C88.2361 26.3775 87.917 26.9901 88.4005 27.4179C88.3521 28.6917 88.9226 29.9364 88.6712 31.2101C88.3425 32.8729 88.0427 34.5453 87.4432 36.1497C86.6019 38.3862 85.4319 40.4573 84.1845 42.4798C84.0394 42.7132 83.7977 42.8785 83.6043 43.0729C82.1055 44.5315 80.7421 46.1261 78.9338 47.2443C78.4117 47.5652 77.8992 48.0417 78.1022 48.8487C78.1603 49.0724 78.0345 49.3641 77.9379 49.6072C77.8025 49.9281 77.8121 50.1614 78.0249 50.4823C78.315 50.9199 78.4407 51.4352 78.4213 51.9992C78.402 52.6604 78.7985 53.2827 78.6824 53.9828C78.1699 57.2402 78.5954 60.5268 78.3537 63.7842C78.2279 65.408 77.8508 67.0319 77.1933 68.5974C76.2457 70.8629 74.9209 72.8757 73.6445 74.9469C72.7936 76.3373 71.8749 77.6403 70.6662 78.7293C69.2158 80.0226 67.717 81.2283 65.9571 82.1326C64.7677 82.7452 63.617 83.4258 62.3213 83.7662C61.2769 84.0481 60.2906 84.5538 59.1593 84.544C58.7145 84.544 58.26 84.8066 57.8055 84.9524C56.6355 85.3414 55.4655 85.6914 54.1987 85.6525C52.7676 85.6039 51.3268 85.5845 49.8957 85.672C49.3155 85.7011 48.8804 85.3122 48.3389 85.3705C47.8361 85.4192 47.3913 85.2344 46.9174 85.108C45.8731 84.826 45.0222 84.2232 44.2196 83.562C43.417 82.891 42.6918 82.1423 41.9085 81.4519C41.1059 80.7421 40.5548 79.7406 39.9746 78.7974C39.3461 77.7764 39.0946 76.6388 38.6402 75.5692C38.3888 74.976 38.263 74.3245 38.0213 73.7314C37.8956 73.4105 37.7022 73.0119 37.4314 72.8855C36.977 72.6618 36.4355 72.5743 35.923 72.5257C34.3468 72.3701 32.8383 72.0298 31.3395 71.5144C30.2759 71.1449 29.1155 71.3297 28.0325 71.6895C27.8778 71.7381 27.665 71.8742 27.6264 72.0201C27.462 72.5938 27.0365 72.9535 26.611 73.2647C26.1469 73.6147 26.0115 74.1981 25.4894 74.4996C25.0252 74.7718 24.6964 75.2677 24.2806 75.6275C23.4104 76.3957 21.2637 77.6695 20.171 77.7667C18.9623 77.8737 17.7633 78.3696 16.5546 78.0876C15.1621 77.757 13.7213 77.825 12.3386 77.5333C11.1975 77.2902 10.0468 77.0374 8.9735 76.5999C7.90016 76.172 6.80748 75.6469 5.92754 74.9177C3.70351 73.0702 1.96296 70.8435 1.11203 67.9945C0.522174 66.0109 0.522174 63.9786 0.560853 61.9367C0.957311 61.3241 0.754247 60.6143 0.860614 59.9628C0.957311 59.3308 1.27641 58.7279 1.38278 58.0959C1.48914 57.4347 1.72122 56.8415 1.96296 56.2387C2.27239 55.4802 2.65918 54.7607 2.97828 54.0022C3.34573 53.1563 3.60681 52.3006 3.65516 51.338C3.73252 49.4613 3.27804 47.7305 2.48512 46.0775C1.58584 44.2009 0.937971 42.2464 0.338449 40.2628C0.270761 40.0489 0.290101 39.8155 0.280431 39.5822C0.280431 38.9307 0.299771 38.2792 0.280431 37.6277C0.212743 36.1692 0.63821 34.8662 1.29575 33.573C2.09834 31.9783 3.23936 30.7726 4.61246 29.6446C5.95655 28.5362 7.45535 27.768 8.98317 27.0484C10.5303 26.3192 12.0581 25.5024 13.7213 25.0746C14.4756 24.8801 15.2395 24.6078 16.0711 24.6856C16.893 24.7634 17.7246 24.7051 18.5658 24.7051C18.1791 23.0715 17.2121 21.7005 16.9413 20.0766C16.9123 19.9211 16.7189 19.7849 16.6899 19.6293C16.5739 18.9293 16.4288 18.2194 16.4192 17.5096C16.3805 15.876 16.4288 14.2522 16.3998 12.6186C16.3708 11.306 16.8253 10.11 17.2604 8.92367C17.5602 8.11662 18.005 7.3679 18.4305 6.61918C18.6722 6.20107 18.9623 5.77323 19.3201 5.46208C19.6682 5.16065 19.8809 4.75225 20.2387 4.43138C21.0123 3.75072 21.7955 3.06035 22.7142 2.64224C24.3097 1.92269 25.9535 1.26149 27.6264 0.736411C28.4193 0.483598 29.2896 0.464151 30.1211 0.386362C30.7207 0.337744 31.3202 0.376639 31.9294 0.386362C34.9463 0.415533 37.6442 1.41706 40.1196 3.10897C41.9762 4.37303 43.3203 6.08439 44.413 8.00966C44.9448 8.94312 45.4476 9.90576 45.8828 10.8878C46.637 12.57 47.4203 14.2522 48.2035 15.9247C49.1028 17.8499 50.0311 19.8238 51.6653 21.4671L51.6556 21.4477Z" fill="#FEF3CD"/>
<path d="M22.6271 46.5735C22.3467 46.9332 22.0856 47.3319 22.0082 47.7792C21.7085 49.51 23.9809 50.4337 25.7214 50.5213C30.5853 50.7643 35.5168 49.6461 39.8005 47.3222C39.5201 52.2909 40.3227 57.3278 42.1309 61.9562C43.4847 65.4178 46.0858 69.0836 49.7796 69.0739C50.7659 69.0739 51.8006 68.753 52.4291 68.0043C53.2317 67.0514 53.2221 65.6706 53.135 64.4163C52.7482 59.01 51.6749 53.6523 49.944 48.5182C51.6072 53.0591 56.5194 56.1609 61.3156 55.7039C63.4816 55.4997 65.8894 54.2357 66.1311 52.0673C66.3245 50.3171 65.0288 48.771 63.675 47.6625C60.8515 45.358 57.38 43.8898 54.7499 41.3714C52.2744 38.9988 50.6693 35.7511 50.2728 32.3381C50.5532 34.769 42.8271 37.6569 41.1639 38.0556C37.4991 38.9405 34.2984 38.2987 30.7497 37.4139C31.9294 39.6017 35.101 41.5464 37.4894 42.159C32.3645 41.9937 26.0792 42.1103 22.6078 46.5832L22.6271 46.5735Z" fill="#D47601"/>
<path d="M43.4073 37.4624C40.3227 38.2986 37.0737 38.2597 33.8826 38.2111C37.0543 40.5351 41.1446 41.5658 45.0318 41.0212C39.3654 42.013 33.8923 44.0842 28.9801 47.079C34.1631 48.0222 39.7135 46.7484 43.9682 43.6369C43.0012 50.9782 44.3066 59.3891 50.1374 63.9106C50.5629 57.0263 50.4759 50.1031 49.8957 43.2285C51.994 47.9153 57.9989 50.7546 63.1142 50.5893C58.9852 48.0319 54.7886 44.4537 52.8836 39.9808C52.2648 38.532 51.8683 34.5064 49.915 34.205C48.4936 33.9814 45.0608 37.0151 43.417 37.4624H43.4073Z" fill="#9E513E"/>
<path d="M48.0488 29.1487C47.9618 28.7598 47.488 28.4875 47.1108 28.6139C46.695 28.75 46.4823 29.139 46.579 29.5571C46.5983 29.6446 46.6177 29.7224 46.6274 29.8099C46.6274 29.8196 46.6274 29.8585 46.637 29.8974C46.6564 30.0336 46.666 30.1794 46.6757 30.3155C46.6854 30.6072 46.6757 30.899 46.6467 31.1907C46.6467 31.2101 46.6467 31.2393 46.6467 31.2587C46.637 31.3462 46.6274 31.4046 46.608 31.4726C46.579 31.6185 46.55 31.7741 46.5017 31.9199C46.4823 32.0074 46.4533 32.0852 46.4243 32.163C43.0109 36.2372 38.6208 37.6568 32.906 35.4982C30.8271 34.7106 29.0768 33.4076 27.3846 31.9783C26.5144 31.2393 21.0026 26.9803 21.109 25.9788C21.1283 25.833 21.0897 25.6774 20.9736 25.5121C19.8519 23.9174 18.5852 22.4589 17.2024 21.1073C17.5989 22.2936 18.2468 23.4021 18.5465 24.6661C17.6956 24.6661 16.864 24.7245 16.0517 24.6467C15.2201 24.5689 14.4562 24.8412 13.702 25.0356C13.6053 25.0551 13.5183 25.0842 13.4312 25.1134C13.3442 25.1426 13.2572 25.162 13.1702 25.1912C13.4216 25.269 13.673 25.3565 13.9341 25.444C15.4909 26.5331 17.1347 27.5151 18.6336 28.6917C22.1533 31.4435 25.2573 34.6814 28.7287 37.4721C32.5579 40.5545 39.0463 41.1573 43.1173 38.1236C43.1753 38.1041 43.2333 38.0847 43.301 38.0555C44.9545 37.1609 46.4533 35.5663 47.2656 33.7285C47.4009 33.6702 47.517 33.5729 47.5847 33.4271C48.2035 32.0755 48.3872 30.5975 48.0681 29.1487H48.0488Z" fill="#F2CE97"/>
<path d="M88.4198 28.8375C88.1781 22.4394 84.8614 16.2163 79.6687 12.4922C83.498 16.8289 85.9057 22.5658 85.6543 28.3611C85.4126 34.1563 82.3086 39.8933 77.2707 42.7228C71.933 45.7177 65.1739 45.1732 59.5654 42.7228C56.4518 41.3615 53.4252 39.2807 52.1004 36.1302C50.6113 32.5811 51.704 28.2347 54.3438 25.444C56.5581 23.0909 59.7008 21.7685 62.9305 21.4282C63.0078 21.506 63.1142 21.574 63.2399 21.6129C66.3536 22.6242 70.1151 24.141 71.4302 27.4373C71.5945 27.836 71.9233 28.0694 72.3681 27.9721C73.5962 27.7096 73.8863 26.3094 73.4705 25.2884C73.074 24.2966 72.3294 23.3826 71.5655 22.6533C70.5502 21.6713 69.3125 20.9031 67.9877 20.4266C68.0071 20.3975 68.0361 20.378 68.0554 20.3391C62.7854 18.8028 56.7129 20.5725 53.0674 24.6856C50.9691 27.0581 49.6443 30.2377 49.9151 33.4076C50.2438 37.3651 52.8933 40.7295 55.8039 43.4035C58.8499 46.2039 62.302 48.557 66.0248 50.3559C69.5252 52.0478 72.6195 53.4771 73.4318 57.5708C74.2634 61.713 73.4318 66.2636 72.4165 70.3087C72.3198 70.6879 72.2134 71.0768 71.9717 71.388C71.5655 71.9033 70.8886 72.0784 70.2698 72.2923C66.721 73.5466 64.7677 77.2708 61.2286 78.7196C58.0183 80.0322 54.4501 80.4893 51.0077 80.1684C46.5597 79.7503 43.504 78.3792 41.5508 75.3844C41.7828 75.5011 42.0149 75.608 42.2566 75.7052C42.4984 75.8608 42.7498 76.0067 43.0109 76.1428C44.9835 77.1443 47.1882 77.2416 49.3542 77.261C51.3075 77.2708 53.4445 77.2999 55.1947 76.2692C56.239 75.6566 56.8579 74.6648 57.6315 73.7605C58.4341 72.8271 59.7008 72.0103 60.9095 71.5922C61.3737 71.4366 61.1803 70.6976 60.7064 70.8532C59.1206 71.3491 57.7669 72.7104 56.2874 73.5563C54.2374 74.7329 52.1294 74.7815 49.8184 74.7815C46.0085 74.7815 41.0383 74.062 39.5685 69.8711C39.5298 69.7641 39.4621 69.6961 39.3847 69.6475C38.8626 67.4791 38.4274 65.2816 38.5145 63.0646C38.5822 61.2852 38.9786 59.5349 38.9786 57.7555C38.9786 55.9761 38.5048 54.08 37.151 52.9326C35.8069 51.7852 33.4475 51.7755 32.4709 53.2632C32.0164 53.9633 31.9294 54.8384 31.707 55.6552C30.8464 58.7959 27.7714 60.9448 24.5804 61.5477C21.3894 62.1506 18.1114 61.4699 14.9881 60.5851C12.8897 59.9919 10.7237 59.2432 9.20558 57.668C7.67777 56.0928 7.0299 53.4674 8.29663 51.6685C9.33129 50.2003 11.4973 49.3835 11.6327 47.5846C11.7487 46.0775 10.2693 44.9301 8.83814 44.4634C7.40702 43.9966 5.82119 43.841 4.63181 42.9173C3.04598 41.6727 2.6882 39.3974 2.7849 37.3749C2.88159 35.3523 3.30706 33.2909 2.80424 31.3268C0.464167 33.9619 -0.425446 37.8124 0.522186 41.2157C1.29576 44.0063 3.21036 46.4567 3.49079 49.3349C3.81956 52.7479 1.80826 55.8983 0.937983 59.214C-0.744546 65.5927 2.31108 72.9243 8.00654 76.2011C13.702 79.478 21.5345 78.4084 26.1566 73.7119C27.0365 72.8173 27.8875 71.7575 29.0962 71.4269C30.0051 71.1838 30.9624 71.388 31.8714 71.5922C33.3218 71.9228 36.3098 72.0395 37.5958 73.216C38.089 73.673 38.3017 74.3439 38.5048 74.9857C39.2494 77.3291 40.1777 79.6725 41.7925 81.5102C44.6354 84.7579 49.2575 85.9539 53.5509 85.6719C72.7646 84.3981 80.5777 69.2002 78.199 52.4367C77.9669 50.8226 77.6961 49.014 78.6438 47.6819C79.0499 47.1179 79.6301 46.7095 80.1812 46.2817C85.3642 42.3047 88.5165 35.7802 88.4102 29.2265C88.4102 29.0806 88.4102 28.9348 88.4005 28.7889L88.4198 28.8375Z" fill="#F2CE97"/>
<path d="M51.5202 21.3018C49.9731 19.6877 49.0641 17.7722 48.1938 15.9052C47.4106 14.2328 46.637 12.5506 45.8731 10.8684C45.4283 9.88633 44.9352 8.92369 44.4033 7.99023C43.3106 6.06496 41.9666 4.3536 40.11 3.08954C40.0326 3.0312 39.9456 2.98258 39.8682 2.93396C41.5411 5.87048 43.5137 8.53475 43.8231 12.1519C44.2196 16.7901 43.7845 22.1672 47.9811 25.3177C49.4799 24.2967 50.6596 22.9062 51.5202 21.3115V21.3018Z" fill="#F2CE97"/>
<path d="M36.8223 6.70676C32.4709 -1.46106 20.171 4.71342 18.7786 11.8311C18.3338 14.0967 18.2757 16.5762 19.0203 18.7932C20.3644 22.7896 25.1703 25.5705 28.8351 22.6048C31.5523 20.4073 34.8496 16.1289 36.6192 13.0952C37.7505 11.1602 37.8762 8.69037 36.8126 6.70676H36.8223Z" fill="#FDFCF1"/>
<path d="M75.0659 34.4481C74.3407 32.309 71.8556 31.9103 70.057 30.9379C67.5622 29.5961 67.0304 26.6109 64.9127 24.9287C58.7531 20.0767 51.2011 32.4645 56.3164 37.1999C58.5597 39.271 61.9345 39.8739 64.8354 40.4087C67.9103 40.9824 71.4688 41.1477 73.7992 38.6487C74.8048 37.5694 75.5687 35.9261 75.0659 34.4481Z" fill="#FDFCF1"/>
<path d="M66.9627 13.6396C66.6243 12.57 65.2802 11.7046 63.6943 11.5588C61.3543 11.3546 57.8829 12.7159 56.7128 14.8842C55.243 17.6068 57.6024 18.5209 59.5944 17.636C59.6427 17.6166 59.7298 17.5777 59.7491 17.5777C59.8361 17.5485 59.9232 17.5096 60.0102 17.4804C61.6734 16.9067 63.7717 17.2957 65.3285 16.3914C66.8273 15.526 67.2335 14.505 66.953 13.6299L66.9627 13.6396Z" fill="#FDFCF1"/>
<path d="M19.9679 37.0638C19.8229 35.8872 19.1653 34.9149 18.4111 34.0397C16.7382 32.0756 14.4175 30.2475 11.826 29.7808C8.81875 29.2363 6.17892 31.5019 5.56972 34.419C5.18294 36.2567 5.71477 38.1625 7.33928 39.2224C8.11286 39.728 9.05082 39.9906 9.91142 40.3114C12.5416 41.2935 20.5868 42.2659 19.9582 37.0638H19.9679Z" fill="#FDFCF1"/>
<path d="M23.6715 55.1205C23.2847 53.837 22.0566 53.3411 20.8479 53.2147C20.4611 53.1758 20.0743 53.1661 19.6779 53.1272C19.5618 53.1174 19.4555 53.1077 19.3394 53.0883C19.3104 53.0883 19.2427 53.0785 19.1944 53.0688C18.9913 53.0396 18.7882 53.0105 18.5949 52.9716C18.15 52.8841 17.7052 52.7771 17.2604 52.641C17.0477 52.5729 16.835 52.4951 16.6222 52.4173C16.4869 52.359 16.3708 52.3007 16.2548 52.2423C16.0614 52.1451 15.868 52.0381 15.6843 51.9117C15.5876 51.8534 15.5005 51.795 15.4135 51.727C15.3845 51.7075 15.3555 51.6881 15.3362 51.6686C15.1621 51.5228 14.9881 51.3672 14.8333 51.2019C14.7753 51.1338 14.7173 51.0755 14.6593 51.0074C14.6399 50.988 14.6206 50.9588 14.6013 50.9394C14.6013 50.9296 14.5723 50.9005 14.5336 50.8421C14.0114 50.0934 12.822 49.7239 12.1258 50.531C12.0775 50.5893 12.0291 50.6476 11.9808 50.7157C11.739 50.8421 11.536 51.0366 11.3619 51.2797C10.0758 53.1272 11.1008 55.5775 12.764 56.7541C13.5666 57.318 14.5432 57.6195 15.5005 57.7848C16.5932 57.9792 17.7052 58.0862 18.8076 58.1445C19.3491 58.1737 19.8809 58.1834 20.4224 58.1737C20.9833 58.1737 21.6215 58.2029 22.1726 58.057C23.4587 57.7167 24.0389 56.3457 23.6715 55.1205Z" fill="#FDFCF1"/>
<path d="M68.8387 47.8277C68.1134 47.6624 67.3785 47.5068 66.6533 47.361C65.9377 47.2151 65.6283 48.275 66.3439 48.4695C67.0981 48.6737 67.862 48.8292 68.6356 48.9556C70.6759 49.4224 72.6969 50.0155 74.5244 51.0268C75.7525 51.7074 76.8645 52.5825 77.7445 53.6813C78.0442 54.0605 78.315 54.4592 78.5664 54.8676C78.5954 54.5662 78.6341 54.255 78.6824 53.9536C78.7888 53.2535 78.402 52.6312 78.4213 51.97C78.431 51.406 78.315 50.8906 78.0249 50.4531C77.8121 50.1419 77.8025 49.8988 77.9378 49.578C78.0345 49.3446 78.1603 49.0432 78.1022 48.8195C77.9088 48.0125 78.4117 47.536 78.9338 47.2151C79.1079 47.1082 79.2723 46.9915 79.4367 46.8845C76.0426 48.0708 72.3778 48.382 68.829 47.8083L68.8387 47.8277Z" fill="#E2AE6D"/>
<path d="M51.4718 21.2435C50.3018 20.0086 49.5089 18.6084 48.803 17.1887C49.0157 18.5014 49.1221 19.8238 49.1318 21.1657C49.0641 21.2143 49.0061 21.2726 48.9867 21.3699C48.6483 22.6825 48.3485 24.005 48.0875 25.3371C48.0391 25.5121 48.0101 25.6871 47.9811 25.8719C47.9811 25.9205 47.9617 25.9691 47.9521 26.0177C47.9521 26.0566 47.9521 26.0858 47.9424 26.1247C47.8844 26.5525 48.6193 26.6498 48.6966 26.2317C48.7547 25.94 48.8223 25.6385 48.8804 25.3468C49.1995 24.2286 49.8763 23.2076 50.795 22.5172C50.9594 22.3908 51.0367 22.1964 50.94 22.0019C51.1334 21.7588 51.3171 21.5157 51.4815 21.2629L51.4718 21.2435Z" fill="#E2AE6D"/>
<path d="M77.1933 68.5682C77.3384 68.2181 77.4641 67.8583 77.5898 67.5083C77.6284 67.4013 77.6574 67.2944 77.6865 67.1874C77.7735 66.9249 77.8412 66.6526 77.9089 66.3901C77.9379 66.2831 77.9669 66.1761 77.9862 66.0692C78.0732 65.7094 78.1409 65.3496 78.199 64.9899C77.1546 67.7903 75.182 70.2601 72.6485 71.845C70.6856 73.0702 68.3939 73.8189 66.721 75.4136C65.6187 76.4734 64.8451 77.8347 63.8394 78.9918C60.3583 82.9688 54.5662 83.8634 49.2962 83.7856C47.3526 83.7564 45.2639 83.5328 43.4557 82.8521C43.7071 83.0855 43.9585 83.3091 44.2196 83.5328C45.0222 84.2037 45.8731 84.7968 46.9174 85.0788C47.3913 85.2052 47.8361 85.39 48.3389 85.3413C48.8804 85.283 49.3155 85.6817 49.8957 85.6428C51.3268 85.5553 52.7676 85.5747 54.1987 85.6233C55.4655 85.6719 56.6355 85.3219 57.8055 84.9232C58.2503 84.7774 58.7048 84.5148 59.1593 84.5148C60.2907 84.5148 61.277 84.0092 62.3213 83.7369C63.617 83.3869 64.7677 82.7062 65.9571 82.1034C67.717 81.1991 69.2158 80.0031 70.6663 78.7001C71.2658 78.1556 71.7976 77.5625 72.2908 76.9304C72.7839 76.2984 73.2191 75.6178 73.6445 74.9274C74.4374 73.6341 75.2497 72.3604 75.9846 71.0379C76.4197 70.2406 76.8355 69.4238 77.1836 68.5779L77.1933 68.5682Z" fill="#E2AE6D"/>
<path d="M32.9254 71.952C33.0124 71.9715 33.0994 72.0006 33.1864 72.0201C33.7473 72.1562 34.3178 72.2632 34.8883 72.3604C35.2268 72.409 35.5749 72.4577 35.923 72.4965C36.4355 72.5452 36.977 72.6424 37.4314 72.8563C37.7022 72.9924 37.8956 73.3814 38.0213 73.7023C38.2244 74.2176 38.3597 74.7621 38.5435 75.2775C38.5435 75.1803 38.5435 75.083 38.5435 74.9858C38.8336 73.2744 38.3501 71.5534 37.209 70.2212C36.8416 69.7934 36.3194 70.1532 36.2517 70.5907C36.2034 70.5129 36.1454 70.4449 36.097 70.3768C35.952 69.4336 35.7489 68.5001 35.5458 67.5861C35.2074 66.0984 34.8593 64.6107 34.8303 63.0841C34.811 62.1506 36.3388 58.8543 34.6369 58.4362C33.2928 58.1056 32.1711 61.2755 31.765 62.1604C30.8851 64.0759 30.0728 66.0206 29.0768 67.8876C28.2936 69.3558 27.3749 70.9019 25.8471 71.5534C24.8512 71.9715 23.7391 71.952 22.6561 71.9229C16.9317 71.7575 10.743 71.4172 6.33366 67.7417C3.92591 65.7289 2.75587 63.1813 2.12734 60.3712C2.90092 61.4894 4.3417 62.4035 5.09594 63.3564C5.85985 64.3287 6.5464 65.2525 7.7261 65.7484C8.8768 66.2346 10.1435 66.2929 11.3716 66.3415C11.7777 66.3512 11.9808 65.9623 11.9228 65.6122C11.7584 64.5329 10.9364 63.8134 10.0372 63.298C8.94448 62.666 7.81313 62.2382 6.91385 61.3144C4.76717 59.0877 4.45774 55.84 4.68981 52.8938C4.72849 52.3882 4.04194 52.1451 3.71317 52.4854C3.58747 52.6118 3.4811 52.7577 3.36506 52.8841C3.2587 53.2633 3.12332 53.6328 2.95893 54.0023C2.63983 54.751 2.25305 55.4803 1.94361 56.2387C1.70187 56.8416 1.46013 57.4347 1.36343 58.0959C1.33442 58.2904 1.28607 58.4751 1.22806 58.6599C1.1507 58.9224 1.054 59.1752 0.976644 59.4378C0.976644 59.4669 0.957304 59.4961 0.947635 59.5253C0.908956 59.6711 0.870277 59.817 0.841268 59.9628C0.734901 60.624 0.947635 61.3241 0.541507 61.9367C0.502828 63.9787 0.502828 66.0109 1.09268 67.9945C1.93395 70.8338 3.68416 73.0702 5.9082 74.9177C6.78814 75.647 7.89049 76.1623 8.95415 76.5999C10.0275 77.0375 11.1879 77.2903 12.3192 77.5334C13.702 77.8251 15.1428 77.757 16.5352 78.0876C17.7439 78.3696 18.943 77.8737 20.1517 77.7667C21.2444 77.6695 23.391 76.3957 24.2613 75.6275C24.6771 75.258 25.0059 74.7719 25.47 74.4996C25.9922 74.1884 26.1372 73.605 26.5917 73.2647C27.0075 72.9536 27.4426 72.5841 27.607 72.0201C27.6457 71.884 27.8584 71.7478 28.0131 71.6895C29.0962 71.3297 30.2662 71.1547 31.3202 71.5145C31.6393 71.6214 31.9681 71.7284 32.2872 71.8159C32.4902 71.8742 32.6933 71.9326 32.906 71.9812L32.9254 71.952Z" fill="#E2AE6D"/>
<path d="M26.2339 33.3105C26.7561 33.6897 27.4426 32.8048 26.9301 32.4062C25.1025 30.9768 23.362 29.4502 21.7181 27.8264C21.8148 27.6319 21.8148 27.3888 21.6311 27.1846C20.084 25.4052 18.6625 23.5091 17.3571 21.5449C17.7536 22.5756 18.2854 23.5772 18.5562 24.6954C17.7052 24.6954 16.8736 24.7537 16.0614 24.6759C15.9937 24.6759 15.9163 24.6759 15.8486 24.6759C18.9526 27.943 22.6174 30.6656 26.2436 33.3299L26.2339 33.3105Z" fill="#E2AE6D"/>
<path d="M19.0493 67.2263C17.9179 66.8082 16.7479 66.4971 15.5585 66.2929C15.2781 66.2442 14.9977 66.3415 14.8817 66.6235C14.7753 66.8666 14.8623 67.2166 15.1137 67.343C15.1717 67.3722 15.2298 67.3916 15.2878 67.4208C15.3071 67.5958 15.3845 67.7514 15.5489 67.8389C16.6415 68.3932 17.8503 68.5585 19.0493 68.3445C19.2814 68.3056 19.4844 68.0237 19.4748 67.7903C19.4651 67.518 19.3007 67.3236 19.0493 67.2361V67.2263Z" fill="#E2AE6D"/>
<path d="M70.5599 25.3371C69.6413 23.8786 68.2295 22.8479 66.8661 21.8464C66.6533 21.6908 66.4503 21.8075 66.3632 21.9922C66.3439 21.9825 66.3149 21.963 66.2955 21.9436C65.8701 21.681 65.493 22.352 65.9088 22.6048C68.4035 24.1314 70.1247 26.8346 70.4245 29.7614C70.4729 30.1989 71.0144 30.2767 71.1787 29.8683C71.7686 28.3709 71.3915 26.6595 70.5502 25.3371H70.5599Z" fill="#E2AE6D"/>
<path d="M3.9839 41.1768C3.08461 38.8431 2.65915 36.3539 2.74618 33.8549C2.89122 33.5535 3.03627 33.2521 3.19098 32.9506C3.42305 32.5131 2.75584 32.1241 2.53344 32.5617C2.39807 32.8145 2.27236 33.0673 2.15632 33.3299C2.08863 33.3785 2.03062 33.4368 2.01128 33.5341C1.99194 33.6118 1.98227 33.6799 1.96293 33.7577C1.39242 35.0607 0.986288 36.4706 1.15067 37.8902C1.31506 39.3974 2.07897 40.8656 3.44239 41.6046C3.71315 41.7505 4.12894 41.5074 4.00324 41.1671L3.9839 41.1768Z" fill="#E2AE6D"/>
<path d="M67.7073 66.3318C67.5429 65.9331 66.9917 65.9818 66.9531 66.4388C66.8177 68.014 65.4059 69.4045 63.8394 69.5212C63.646 69.5309 63.4913 69.6573 63.4623 69.8518C63.443 70.0073 63.5203 70.1532 63.646 70.231C63.6557 70.3671 63.7427 70.5032 63.9168 70.5519C65.0385 70.8727 66.3439 70.513 67.1271 69.6281C67.9104 68.7433 68.1521 67.4209 67.7073 66.3221V66.3318Z" fill="#F2CE97"/>
<path d="M75.9072 30.1892C75.9072 29.9461 75.9072 29.703 75.8976 29.4599C75.8976 29.0321 75.9459 28.5265 75.7525 28.1375C75.5205 27.6805 74.979 27.6125 74.5632 27.8361C74.215 28.0209 73.983 28.3806 73.8573 28.7501C73.7509 28.789 73.6542 28.8863 73.6059 29.0029C73.3641 29.6155 73.4705 30.3351 73.8186 30.8796C73.8186 31.0157 73.8959 31.1519 74.012 31.2199C74.0797 31.2588 74.1474 31.2783 74.215 31.2977C74.4471 31.463 74.7275 31.5602 75.0176 31.5408C75.4238 31.5116 75.7429 31.2588 75.8589 30.8699C75.9266 30.6462 75.9072 30.4129 75.9072 30.1892Z" fill="#F2CE97"/>
</g>
<defs>
<clipPath id="clip0_72_51">
<rect width="89" height="86" fill="white"/>
</clipPath>
</defs>
</svg>
