<svg width="93" height="96" viewBox="0 0 93 96" fill="none" xmlns="http://www.w3.org/2000/svg">
<g clip-path="url(#clip0_72_52)">
<path d="M78.3102 69.6624C78.4779 70.2071 78.0797 70.8146 78.5931 71.3384C78.7084 71.4536 78.6665 71.7993 78.6036 72.0088C78.3417 72.9201 78.3521 73.9047 77.933 74.7742C77.3987 75.8636 76.8748 76.9634 75.9947 77.8434C75.1669 78.6604 74.0668 78.9956 73.0714 79.467C72.0341 79.9593 70.9235 80.284 69.8338 80.6611C69.268 80.8602 68.6812 80.9963 68.0945 81.143C67.7173 81.2477 67.3087 81.2687 66.9734 81.4468C66.7429 81.5725 66.4495 81.8972 66.4705 82.1172C66.5962 83.7094 65.7056 84.9664 65.0141 86.2234C64.2387 87.627 63.5157 89.0831 62.2689 90.2248C61.043 91.3457 59.639 92.1104 58.1721 92.7284C56.7576 93.3255 55.3327 93.8911 53.9601 94.5929C52.9542 95.1062 51.8436 95.2738 50.7644 95.5566C49.1927 95.9652 47.6106 95.7452 46.039 95.808C45.8504 95.808 45.6198 95.8814 45.4941 95.7976C44.8864 95.3681 44.1634 95.6928 43.5557 95.4519C43.1157 95.2738 42.6442 95.1272 42.2565 94.9386C41.4393 94.5406 40.7268 93.9121 40.0248 93.315C38.4531 91.9637 37.1434 90.3715 36.1375 88.5698C35.8651 88.067 35.6765 87.4699 35.4565 86.9147C34.985 85.7101 34.5659 84.4845 33.2981 83.8141C32.9104 83.6046 32.638 83.1856 32.2922 82.8399C31.5064 83.3427 30.731 83.877 29.9138 84.3379C29.107 84.7883 28.2583 85.0816 27.2944 85.0397C26.0475 84.9873 24.8007 85.0397 23.5643 85.0292C21.6364 85.0083 19.9495 84.3064 18.3359 83.2904C16.5757 82.1905 14.9936 80.8916 13.6105 79.3622C12.7618 78.4195 12.2903 77.2777 11.9131 76.0626C11.6197 75.1198 11.6721 74.198 11.6826 73.2658C11.6826 72.7944 11.8712 72.3335 11.9341 71.8621C11.9969 71.4222 11.8083 71.1708 11.3892 70.9194C10.3834 70.2909 9.50324 69.4319 8.49739 68.8453C7.46009 68.2273 6.74761 67.2321 5.64745 66.7293C5.37503 65.9018 4.56825 65.5352 4.08628 64.8857C3.38427 63.943 2.72418 62.9583 2.02217 62.0051C1.14205 60.8005 0.701983 59.4178 0.314309 58.0141C-0.272442 55.8667 0.146665 53.667 0.0314108 51.4986C0.387652 50.7863 0.293353 50.0217 0.314309 49.2675C0.335264 48.5552 0.764849 47.9057 0.586729 47.1725C1.163 45.8107 1.23635 44.3232 1.59259 42.8986C1.93835 41.5159 2.40985 40.1751 2.84991 38.8448C3.2795 37.525 4.11771 36.3308 4.78828 35.0843C5.32265 34.0787 5.97226 33.1569 6.66379 32.2665C7.55439 31.1247 8.51834 30.1191 9.82805 29.4592C10.4777 29.1345 11.0959 28.7364 11.7455 28.4117C12.3637 28.1079 13.0761 28.1079 13.7258 27.8565C14.2077 27.6679 14.8154 27.8041 15.3603 27.8041C15.947 27.8041 16.5443 27.8041 17.1834 27.8041C17.1834 27.1861 17.1939 26.6309 17.1834 26.0862C17.1415 24.3055 17.7178 22.6504 18.315 21.0268C18.8598 19.5498 19.5094 18.1042 20.2429 16.7111C21.1754 14.9513 22.2965 13.2962 23.4595 11.6726C24.2663 10.5518 25.2303 9.609 26.2256 8.6872C27.8078 7.22069 29.4423 5.83799 31.3807 4.79048C32.3551 4.26673 33.3295 3.68013 34.3249 3.19828C36.1585 2.29743 38.0864 1.58512 40.0352 0.956622C41.7326 0.401445 43.4405 0.0871943 45.2322 0.139569C45.8818 0.160519 46.5209 0.160519 47.1705 0.139569C49.5595 0.0767192 51.7179 0.747121 53.6981 2.07745C55.2488 3.11448 56.7786 4.18293 58.0778 5.50279C59.1151 6.56076 59.9848 7.78634 60.6344 9.13762C61.5983 11.1384 62.5099 13.1496 63.1385 15.2865C63.4005 16.1664 63.6415 17.0253 63.7358 17.9576C63.7986 18.5547 64.0606 19.1937 63.9349 19.7803C63.652 21.0792 63.6205 22.4304 62.8766 23.6246C62.4575 24.295 62.227 25.112 62.0489 25.8977C61.9336 26.39 61.6717 26.7566 61.4726 27.1861C61.4412 27.2489 61.4726 27.4061 61.525 27.427C61.6298 27.4794 61.8288 27.5422 61.8812 27.4899C62.709 26.7461 63.7358 26.4214 64.7312 26.0024C65.3179 25.751 66.0199 26.1386 66.4914 25.5834C67.7592 25.6986 68.9641 25.1539 70.2529 25.2901C71.2064 25.3949 72.1913 25.353 73.1552 25.2901C73.7944 25.2587 74.3706 25.5101 74.9783 25.5625C75.6594 25.6148 76.0471 26.1176 76.5814 26.3795C77.4511 26.809 78.1007 27.4375 78.7817 28.087C79.9657 29.2183 81.2964 30.182 82.6166 31.1561C83.5177 31.8161 84.2197 32.7693 84.9845 33.6073C86.2209 34.969 86.9543 36.6765 87.9812 38.1744C88.4317 38.8239 88.9661 39.3371 89.4899 39.8818C91.2816 41.7254 91.7112 42.5739 92.497 45.287C92.6542 45.8212 92.5704 46.3659 92.759 46.8373C92.9685 47.361 93.0104 47.8638 93.0104 48.3876C93.0104 49.9064 92.9895 51.4253 93.0104 52.9442C93.0419 54.5155 92.6123 55.9401 91.9103 57.3332C91.1454 58.8731 90.4225 60.4234 89.4061 61.827C88.9661 62.4346 88.5365 63.0631 88.0126 63.5973C86.7134 64.9381 85.456 66.3418 83.9158 67.3997C82.6061 68.3006 81.2754 69.2119 79.578 69.2853C79.2008 69.3062 78.8446 69.5052 78.2998 69.6728L78.3102 69.6624Z" fill="#FEF3CD"/>
<path d="M29.1175 41.2122C27.3468 43.0349 25.1465 44.4281 22.7471 45.2451C26.0371 45.088 29.3794 46.1669 31.9465 48.22C32.5647 48.7123 33.2248 49.2885 34.0211 49.2466C34.0211 48.021 34.6393 46.8059 35.6451 46.1041C35.8337 45.9784 36.0433 45.8422 36.0957 45.6222C36.19 45.2765 35.8547 44.9937 35.5508 44.7947C33.4448 43.4015 31.3283 42.0188 29.2223 40.6256L29.1175 41.2017V41.2122Z" fill="#E2AE6D"/>
<path d="M25.4817 39.5362C23.7948 37.724 22.0346 35.7233 21.7831 33.2616C21.5736 31.198 22.4746 29.2078 23.4176 27.3537C24.7693 24.714 26.2466 22.1371 27.8497 19.6336C28.1326 19.1937 28.426 18.7432 28.8765 18.4918C29.3061 18.2509 29.8195 18.209 30.312 18.1671C33.0362 17.9786 36.1585 17.9262 38.0131 19.9269C39.5742 21.6134 39.7209 24.274 41.324 25.9291C39.0399 22.2314 33.5077 21.0582 29.9138 23.5094C29.2118 23.9912 28.5727 24.5988 28.185 25.353C27.7135 26.2538 27.6192 27.3013 27.5982 28.3174C27.4935 35.7233 31.5379 39.2952 35.0688 44.9622C31.6531 46.9944 27.3887 41.5893 25.4713 39.5362H25.4817Z" fill="#F2CE97"/>
<path d="M73.2705 77.9795C70.7768 78.807 68.1784 79.1527 65.5589 79.027C65.3075 79.0165 65.1189 79.1108 65.0036 79.247C63.6206 80.6402 61.9651 82.1381 60.0058 82.0019C59.3666 81.96 58.7484 81.7296 58.1093 81.6772C56.4643 81.5305 54.7774 82.6304 54.2535 84.2017C53.7191 85.8253 54.1487 88.0251 52.6923 88.9259C52.2104 89.2192 51.6236 89.2821 51.0578 89.3344C48.7003 89.5439 46.1438 89.7011 44.1425 88.4336C42.6652 87.5013 41.7327 85.9196 40.5277 84.6521C39.5428 83.6151 38.7675 82.0438 37.6359 81.8553C37.6359 81.8029 37.6568 81.74 37.6673 81.6877C38.034 80.5668 38.2436 79.3832 38.3798 78.2309C38.5894 76.492 38.736 74.7532 38.8722 73.0039C39.0189 72.2497 39.0923 71.485 39.0608 70.7098C39.0189 69.7147 37.6254 69.7461 37.5416 70.7098C37.4787 71.4117 37.4263 72.103 37.3635 72.8048C36.2738 78.1052 31.0873 81.1011 26.079 81.8553C21.7098 82.5047 13.8201 81.5934 12.1017 76.6701C12.4475 77.6548 12.8876 78.5871 13.6001 79.3622C14.9831 80.8916 16.5652 82.1905 18.3255 83.2903C19.9391 84.3064 21.626 85.0082 23.5539 85.0292C24.8007 85.0397 26.0476 84.9873 27.2839 85.0397C28.2479 85.0816 29.0966 84.7883 29.9033 84.3378C30.7206 83.8769 31.496 83.3427 32.2818 82.8399C35.467 86.0243 36.5462 90.3191 40.0143 93.3149C42.1518 95.1586 44.7083 95.9232 47.5583 95.8813C50.6492 95.8394 53.2791 94.8129 56.0452 93.6187C56.7472 93.3149 57.4597 93.0217 58.1617 92.7283C61.3993 91.3771 63.3481 89.2402 65.0036 86.2233C65.3494 85.5948 65.7371 84.9663 66.0304 84.2959C66.3238 83.6255 66.5124 82.9132 66.46 82.1067C66.4286 82.0019 66.3971 81.8867 66.3552 81.7819C66.4391 81.7819 66.5124 81.7819 66.5962 81.7715C66.701 81.6353 66.8372 81.5096 66.9525 81.4467C67.2878 81.2687 67.6964 81.2477 68.0736 81.143C68.6498 80.9858 69.2366 80.8497 69.8129 80.6611C70.9025 80.284 72.0132 79.9593 73.0505 79.467C74.0563 78.9851 75.146 78.6604 75.9738 77.8433C76.4662 77.351 76.8434 76.7958 77.1787 76.2092C75.9423 76.9529 74.5907 77.5396 73.26 77.9795H73.2705Z" fill="#F2CE97"/>
<path d="M33.8011 45.5174C30.3015 44.8155 27.3363 41.9244 26.5505 38.4362C26.3305 37.4516 26.2676 36.446 26.2362 35.4404C26.079 30.7476 26.5924 25.7405 29.4843 22.0428C29.7986 21.6448 30.1758 21.2362 30.6787 21.1524C32.5647 20.8172 33.9687 21.5924 35.8652 21.8438C37.0387 22.0009 38.2646 22.179 39.1971 22.9018C40.9259 24.253 40.884 26.8194 40.7687 29.0087C40.5906 32.3083 40.6325 35.7651 42.1204 38.7086C43.6082 41.6625 46.9296 43.9252 50.1463 43.1814C51.4874 38.7714 53.9182 35.9222 57.5121 33.0416C56.15 36.1422 55.1022 39.997 55.0079 43.3805C54.987 44.2289 55.0079 45.1088 55.3537 45.884C55.6994 46.6591 56.4434 47.3086 57.2921 47.3086C56.4224 48.3875 56.7996 49.1731 56.6634 50.5454C56.4748 52.4728 56.4329 54.5364 57.4597 56.1809C58.4132 57.6998 60.1001 58.5692 61.7556 59.2396C63.9349 60.1195 66.1981 60.8004 68.5137 61.2509C67.3716 63.8487 66.2924 66.656 64.0397 68.3843C61.6822 70.1861 58.9999 71.9878 56.0347 71.7992C52.9543 71.6002 50.4396 69.2852 48.4803 66.8969C47.5792 68.6148 46.5 69.3585 45.0855 70.6784C44.3311 71.3802 43.5139 72.0087 42.6128 72.501C41.1983 73.2657 39.6267 73.6638 38.0655 74.0513C37.6778 74.1456 37.2901 74.2399 36.9025 74.3446C32.5018 73.0981 28.908 69.3481 28.8556 64.7809C28.7927 64.7809 29.0128 64.2781 28.9499 64.2886C30.8359 64.2991 32.3237 62.7278 33.382 61.1671C35.006 58.7683 36.2214 55.5943 34.8488 53.0489C34.3249 52.0643 33.4658 51.3101 32.6066 50.5977C30.9407 49.2255 29.2014 47.9371 27.3887 46.7639C29.9872 47.1724 31.5065 46.7639 33.8115 45.5174H33.8011Z" fill="#D47601"/>
<path d="M61.3364 75.8531C62.8452 77.8748 64.5111 80.0641 64.8883 82.6305C64.9826 83.2694 64.9722 83.9084 64.8883 84.5264C65.4751 83.4894 66.0618 82.4105 65.9571 81.1011C65.9361 80.8811 66.2295 80.5564 66.46 80.4307C66.7953 80.2526 67.2039 80.2317 67.5811 80.1269C68.1574 79.9698 68.7441 79.8336 69.3204 79.6451C70.4101 79.268 71.5207 78.9432 72.558 78.4509C72.6628 78.3985 72.7676 78.3566 72.8723 78.3043C69.1737 78.2309 65.4541 76.7225 62.3842 74.8056C61.7765 74.4285 60.8754 75.2246 61.3469 75.8426L61.3364 75.8531Z" fill="#F2CE97"/>
<path d="M13.0447 30.6429C16.1357 31.1143 19.0799 32.4551 21.385 34.5815C21.8355 35.0005 22.5794 34.6863 22.6947 34.1835C23.4072 34.6758 24.2663 34.8958 25.2408 34.6444C25.7437 34.5082 25.9113 33.9635 25.6913 33.5236C25.2932 32.7274 24.9369 31.9104 24.6331 31.0829C24.6226 31.0305 24.6016 30.9781 24.5807 30.9257C24.5492 30.8315 24.5178 30.7477 24.4864 30.6534C24.4969 30.5172 24.4864 30.381 24.413 30.2553C24.3397 30.1192 24.2873 29.983 24.214 29.8468C22.789 25.3216 22.6737 20.4926 23.8053 15.936C23.9206 15.6951 24.0254 15.4436 24.1301 15.2132L26.2885 10.1642C26.561 9.52526 26.8334 8.88628 27.1058 8.25778C27.2839 7.97495 27.4725 7.69213 27.6716 7.4093C27.1791 7.8283 26.7076 8.2473 26.2362 8.68726C25.2408 9.60906 24.2768 10.5623 23.47 11.6726C22.307 13.2963 21.1859 14.9408 20.2534 16.7111C19.5199 18.1043 18.8703 19.5499 18.3255 21.0268C17.7283 22.6505 17.1415 24.3055 17.1939 26.0863C17.2044 26.631 17.1939 27.1757 17.1939 27.8042C16.5443 27.8042 15.9575 27.8042 15.3708 27.8042C14.8155 27.8042 14.2078 27.668 13.7363 27.8566C13.0866 28.1184 12.3742 28.1184 11.756 28.4117C11.1064 28.726 10.4882 29.1345 9.83856 29.4592C9.15751 29.7944 8.58124 30.2344 8.04688 30.7267C8.17261 30.7058 8.28786 30.6743 8.41359 30.6534C9.94334 30.4125 11.5359 30.4229 13.0552 30.6534L13.0447 30.6429Z" fill="#F2CE97"/>
<path d="M93 48.3771C93 47.8429 92.9581 47.3401 92.7485 46.8268C92.6542 46.5963 92.6333 46.3449 92.6018 46.083C92.5914 45.9573 92.5809 45.8212 92.5599 45.685C92.539 45.5488 92.518 45.4126 92.4761 45.2869C92.277 44.6061 92.1094 44.0509 91.9313 43.5586C91.8894 43.4329 91.837 43.3176 91.7951 43.2024C91.7008 42.972 91.6065 42.7625 91.5122 42.553C91.0616 41.6312 90.4853 40.9084 89.4795 39.8818C89.2175 39.6095 88.9451 39.3476 88.6937 39.0648C87.9497 38.4991 87.1639 37.9858 86.3467 37.5459C88.3374 40.7303 90.3806 44.1347 90.433 47.8952C90.4853 51.6558 87.6878 55.7201 83.9368 55.5944C84.775 58.7893 83.4024 62.4555 80.6573 64.2991C77.9121 66.1427 74.0039 66.038 71.3531 64.0582C71.2169 66.8655 72.778 68.8034 75.5337 69.3271C75.7747 69.369 76.4348 68.9081 76.7596 68.5101C76.7701 68.5206 76.791 68.531 76.8015 68.5415C76.7596 68.6253 76.7386 68.7196 76.7491 68.8139C76.8958 69.9975 77.5559 70.9822 78.5722 71.6002C78.5932 71.6107 78.6246 71.6316 78.656 71.6421C78.656 71.5269 78.6351 71.4117 78.5827 71.3593C78.0693 70.8355 78.4674 70.2175 78.2998 69.6833C78.8342 69.5157 79.2009 69.3167 79.5781 69.2957C79.7771 69.2957 79.9657 69.2643 80.1543 69.2329C80.2696 69.2119 80.3849 69.191 80.5001 69.1595C80.5735 69.1386 80.6468 69.1281 80.7097 69.1072C80.8144 69.0757 80.9192 69.0443 81.024 69.0024C81.0973 68.9815 81.1707 68.95 81.244 68.9291C81.3488 68.8872 81.4431 68.8453 81.5479 68.8034C81.6212 68.772 81.6946 68.7405 81.7679 68.7091C81.8622 68.6672 81.9565 68.6148 82.0508 68.5729C82.1241 68.531 82.1975 68.4996 82.2708 68.4577C82.3547 68.4053 82.449 68.3634 82.5328 68.3111C82.6061 68.2692 82.6899 68.2168 82.7633 68.1644C82.8471 68.112 82.9205 68.0701 83.0043 68.0178C83.0986 67.9549 83.1824 67.9025 83.2767 67.8397C83.3396 67.7978 83.4024 67.7559 83.4653 67.714C83.612 67.6092 83.7691 67.5045 83.9158 67.4102C85.0684 66.6141 86.0638 65.6295 87.0382 64.6134C87.363 64.2782 87.6878 63.943 88.0021 63.6078C88.2641 63.3354 88.4946 63.0526 88.7251 62.7488C88.9556 62.445 89.1652 62.1413 89.3957 61.8375C90.412 60.4443 91.135 58.8835 91.8998 57.3437C92.4237 56.2962 92.7904 55.2382 92.9371 54.1069C92.9895 53.7298 93.0105 53.3527 93 52.9547C92.9686 51.4358 93 49.9169 93 48.398V48.3771Z" fill="#F2CE97"/>
<path d="M59.1151 11.6621C57.9521 9.27383 56.3281 7.17883 54.1277 5.64947C50.1253 2.86311 44.4987 2.06701 40.0248 4.18297C37.3425 5.45045 35.9699 8.12158 35.907 11.0127C35.8023 15.4646 39.0923 22.8076 42.8642 25.353C44.9807 26.7776 47.684 27.1757 50.1881 27.1442C52.5247 27.1128 54.9345 26.6729 56.9882 25.5101C59.1885 24.2636 60.6134 22.1581 60.9068 19.6441C61.2421 16.8892 60.2991 14.1133 59.1151 11.6621Z" fill="#FDFCF1"/>
<path d="M86.9858 46.3555C85.8438 42.2178 81.726 39.5257 77.6083 39.1067C71.416 38.4782 61.2212 44.3128 63.2643 51.5616C63.8825 53.7508 65.5275 55.4373 67.6231 56.2648C69.75 57.1028 71.9608 56.82 73.9725 55.8249C75.8795 54.8717 77.5245 53.3423 79.5676 52.6929C80.6992 52.3262 81.6736 52.4938 82.8157 52.6614C83.9263 52.8186 84.9846 52.6405 85.8333 51.8653C87.3106 50.514 87.4888 48.1781 86.9858 46.3555Z" fill="#FDFCF1"/>
<path d="M28.2793 51.3835C27.483 50.2731 26.4771 49.2571 25.2408 48.66C22.7052 47.4239 19.038 48.241 18.2731 51.2683C18.2521 51.3311 18.2521 51.394 18.2521 51.4568C17.833 52.8919 17.6654 54.4003 17.613 55.8982C17.5606 57.4485 17.3511 59.3026 17.9797 60.7586C19.017 63.1679 22.1708 63.6707 24.3606 62.6756C25.6704 62.0785 26.7076 61.0415 27.5668 59.9102C28.4889 58.6951 29.4318 57.2809 29.6728 55.7516C29.9243 54.1384 29.2118 52.6719 28.2793 51.394V51.3835Z" fill="#FDFCF1"/>
<path d="M19.9809 36.0166C19.2161 34.7072 18.0216 33.4921 16.7538 32.6541C15.2031 31.6171 13.3486 31.4181 11.5673 31.9313C8.04684 32.9579 3.2271 37.2317 3.9815 41.3379C4.2644 42.8987 5.89892 43.4748 7.30293 43.0453C8.54977 42.6682 9.46133 41.6836 10.4148 40.8665C10.8444 40.4999 11.3054 40.1333 11.8398 39.9447C12.6885 39.6305 13.621 39.8295 14.4697 39.9866C15.3288 40.1542 16.1775 40.2904 17.0472 40.3323C17.8749 40.3742 18.9436 40.4894 19.6876 40.0495C21.0916 39.201 20.641 37.1688 19.96 36.0061L19.9809 36.0166Z" fill="#FDFCF1"/>
<path d="M26.9277 74.4705C25.8694 73.3496 24.2664 73.381 22.8833 73.7686C22.1394 73.9781 21.385 74.2924 20.6096 74.3448C20.2744 74.3657 19.9286 74.3552 19.6038 74.24C19.2685 74.1143 19.017 73.8734 18.7341 73.6744C17.4559 72.763 15.7166 73.7058 15.7899 75.2875C15.8423 76.3769 16.5653 77.0892 17.4663 77.5082C17.5082 77.5501 17.5397 77.5815 17.5816 77.613C18.7865 78.5243 20.3058 78.7757 21.7831 78.87C23.271 78.9642 25.0941 79.1318 26.3619 78.1996C27.5668 77.3092 27.9964 75.6332 26.9067 74.4705H26.9277Z" fill="#FDFCF1"/>
<path d="M50.1881 81.4153C49.3394 80.3259 49.0775 79.0375 49.1718 77.6758C49.2661 76.2407 49.2347 74.6589 47.7468 73.9466C46.9924 73.5905 44.5092 73.161 43.912 73.9571C42.2041 76.2616 40.7477 78.7547 41.4707 81.7191C42.0784 84.2122 43.9644 86.3595 46.3219 87.3547C47.663 87.9203 49.2242 88.0879 50.5653 87.4071C51.676 86.8309 52.5351 85.6682 52.5247 84.3798C52.5037 82.8504 51.0159 82.4628 50.1986 81.4049L50.1881 81.4153Z" fill="#FDFCF1"/>
<path d="M60.0057 77.4977C59.4819 77.0996 58.8846 76.7959 58.256 76.5864C57.4282 76.314 55.5632 76.4921 55.1441 77.4034C54.5154 78.7442 56.8205 80.0745 57.8892 80.3888C58.455 80.5459 59.0523 80.6088 59.639 80.5459C60.3725 80.4621 61.2945 80.1898 61.3259 79.2889C61.3574 78.5242 60.5611 77.9167 60.0057 77.4977Z" fill="#FDFCF1"/>
<path d="M76.1938 72.0612C75.5756 71.3175 74.5802 71.0242 73.6687 70.8356C72.8724 70.668 72.0027 70.5737 71.3531 70.05C70.5882 69.4215 69.9281 68.573 68.8489 68.6149C68.0317 68.6463 67.183 69.1701 67.0677 70.0081C66.963 70.0709 66.8791 70.1547 66.7953 70.27C65.6323 72.145 66.9211 74.219 68.5346 75.277C70.0853 76.2931 72.1285 76.733 73.9306 76.2093C74.8212 75.9474 75.6804 75.4656 76.2252 74.7009C76.812 73.8943 76.8329 72.8468 76.1938 72.0612Z" fill="#FDFCF1"/>
<path d="M61.7555 59.2397C60.1 58.5693 58.4027 57.6999 57.4597 56.181C56.4329 54.5469 56.4748 52.4728 56.6634 50.5454C56.7786 49.3932 56.5376 48.6494 56.9672 47.801C56.7786 47.56 56.6005 47.3191 56.4329 47.0782C55.9614 46.8268 55.5737 46.3764 55.3537 45.8735C55.0079 45.0984 54.9869 44.2185 55.0079 43.37C55.0288 42.731 55.0917 42.0816 55.1651 41.4217C55.0498 40.5522 54.8298 39.7352 54.3059 39.0334C53.9706 38.5829 53.4991 38.2058 52.9543 38.0906C52.8285 38.0696 52.7133 38.0592 52.598 38.0592C51.5607 39.5466 50.733 41.2122 50.1358 43.1815C49.4442 43.3386 48.7422 43.3595 48.0507 43.2548C47.6421 43.59 47.1706 43.7995 46.6257 43.7785C45.3475 43.7366 44.5512 42.5215 44.0692 41.275C43.2624 40.5418 42.5918 39.6619 42.1098 38.6982C40.622 35.7442 40.5801 32.2979 40.7582 28.9983C40.8316 27.5108 40.8735 25.8558 40.3601 24.5254C40.14 24.1379 39.8048 23.8236 39.2494 23.5827C37.6149 22.8809 35.4041 23.677 34.2201 24.8502C32.6799 26.3795 32.1246 28.6945 32.3132 30.8628C32.5018 33.0207 33.3295 35.0738 34.2411 37.0431C35.6242 40.0599 37.2272 42.9929 39.2704 45.6012C39.2494 45.5907 39.2285 45.5802 39.2075 45.5698C38.8408 45.2555 38.4636 44.9517 38.055 44.6794C37.0806 44.009 36.0118 43.5062 34.9641 42.972C31.4645 40.4265 29.4423 36.2051 29.6833 31.8475C29.8509 31.0723 29.9976 30.2972 30.0186 29.5115C30.0291 29.0821 29.369 28.9878 29.2747 29.4068C29.0756 30.2343 28.9603 31.0723 28.9184 31.9208C28.3736 34.4558 27.5249 37.0221 29.2013 39.3057C29.4947 39.7038 29.83 40.0704 30.1862 40.4161C30.6577 40.9712 31.1921 41.4845 31.7684 41.914C32.2923 42.312 32.8476 42.6577 33.4029 42.972C34.7231 43.9357 36.0957 44.7527 37.5416 45.5069C37.9293 45.7059 38.3274 45.9154 38.7046 46.1459C39.0923 46.4811 39.4695 46.8477 39.8362 47.2144C37.2901 47.8114 34.9536 49.1627 33.0886 50.9958C33.7696 51.5929 34.4192 52.2424 34.8488 53.0385C36.1376 55.4268 35.1527 58.3598 33.6858 60.6957C36.6719 60.0253 39.3752 58.0036 40.6325 55.1963C38.4217 60.0148 37.1434 65.2628 36.9024 70.5527C36.8815 70.9089 36.8815 71.286 37.0701 71.5793C37.4997 72.2497 38.5265 72.0402 39.239 71.6945C43.9958 69.4528 47.3801 64.7391 48.3755 59.6063C48.3755 59.6482 48.3755 59.7006 48.386 59.7425C48.5536 61.0519 48.9937 62.2984 49.7271 63.4087C51.1626 65.5876 53.4781 67.0541 56.0661 67.3893C56.4538 67.4416 56.5586 66.855 56.2547 66.677C54.1697 65.4514 51.9694 64.1525 50.6282 62.0679C49.4233 60.1824 49.0251 57.9303 48.7527 55.7306C49.3499 58.0665 50.6701 60.2243 52.3675 61.9527C53.5305 63.1364 54.8926 64.1629 56.4538 64.7181C58.7694 65.5561 61.4517 65.2838 63.5472 64.0163C64.815 63.2516 65.8523 62.1203 66.5543 60.8214C64.9093 60.4024 63.2957 59.8787 61.7346 59.2502L61.7555 59.2397ZM53.2372 65.6609C52.0637 65.001 51.0578 64.0477 50.3348 62.9164C51.1311 64.0058 52.1475 64.8857 53.2372 65.6609Z" fill="#BC5800"/>
<path d="M20.5782 72.564C23.7319 72.3231 26.5924 71.0032 28.8346 68.7825C33.078 64.5716 38.1807 56.7467 35.1002 50.6502C32.6485 45.7794 25.6284 44.1871 20.662 44.9099C18.6607 45.2032 16.6071 45.926 15.3288 47.4973C14.2706 48.7962 13.8829 50.5141 13.6 52.1691C13.4743 52.9338 13.3695 53.7823 13.7781 54.4422C14.1868 55.1021 15.3079 55.3221 15.706 54.6517C15.8842 54.3479 15.8527 53.9603 15.8422 53.6147C15.5489 42.0607 33.3819 46.6697 32.5227 56.1077C32.4494 56.9248 32.1246 57.6999 31.7998 58.4541C29.8404 63.0212 25.9637 66.8132 21.1963 67.5046C17.6339 68.0178 9.93283 67.2217 10.1214 61.7747C10.1843 59.994 10.6767 58.2551 11.2006 56.5582C10.8968 57.5428 9.57659 58.4856 9.18891 59.6273C8.8641 60.591 8.93745 61.6281 8.49738 62.5394C6.39137 62.0575 4.11771 60.3187 3.6043 58.1294C3.24806 56.5896 3.35284 54.8088 3.59382 53.248C4.19105 49.3199 6.33898 45.6432 9.47181 43.192C5.68936 44.8156 3.52048 48.8066 2.07456 52.6614C1.76023 53.4994 1.46685 55.364 1.60306 56.9981C1.11061 56.3801 0.639116 55.7411 0.20953 55.0707C0.157142 54.9869 0.083798 54.9241 0.0104542 54.8717C-2.3542e-05 55.9297 0.0418872 56.9772 0.324785 58.0247C0.71246 59.4283 1.15252 60.8215 2.03265 62.0156C2.72418 62.9689 3.39475 63.9431 4.09675 64.8963C4.57873 65.5457 5.38551 65.9124 5.65793 66.7399C6.75809 67.2322 7.47057 68.2378 8.50786 68.8558C8.87458 69.0653 9.22034 69.3272 9.55563 69.5891C9.56611 69.5577 9.58706 69.5262 9.59754 69.4948C9.8071 69.5996 10.0062 69.7043 10.2052 69.8405C10.4462 70.0081 10.5615 70.1966 10.5824 70.3747C10.8444 70.5737 11.1168 70.7623 11.3892 70.9404C11.6407 71.0975 11.7979 71.2546 11.8817 71.4536C11.976 71.2756 12.0598 71.087 12.1017 70.888C14.7211 72.145 17.6863 72.8259 20.5886 72.6059L20.5782 72.564Z" fill="#F2CE97"/>
<path d="M71.6884 25.332C71.2064 25.332 70.7244 25.332 70.2424 25.2691C70.0853 25.2482 69.9176 25.2482 69.7605 25.2482C69.4461 25.2482 69.1318 25.2901 68.8175 25.332C68.1993 25.4262 67.5811 25.5624 66.9524 25.5729C66.7953 25.5729 66.6381 25.5729 66.481 25.5624C66.3238 25.751 66.1352 25.8243 65.9466 25.8557C65.9152 25.8557 65.8732 25.8662 65.8418 25.8767C65.6323 25.8976 65.4122 25.8767 65.2027 25.8871C65.1398 25.8871 65.0874 25.8872 65.0246 25.9081C64.9198 25.9186 64.8255 25.9395 64.7207 25.9814C63.7253 26.4004 62.6985 26.7252 61.8708 27.4689C61.8079 27.5213 61.6193 27.4584 61.5145 27.406C61.4621 27.3851 61.4307 27.228 61.4621 27.1651C61.6612 26.7356 61.9232 26.369 62.0384 25.8767C62.2165 25.091 62.447 24.274 62.8661 23.6036C63.6101 22.4094 63.6415 21.0477 63.9244 19.7593C63.9663 19.5707 63.9663 19.3822 63.9453 19.1936C62.9081 20.2411 62.007 21.2467 61.8393 21.6552C60.4668 24.9758 58.3607 27.3851 54.8507 28.3174C50.9844 29.3439 44.9388 30.2029 42.1622 26.6099C41.7012 26.0129 40.2658 23.0275 39.6895 25.1015C38.3379 30.0353 41.4288 37.0535 42.6128 41.8511C43.0528 43.6423 43.7444 45.6535 45.5151 46.9001C46.2695 47.4343 47.1287 47.7066 47.9983 47.7066C48.9413 47.7066 49.8843 47.3924 50.712 46.7639C52.3046 45.5383 52.9543 43.7261 53.5724 41.6625C53.7715 41.0026 53.9915 40.3217 54.243 39.6409C54.3059 40.4265 54.484 41.2016 54.7669 41.9244C54.9241 42.312 55.2489 42.5844 55.6365 42.6263C56.0137 42.6682 56.37 42.4901 56.6005 42.1549C58.0464 40.0284 60.0372 38.2686 62.3527 37.0745C64.6159 35.9013 67.3087 35.2937 70.7978 35.1576C77.8388 34.8747 82.7004 36.2365 86.0847 39.4628C88.3374 41.6102 89.9719 44.3442 91.4179 46.7534C91.6379 47.12 92.0675 47.2981 92.5075 47.2038L92.7276 47.1619V46.942C92.7066 46.8267 92.6857 46.722 92.6752 46.6068C92.6437 46.4706 92.6228 46.3344 92.6018 46.1878C92.5599 46.0306 92.518 45.863 92.4551 45.7164C92.3713 45.4964 92.3504 45.245 92.3189 44.9831C92.3189 44.8889 92.298 44.7946 92.2875 44.7003C92.078 44.0194 91.8894 43.4643 91.6798 42.9719C91.6798 42.951 91.6588 42.93 91.6588 42.9091C91.6274 42.8357 91.596 42.7624 91.5645 42.6891C91.5541 42.6577 91.5331 42.6367 91.5226 42.6053C91.4912 42.5424 91.4598 42.4796 91.4283 42.4063C91.4074 42.3748 91.3969 42.3434 91.3759 42.312C91.3445 42.2491 91.3131 42.1968 91.2817 42.1339C91.2607 42.1025 91.2397 42.0606 91.2188 42.0292C91.1873 41.9768 91.1559 41.9139 91.114 41.8616C91.093 41.8301 91.0721 41.7882 91.0407 41.7568C91.0092 41.7044 90.9673 41.6521 90.9359 41.5997C90.9149 41.5578 90.8835 41.5264 90.8521 41.4845C90.8102 41.4321 90.7787 41.3797 90.7368 41.3273C90.7054 41.2854 90.6739 41.2435 90.6425 41.2016C90.6006 41.1493 90.5692 41.1074 90.5273 41.055C90.4958 41.0131 90.4539 40.9712 90.412 40.9188C90.3701 40.8664 90.3282 40.8245 90.2863 40.7722C90.2444 40.7198 90.2024 40.6674 90.1501 40.615C90.1081 40.5731 90.0662 40.5208 90.0348 40.4789C89.9824 40.416 89.9195 40.3532 89.8672 40.2903C89.8357 40.2484 89.7938 40.217 89.7624 40.1751C89.6681 40.0703 89.5633 39.9656 89.4585 39.8504C88.9346 39.3057 88.3898 38.7924 87.9497 38.1429C87.6878 37.7658 87.4468 37.3783 87.2163 36.9907C86.9858 36.6031 86.7553 36.2051 86.5248 35.807C86.179 35.2204 85.8123 34.6443 85.3932 34.0996C85.257 33.9215 85.1103 33.7434 84.9531 33.5758C84.7645 33.3663 84.5759 33.1463 84.3873 32.9264C83.8215 32.2769 83.2662 31.617 82.5852 31.1142C81.265 30.14 79.9343 29.1868 78.7503 28.045C78.0798 27.406 77.4197 26.7671 76.55 26.3376C76.1519 26.1386 75.8375 25.8138 75.4079 25.6357C75.3346 25.6043 75.2613 25.5834 75.1879 25.5624C75.1146 25.5415 75.0307 25.531 74.9469 25.5205C74.8002 25.51 74.6431 25.4786 74.4964 25.4577C74.3497 25.4367 74.203 25.3948 74.0458 25.3634C73.742 25.3005 73.4381 25.2377 73.1238 25.2586C72.8828 25.2691 72.6418 25.2796 72.4008 25.2901C72.1599 25.2901 71.9189 25.311 71.6779 25.311L71.6884 25.332Z" fill="#F2CE97"/>
<path d="M79.2219 68.2482C77.5559 68.0596 75.9319 67.5254 74.4859 66.6245C73.0819 65.7551 71.8246 64.4143 71.4474 62.8116C71.8456 62.7488 72.2332 62.665 72.6209 62.5498C72.8724 62.466 73.0295 62.2984 73.1029 62.0993C73.1867 62.0889 73.26 62.0784 73.3439 62.0679C74.3078 61.8898 73.8992 60.4233 72.9352 60.6014C70.9026 60.968 68.8489 60.4024 67.0049 59.5853C65.318 58.8416 63.4739 57.9722 62.0489 56.778C59.3666 54.5259 58.8427 50.3882 59.6076 47.1515C60.0477 45.2869 60.9278 43.5585 62.2061 42.1339C62.8557 41.4111 61.787 40.3322 61.1269 41.055C61.0535 41.1283 60.9907 41.2121 60.9278 41.2854C60.8964 41.3064 60.8649 41.3169 60.8335 41.3483C57.6483 43.8728 55.8776 48.1047 56.37 52.1585C56.6319 54.3373 57.5016 56.4428 58.9999 58.056C60.5506 59.732 62.73 60.7795 64.7941 61.6594C66.3972 62.3403 68.105 62.8535 69.8234 62.9059C69.6138 65.4828 71.3531 67.9758 73.5953 69.2224C74.9993 69.9975 76.5605 70.406 78.1322 70.626C78.1322 70.5003 78.1112 70.3956 78.0588 70.3327C77.5454 69.809 77.9436 69.1909 77.7759 68.6567C78.3103 68.4891 78.677 68.2901 79.0542 68.2691C79.1066 68.2691 79.1485 68.2587 79.2009 68.2482H79.2219Z" fill="#F2CE97"/>
<path d="M49.2242 38.1116C47.3068 38.7192 45.1379 38.3316 43.5872 37.0327C43.5034 36.9593 43.4091 36.9384 43.3253 36.9384C43.1157 36.6346 42.5394 36.8336 42.6442 37.2526C42.99 38.5411 44.3311 39.2848 45.557 39.5257C46.9086 39.7981 48.3441 39.5467 49.5176 38.7925C49.8633 38.5725 49.6538 37.9649 49.2242 38.1011V38.1116Z" fill="#FEF3CD"/>
<path d="M65.6532 63.4402C64.6683 64.8543 62.9605 65.6818 61.2316 65.619C60.7392 65.598 60.7392 66.3627 61.2316 66.3837C61.3364 66.3837 61.4517 66.3837 61.5565 66.3837C61.6088 66.5303 61.7451 66.6141 61.9127 66.6351C63.8301 66.8446 65.7371 65.5666 66.3448 63.7439C66.4914 63.3145 65.8837 63.1154 65.6532 63.4506V63.4402Z" fill="#BC5800"/>
<path d="M53.8554 39.8713C52.7971 42.6472 50.01 45.2136 46.8353 44.2185C43.9015 43.2967 42.6757 40.1332 41.7641 37.4726C41.7641 37.4202 41.7641 37.3678 41.7641 37.3154C41.7641 37.0955 41.6069 36.9802 41.4393 36.9593C41.3659 36.9279 41.2821 36.9383 41.1983 36.9593C41.7327 38.7191 42.2775 40.3846 42.6337 41.8511C43.0738 43.6424 43.7653 45.6536 45.5361 46.9001C46.2905 47.4343 47.1496 47.7067 48.0193 47.7067C48.9623 47.7067 49.9053 47.3924 50.733 46.7639C52.3256 45.5383 52.9752 43.7262 53.5934 41.6626C53.7925 41.0027 54.0125 40.3218 54.264 39.6409C54.3059 40.0808 54.3792 40.5208 54.484 40.9398C54.5364 40.6151 54.5783 40.2903 54.6097 39.9761C54.6621 39.5152 54.002 39.5047 53.8658 39.8713H53.8554Z" fill="#E2AE6D"/>
<path d="M66.3028 80.3889C66.0933 80.2422 65.8104 80.3994 65.7475 80.6193C65.2969 82.0858 64.8359 83.6466 63.7986 84.8198C63.3062 85.375 62.6985 85.8464 61.9965 86.0873C61.3888 86.2968 60.7706 86.2758 60.1314 86.2654C59.1989 86.2444 58.0254 86.1606 57.3339 86.9148C56.9043 87.3757 56.9148 87.9519 56.81 88.5385C56.6843 89.3136 56.1499 89.8269 55.5422 90.2668C54.3687 91.1153 52.9961 91.9114 51.5816 92.278C50.8482 92.4666 50.0729 92.519 49.3499 92.278C48.6165 92.0371 48.1031 91.4505 47.4115 91.1258C46.7305 90.8115 46.0285 90.8849 45.3055 90.9372C44.4883 90.9896 43.6815 90.9582 42.8747 90.7906C41.3449 90.4868 39.9095 89.785 38.7255 88.7584C37.1539 87.3967 35.8127 85.4797 34.042 84.3589C34.7545 85.0503 35.0898 85.9826 35.4565 86.9148C35.6765 87.47 35.8546 88.0671 36.1375 88.5699C37.1434 90.3716 38.4531 91.9638 40.0248 93.3151C40.7268 93.9122 41.4392 94.5406 42.2565 94.9387C42.6547 95.1377 43.1261 95.2844 43.5557 95.452C44.1634 95.6929 44.8864 95.3682 45.4941 95.7977C45.6198 95.8815 45.8503 95.8186 46.0389 95.8081C47.6106 95.7453 49.1927 95.9548 50.7644 95.5567C51.8436 95.2739 52.9542 95.1063 53.9601 94.593C55.3327 93.8912 56.7471 93.3256 58.1721 92.7285C59.639 92.1104 61.043 91.3458 62.2689 90.2249C63.5157 89.0832 64.2492 87.6271 65.014 86.2235C65.7056 84.9665 66.5857 83.7095 66.4704 82.1173C66.4495 81.8973 66.7429 81.5726 66.9734 81.4469C67.0782 81.3945 67.2039 81.3526 67.3191 81.3212C67.0362 80.9755 66.701 80.6612 66.3133 80.3784L66.3028 80.3889Z" fill="#E2AE6D"/>
<path d="M21.123 74.0934C23.009 73.5906 24.8321 72.8468 26.54 71.8936C27.3677 71.4327 28.185 70.9299 28.9289 70.3433C29.589 69.83 30.1967 69.1282 30.0919 68.2378C30.0605 67.9655 29.7881 67.7455 29.5156 67.9131C26.5924 69.7462 23.1138 70.5109 19.6876 70.1757C17.9168 69.9976 16.1671 69.5158 14.5745 68.7406C13.0866 68.0179 11.6093 67.0123 10.8234 65.5143C9.75471 63.5031 10.5405 61.1148 10.3205 58.9465C10.2786 58.5484 9.69185 58.4018 9.57659 58.8417C9.02127 60.9786 8.78029 63.1679 8.84315 65.3677C4.13867 65.0115 1.71832 60.3082 0.0523682 56.3696C0.0942789 56.9143 0.1781 57.459 0.324788 58.0037C0.712463 59.4074 1.15253 60.8006 2.03265 61.9947C2.72418 62.9479 3.39475 63.9221 4.09676 64.8754C4.57873 65.5248 5.38551 65.8914 5.65793 66.719C6.75809 67.2113 7.47057 68.2169 8.50787 68.8349C9.50325 69.432 10.3834 70.2909 11.3997 70.909C11.8188 71.1604 12.0074 71.4118 11.9445 71.8517C11.8817 72.3231 11.6931 72.7945 11.6931 73.2554C11.6931 73.6534 11.6826 74.0515 11.6931 74.4495C14.7735 75.0571 18.0321 74.9314 21.144 74.1039L21.123 74.0934Z" fill="#E2AE6D"/>
<path d="M93 52.9443C92.9686 51.4254 93 49.9065 93 48.3877C93 47.8534 92.9581 47.3506 92.7485 46.8374C92.5599 46.366 92.6438 45.8318 92.4866 45.287C92.0989 43.9358 91.7951 43.0454 91.3655 42.2598C92.1932 46.4707 92.8952 51.4254 89.6262 54.7879C88.9451 55.4793 88.1279 56.0449 87.1954 56.3487C86.8496 56.4639 86.441 56.4953 86.1476 56.7153C85.8018 56.9877 85.7599 57.3857 85.7599 57.7942C85.7494 60.0987 85.4875 62.3823 84.3454 64.4249C83.371 66.1743 81.747 67.6198 79.8086 68.175C77.1682 68.3321 74.5174 67.5465 72.3799 65.9648C72.0761 65.7448 71.636 66.1847 71.856 66.4885C73.4067 68.573 75.7118 69.4844 78.1531 69.8091C78.216 69.83 78.2684 69.8405 78.3312 69.851C78.3312 69.7881 78.3103 69.7253 78.2893 69.6624C78.8237 69.4948 79.1904 69.2958 79.5676 69.2749C81.265 69.1911 82.5957 68.2902 83.9054 67.3894C85.4456 66.3314 86.7029 64.9277 88.0021 63.5869C88.5156 63.0527 88.9556 62.4242 89.3957 61.8166C90.412 60.4235 91.135 58.8627 91.8998 57.3229C92.5914 55.9297 93.021 54.5051 93 52.9338V52.9443Z" fill="#E2AE6D"/>
<path d="M11.2006 28.6841C15.4022 28.4955 19.6247 30.0668 22.6527 33.0103C22.9461 33.3036 23.5119 32.9055 23.25 32.5494C20.9449 29.3859 19.9181 25.4682 20.0333 21.582C20.1067 19.2984 20.5572 17.0568 21.2906 14.8989C20.9239 15.4855 20.5782 16.0826 20.2533 16.7006C19.5199 18.0938 18.8703 19.5394 18.3255 21.0163C17.7282 22.64 17.1415 24.295 17.1939 26.0758C17.2043 26.6205 17.1939 27.1652 17.1939 27.7937C16.5442 27.7937 15.9575 27.7937 15.3707 27.7937C14.8154 27.7937 14.2077 27.6575 13.7362 27.8461C13.0866 28.1079 12.3741 28.1079 11.7559 28.4012C11.5673 28.4955 11.3892 28.5898 11.2111 28.6841H11.2006Z" fill="#E2AE6D"/>
<path d="M82.6061 31.1352C81.2859 30.161 79.9553 29.2078 78.7713 28.066C78.1007 27.4271 77.4406 26.7881 76.571 26.3586C76.0366 26.0967 75.6489 25.5939 74.9679 25.5416C74.3602 25.4892 73.7839 25.2378 73.1448 25.2692C72.1808 25.3216 71.2064 25.3635 70.2424 25.2692C68.9642 25.133 67.7487 25.6777 66.4809 25.5625C65.999 26.1177 65.3074 25.7301 64.7207 25.9815C63.7253 26.4005 62.6985 26.7252 61.8708 27.469C61.8079 27.5213 61.6193 27.4585 61.5145 27.4061C61.4726 27.3852 61.4516 27.2804 61.4621 27.2071C61.1792 27.3852 60.9068 27.5423 60.6239 27.668C60.3305 28.307 60.0686 28.9459 59.8695 29.5849C59.5866 30.5067 59.398 31.4495 59.1046 32.3608C58.8217 33.2617 58.3922 34.0787 57.9311 34.9062C57.1139 36.3623 56.2861 37.7973 56.1185 39.4838C56.0871 39.8505 56.5376 39.9343 56.7681 39.7562C59.3247 37.7554 60.2991 34.5396 61.9127 31.8475C61.9546 31.7742 61.9965 31.7114 62.0384 31.6485C62.1537 31.6799 62.2794 31.6695 62.3842 31.5542C63.7882 30.0458 65.6008 28.9878 67.6125 28.4746C69.7395 27.9403 71.856 28.1394 73.9306 28.8307C76.3509 29.6373 78.7294 30.601 81.1183 31.4914C82.1241 31.8685 83.1195 32.2351 84.1254 32.6122C83.6539 32.0675 83.1719 31.5438 82.6166 31.1352H82.6061Z" fill="#E2AE6D"/>
<path d="M31.3388 83.4475C31.2235 83.4475 31.1187 83.4265 31.0035 83.4265C30.7415 83.4265 30.6263 83.636 30.6368 83.8455C30.5215 83.5313 29.9976 83.4475 29.9243 83.8455C29.8928 84.0236 29.8928 84.1807 29.9243 84.3169C30.4062 84.0445 30.8777 83.7408 31.3388 83.437V83.4475Z" fill="#E2AE6D"/>
<path d="M34.2202 49.6865C33.2248 48.2409 31.7055 47.2353 29.9662 47.0153C29.9138 47.0153 29.8824 46.9944 29.851 46.9944C29.7986 46.9944 29.7462 46.9944 29.7043 47.0153C29.3271 46.9315 29.0442 47.4867 29.4319 47.7067C30.8778 48.5133 32.0199 49.7493 32.7533 51.2263C33.1095 51.9386 33.3505 52.7033 33.4972 53.4889C33.6439 54.3164 33.5496 55.1021 33.5496 55.9296C33.5496 56.5267 34.0211 57.239 34.7126 56.9561C35.0689 56.8095 35.1422 56.4324 35.2156 56.0972C35.3203 55.6572 35.3832 55.2068 35.4251 54.7564C35.5823 53.0071 35.2365 51.153 34.2306 49.6969L34.2202 49.6865Z" fill="#E2AE6D"/>
<path d="M55.5422 34.8224C53.2162 35.608 50.7644 35.9223 48.3126 35.6813C46.4057 35.4928 44.3311 34.8538 43.2519 33.1569C42.99 32.7483 42.3299 33.1254 42.5918 33.5444C42.5709 33.6806 42.5918 33.8063 42.7071 33.9111C43.7339 34.8852 44.7921 35.8594 45.9447 36.6765C47.0658 37.4621 48.3022 37.7868 49.6643 37.7135C50.8797 37.6506 52.1475 37.4516 53.3105 37.1269C54.3792 36.8231 55.3327 36.3203 55.9614 35.388C56.1395 35.1157 55.8356 34.7281 55.5318 34.8329L55.5422 34.8224Z" fill="#E2AE6D"/>
<path d="M52.86 34.2044C48.5746 35.1996 44.7398 33.2931 41.7432 30.3811C41.4393 31.1667 42.267 32.6332 42.7071 33.2826C44.656 36.1528 48.166 36.4775 51.3617 36.1004C55.0289 35.6605 58.6646 33.4398 59.5448 29.6373C58.1931 31.9418 55.668 33.555 52.86 34.2149V34.2044Z" fill="#FEF3CD"/>
</g>
<defs>
<clipPath id="clip0_72_52">
<rect width="93" height="96" fill="white"/>
</clipPath>
</defs>
</svg>
