<svg width="93" height="70" viewBox="0 0 93 70" fill="none" xmlns="http://www.w3.org/2000/svg">
<g clip-path="url(#clip0_72_54)">
<path d="M36.5152 57.2757C35.8935 58.1904 35.2719 59.0098 34.765 59.8863C33.9999 61.2107 32.8139 62.1348 31.7236 63.1162C30.7481 63.9927 29.4761 64.5358 28.4336 65.3552C27.372 66.1936 25.9948 66.3556 24.9237 67.1273C24.1681 66.9463 23.5178 67.4322 22.7813 67.4227C21.0885 67.3941 19.3861 67.4417 17.6933 67.4036C17.0238 67.3846 16.3639 67.194 15.6849 67.1464C15.025 67.0988 14.3364 67.2607 13.7147 67.1083C12.3757 66.7939 10.9794 66.8129 9.66914 66.2984C8.14847 65.7077 6.69475 65.0217 5.36535 64.0404C4.33245 63.2686 3.39518 62.4397 2.69701 61.344C1.73105 59.8291 0.91811 58.1999 0.497295 56.4849C0.105173 54.8938 -0.0956706 53.1788 0.210376 51.5496C0.449475 50.2538 0.439911 48.9104 0.994621 47.6528C1.52064 46.4618 1.75974 45.1661 2.30488 43.9656C2.65875 43.1843 2.93611 42.3459 3.28997 41.5551C4.05509 39.821 5.24102 38.4586 7.00079 37.6392C8.02414 37.1628 9.01879 36.5912 10.0613 36.1434C11.142 35.6765 12.0123 34.9048 12.9209 34.2188C13.3513 33.8948 13.6764 33.1707 13.7051 32.6086C13.7434 31.8654 14.059 31.027 13.466 30.3315C13.5999 29.4263 13.2365 28.5022 13.6573 27.5875C13.8199 27.235 13.7243 26.7681 13.7434 26.3584C13.8008 25.2246 13.686 24.0909 13.9921 22.9475C14.4129 21.4041 15.7423 20.0988 17.2916 20.0702C18.0472 20.0511 18.7932 20.0702 19.6826 20.0702C19.6826 18.8125 19.5774 17.5549 19.7017 16.3163C19.9408 13.9439 20.266 11.562 21.8441 9.59927C22.0067 9.39919 22.1405 9.16099 22.2171 8.91327C22.5327 7.94145 23.0874 7.16018 23.8334 6.47419C24.2255 6.11214 24.4742 5.59765 24.8472 5.21654C26.3487 3.69211 28.0606 2.42493 29.8874 1.3483C30.7386 0.852866 31.7428 0.557508 32.7279 0.376483C33.7512 0.185929 34.8128 0.128763 35.8648 0.0811247C36.9456 0.0334864 38.055 -0.0617903 39.1166 0.10018C40.5894 0.319317 42.0814 0.614674 43.2578 1.70083C43.583 2.00571 43.9751 2.24391 44.3385 2.50115C44.6637 2.73934 45.0558 2.91084 45.3045 3.2062C45.7635 3.74928 46.2035 4.32094 46.5478 4.94024C47.0069 5.77867 47.5137 6.579 47.7433 7.55082C48.0302 8.77036 49.1587 9.22769 50.2012 9.61832C50.8133 9.84699 51.5306 9.8184 52.2001 9.93274C52.5922 9.99943 52.9652 10.1519 53.3573 10.1995C53.7303 10.2471 54.1607 10.0947 54.4763 10.2281C55.2701 10.5901 56.1309 10.9427 56.7525 11.5239C57.9672 12.6576 59.2774 13.7343 60.1764 15.173C60.3868 15.5064 60.5877 15.8494 60.7025 16.221C61.0563 17.3357 61.3815 18.4505 61.2859 19.651C61.238 20.2417 61.2859 20.8514 61.2859 21.4993C62.2231 21.2135 63.0552 20.9562 63.8873 20.7276C64.1455 20.6514 64.4228 20.6418 64.7002 20.6418C66.393 20.6418 68.0954 20.6133 69.7882 20.6418C70.3621 20.6514 70.9359 20.8324 71.5097 20.9086C72.0453 20.9753 72.6287 20.7371 73.0878 21.1944C74.4172 21.1277 75.6127 21.6137 76.8464 22.0233C78.0132 22.4045 79.1035 22.9475 80.2608 23.3382C81.6762 23.8241 83.0152 24.491 84.2011 25.4247C84.4498 25.6248 84.708 25.8058 84.9375 26.025C85.6835 26.7491 86.3721 27.5208 87.1468 28.2068C88.3328 29.2453 89.117 30.6078 90.1021 31.7987C90.8289 32.6848 91.5654 33.5899 92.1488 34.5999C92.5983 35.3811 92.9713 36.1624 92.9713 37.0866C92.9713 39.8115 93.0669 42.5364 92.933 45.2613C92.8469 47.0621 92.5505 48.8628 91.6993 50.5206C91.3263 51.2542 91.2593 52.1117 90.8003 52.8263C90.7333 52.9406 90.7429 53.1884 90.8194 53.2932C91.1254 53.6743 91.0394 54.1316 90.9628 54.4936C90.6759 55.7704 90.389 57.0375 89.9012 58.2761C89.2318 59.9721 88.4953 61.6394 87.8737 63.3639C87.5485 64.269 87.1277 64.4596 86.2861 64.069C85.3488 65.0027 84.4402 65.9459 83.4838 66.851C82.1736 68.0896 80.5286 68.7851 78.874 69.3568C77.9941 69.6617 76.9899 69.6331 76.0335 69.6617C74.5702 69.7093 73.1069 69.7474 71.6532 69.6522C70.7064 69.5855 69.8647 70.0142 68.937 69.9666C67.9998 69.9189 67.0434 69.8713 66.1157 69.9856C65.2549 70.0809 64.5185 69.6236 63.6864 69.6712C62.8352 69.7189 61.9553 69.8237 61.152 69.6331C60.4729 69.4711 59.8034 69.4807 59.1435 69.3759C58.5027 69.2806 57.8811 69.0329 57.2499 68.8328C56.6282 68.6327 55.9874 68.4517 55.404 68.1754C54.6963 67.8324 54.0077 67.4322 53.3573 66.9844C52.0088 66.0698 50.5647 65.3266 49.1205 64.593C48.7284 64.3929 48.3649 64.3262 47.9537 64.3262C47.1025 64.3262 46.2513 64.2881 45.4097 64.3357C44.2524 64.4119 43.1813 64.0308 42.1388 63.6783C40.8764 63.24 39.853 62.354 39.2983 61.1154C39.0879 60.6485 38.5619 60.3627 38.5906 59.6862C38.6097 59.3051 38.0837 58.8764 37.7489 58.5143C37.3759 58.0951 36.9551 57.714 36.5247 57.2757H36.5152Z" fill="#FEF3CD"/>
<path d="M36.4961 51.9306C36.6587 51.8353 36.8213 51.7496 36.9839 51.6543C36.6587 51.6734 36.5152 51.7782 36.4961 51.9306Z" fill="#F2CE97"/>
<path d="M92.9713 37.0865C92.9713 36.1623 92.5983 35.381 92.1488 34.5998C91.5654 33.5898 90.829 32.6847 90.1021 31.7986C89.117 30.6077 88.3328 29.2452 87.1469 28.2067C86.3722 27.5302 85.674 26.749 84.9376 26.0249C84.708 25.8057 84.4498 25.6152 84.2012 25.4246C83.35 24.7577 82.4318 24.2337 81.4563 23.8145C82.2023 25.4342 82.7761 27.1396 83.1874 28.8736C83.1109 28.988 83.0822 29.1309 83.1013 29.2929C83.1969 30.1789 83.1969 31.065 83.1013 31.9416C83.0152 32.3227 82.8909 32.6942 82.7283 33.0563C82.2119 33.2754 81.7337 33.5898 81.3033 33.9233C77.3629 36.9722 75.0676 42.0599 75.3832 47.0239C75.4597 48.1672 75.6988 49.4344 76.2344 50.4919C76.2344 51.1589 76.2344 51.8258 76.2344 52.4832C76.1579 53.1216 76.0144 53.7504 75.804 54.3602C74.4555 55.694 72.9731 56.885 71.3663 57.8949C69.6926 58.9525 67.885 59.8386 65.9531 60.2864C64.0403 60.7342 62.0606 60.7532 60.0904 60.7151C52.2001 60.5722 43.6978 59.3145 38.0455 53.8171C37.376 53.1692 36.4196 52.3498 36.4674 51.9211C32.4984 54.1506 28.3189 56.1514 23.8143 56.7707C19.1279 57.409 13.9921 56.3419 10.6543 52.9977C10.0517 52.3879 9.49703 51.7115 8.77973 51.2351C7.92854 50.673 6.86694 50.4157 6.14007 49.6916C5.18368 48.7388 5.08804 47.2525 5.04978 45.9091C4.98283 43.6606 4.91589 41.4025 4.84894 39.154C4.18903 39.84 3.66301 40.6498 3.25176 41.5645C2.89789 42.3553 2.62054 43.1937 2.26667 43.975C1.72152 45.1755 1.48242 46.4713 0.956405 47.6622C0.401695 48.9199 0.420823 50.2633 0.17216 51.559C-0.133887 53.1883 0.0765205 54.9032 0.459079 56.4944C0.879894 58.2093 1.69283 59.8386 2.65879 61.3535C3.35696 62.4492 4.29423 63.2685 5.32714 64.0498C6.65653 65.0407 8.10069 65.7171 9.63092 66.3079C10.9412 66.8128 12.3375 66.8033 13.6765 67.1177C14.2981 67.2606 14.9963 67.1082 15.6467 67.1558C16.3161 67.2035 16.9856 67.4035 17.6551 67.4131C19.3479 67.4512 21.0503 67.4131 22.7431 67.4321C23.4795 67.4417 24.1395 66.9557 24.8854 67.1368C25.9566 66.365 27.3338 66.2031 28.3954 65.3646C29.4379 64.5452 30.7099 64.0022 31.6854 63.1256C32.7757 62.1443 33.9616 61.2106 34.7268 59.8957C35.2337 59.0192 35.8553 58.1998 36.477 57.2852C36.9073 57.7139 37.3282 58.095 37.7012 58.5238C38.0263 58.8953 38.5523 59.3241 38.5428 59.6957C38.5141 60.3721 39.0305 60.6484 39.2505 61.1248C39.8052 62.3539 40.8286 63.2495 42.091 63.6877C43.1335 64.0498 44.2047 64.4214 45.3619 64.3452C46.2035 64.288 47.0547 64.3452 47.9059 64.3356C48.3172 64.3356 48.6806 64.4023 49.0727 64.6024C50.5264 65.336 51.961 66.0792 53.3096 66.9939C53.9599 67.4417 54.6485 67.8418 55.3562 68.1848C55.9396 68.4706 56.5804 68.6421 57.2021 68.8422C57.8237 69.0423 58.4454 69.29 59.0957 69.3853C59.7652 69.4901 60.4251 69.4806 61.1042 69.6425C61.9076 69.8331 62.797 69.7188 63.6386 69.6807C64.4707 69.6425 65.2071 70.0999 66.0679 69.9951C66.9956 69.8903 67.952 69.9379 68.8893 69.976C69.817 70.0237 70.6586 69.5949 71.6054 69.6616C73.0591 69.7569 74.532 69.7188 75.9857 69.6711C76.9421 69.6425 77.9463 69.6711 78.8262 69.3662C80.4808 68.7851 82.1258 68.0991 83.436 66.8605C84.3924 65.9553 85.3106 65.0026 86.2383 64.0784C87.0799 64.469 87.5007 64.2689 87.8259 63.3733C88.4476 61.6584 89.184 59.9815 89.8535 58.2856C90.3412 57.047 90.6281 55.7798 90.9151 54.5031C90.9916 54.141 91.0777 53.6837 90.7716 53.3026C90.6951 53.1978 90.6855 52.9501 90.7525 52.8357C91.202 52.1212 91.2689 51.2637 91.6515 50.53C92.5027 48.8722 92.7992 47.0715 92.8852 45.2708C93.0096 42.5554 92.9139 39.8209 92.9235 37.096L92.9713 37.0865Z" fill="#F2CE97"/>
<path d="M22.4275 29.5788C19.7592 28.1115 17.1482 27.6923 16.4692 24.2719C16.1727 22.776 16.9665 21.4041 17.3969 20.0797C17.3586 20.0797 17.3299 20.0797 17.2917 20.0797C15.7423 20.1083 14.4129 21.4136 13.9921 22.9571C13.6861 24.1004 13.8008 25.2342 13.7434 26.368C13.7243 26.7777 13.8104 27.2445 13.6478 27.597C12.9496 29.1024 13.7817 31.0461 13.6956 32.6086C13.6669 33.1707 13.3418 33.8853 12.9114 34.2188C11.9932 34.9048 11.1325 35.686 10.0517 36.1434C9.00927 36.5912 8.02419 37.1533 6.99128 37.6392C5.23151 38.4586 4.05514 39.821 3.28046 41.5551C3.23264 41.6599 3.19438 41.7552 3.15613 41.86C4.66723 42.041 6.20703 41.8219 7.55555 41.0978C8.66497 40.507 9.6118 39.6686 10.6256 38.9445C11.9454 38.0013 13.3991 37.2486 14.9389 36.715C17.3969 35.8575 20.1322 35.5717 22.5901 36.4292C25.048 37.2772 27.1426 39.4114 27.4773 41.9838C27.3625 39.6495 27.2478 37.2867 26.5496 35.0572C25.8514 32.8277 24.4933 30.7031 22.4371 29.5788H22.4275Z" fill="#F2CE97"/>
<path d="M62.3666 21.1754C62.0128 21.2802 61.6589 21.3945 61.2763 21.5089C61.2763 20.8515 61.2381 20.2512 61.2763 19.6605C61.372 18.46 61.0468 17.3453 60.6929 16.2305C60.5782 15.859 60.3773 15.516 60.1669 15.1825C59.2679 13.7438 57.9576 12.6767 56.743 11.5334C56.2552 11.0761 55.6336 10.7617 55.0024 10.4758C56.5613 14.1821 57.2499 18.2599 56.9439 22.2806C56.8578 23.3858 56.6856 24.5387 55.9779 25.3962C55.2797 26.2537 53.9025 26.6443 53.0322 25.9583C53.7112 20.6609 49.3118 15.2492 43.9656 14.8109C40.293 14.506 35.9796 16.2305 33.1774 18.5839C31.6759 19.8415 30.3847 21.6232 29.4953 23.3477C29.1127 24.0909 28.3093 28.3212 27.9077 28.5498C30.7768 26.9301 33.6556 25.3104 36.5248 23.6907C38.1698 22.757 39.9678 21.7947 41.8424 22.0138C44.635 22.3283 46.4331 25.0341 47.839 27.4637C50.6795 32.3895 53.5869 37.4963 54.2755 43.1367C54.2564 39.2875 54.4094 35.0096 57.1064 32.2561C57.9959 31.3605 59.1053 30.684 59.9374 29.7408C61.5537 27.9019 61.8884 25.3009 62.1562 22.8713C62.2136 22.3092 62.2805 21.7471 62.3284 21.1754H62.3666Z" fill="#F2CE97"/>
<path d="M40.1113 29.6931C44.2811 29.1881 47.9059 32.7419 49.6848 36.5435C51.4541 40.345 52.1045 44.6229 54.2277 48.2435C60.7025 46.6333 68.0476 49.4916 71.701 55.0462C71.7584 51.3018 71.175 46.8048 67.7894 45.166C66.2687 44.4324 64.4994 44.4705 62.8065 44.5277C59.9374 44.6229 57.0777 44.7278 54.2085 44.823C52.1332 40.0497 50.0578 35.2858 47.9824 30.5125C46.433 26.9396 44.1951 22.8427 40.3025 22.4711C36.9456 22.1472 34.0381 24.9102 32.4792 27.8924C30.9394 30.8364 29.3518 35.9051 30.8151 39.0016C34.918 38.2013 34.1912 30.3981 40.1017 29.6836L40.1113 29.6931Z" fill="#F2CE97"/>
<path d="M72.6574 55.0272C73.9581 49.2534 72.7722 42.9747 69.4631 38.0584C68.8318 37.1151 68.0476 36.1719 66.9477 35.8861C66.0966 35.6574 65.188 35.867 64.3272 36.0861C60.253 37.0866 57.2499 38.1251 54.0268 40.8023C54.4476 37.4391 54.7346 33.609 52.4679 31.0841C51.961 30.522 51.3489 30.0456 50.9759 29.3882C50.5647 28.645 50.5264 27.7685 50.4499 26.9205C50.2299 24.148 49.5796 21.2897 47.8007 19.1364C46.0218 16.9832 42.8944 15.7636 40.3312 16.8784C39.4609 17.2595 38.6862 17.8788 37.7681 18.136C36.7256 18.4314 35.5971 18.2218 34.5259 18.4028C31.0829 18.9745 29.5813 23.0047 26.9321 25.2722C26.2148 25.8915 25.3732 26.3965 24.8472 27.1873C24.2064 28.1496 24.1299 29.3882 24.2159 30.541C24.5985 35.3239 27.6877 39.8019 32.0297 41.879C30.9394 37.0199 30.8438 32.8849 34.1338 29.131C35.9701 27.0444 38.7723 26.0535 41.5172 25.5676C42.5692 25.3866 43.6882 25.2627 44.6828 25.6629C46.1174 26.2345 46.9495 27.7113 47.6285 29.1024C50.5073 34.9905 52.7835 41.1644 54.4094 47.5098C57.6898 45.6043 61.898 45.3947 65.3506 46.9668C68.8032 48.5388 71.9306 51.3209 72.6287 55.0367L72.6574 55.0272Z" fill="#D47601"/>
<path d="M73.1644 50.835C73.0974 50.7207 73.04 50.6064 72.9635 50.492C72.9253 50.3396 72.8966 50.1872 72.8679 50.0252C73.107 49.7965 73.2313 49.4249 73.0592 49.0629C72.8392 48.6056 72.5905 48.1578 72.3419 47.71C72.0071 46.4714 71.5576 45.2709 70.7638 44.2133C70.4099 43.7464 70.0178 43.3463 69.5874 43.0033C69.0614 42.3078 68.4206 41.7171 67.6268 41.3074C67.4929 41.2407 67.3495 41.174 67.2156 41.1168C66.6896 40.6595 66.1253 40.2593 65.4941 39.9354C65.341 39.8592 65.1784 39.7925 65.0254 39.7258C64.0212 39.2684 62.9309 39.0398 61.7928 39.1446C60.7503 39.2399 59.7748 39.5638 58.8471 40.0021C58.1872 40.2688 57.5368 40.5928 56.8961 40.9453C56.3605 41.1835 55.8536 41.4884 55.3658 41.8409C55.2797 41.9076 55.2224 41.9457 55.1745 41.9838C55.0598 42.0696 54.9928 42.1839 54.9546 42.2887C54.8589 41.9838 54.7537 41.6694 54.6485 41.3741C54.5624 41.0882 54.4764 40.8024 54.3712 40.5261C54.266 40.6118 54.1608 40.6976 54.0556 40.7833C54.0938 40.507 54.1225 40.2307 54.1512 39.9449C53.9695 39.4971 53.7495 39.0493 53.52 38.6206C53.1757 37.7345 52.8027 36.8579 52.4201 35.9814C51.6263 33.0278 50.4691 30.16 48.9675 27.5018C48.1737 26.0917 47.2843 24.7387 46.2992 23.4525C46.2322 23.3668 46.1653 23.2715 46.0983 23.1762C45.8497 22.5093 45.5341 21.8519 45.1037 21.3278C45.1037 21.2897 45.1037 21.2421 45.0846 21.204C45.0272 21.0134 44.9028 20.8324 44.7307 20.7371C44.6255 20.68 44.5012 20.6418 44.3768 20.6323C44.109 20.4513 43.803 20.3084 43.4587 20.2226C42.7701 20.0511 42.1389 20.1655 41.5459 20.4132C41.3259 20.4227 41.1346 20.4894 40.9816 20.6418C40.8477 20.6895 40.7138 20.7371 40.5895 20.7848C39.7574 21.0896 38.9445 21.4136 38.122 21.7566C36.4866 22.4426 34.8798 23.1762 33.3113 24.0051C31.915 24.7483 30.5856 25.6248 29.6292 26.9111C28.8067 28.0163 28.3572 29.3216 28.185 30.6745C27.7833 33.9329 28.9501 37.239 30.1743 40.2022C30.2987 40.4975 30.5378 40.65 30.796 40.6976C30.8725 40.8977 30.9681 41.0978 31.0542 41.2978C31.389 41.4979 31.7237 41.6789 32.0776 41.8504C30.9873 36.9913 30.8916 32.8563 34.1816 29.1024C36.0179 27.0159 38.8202 26.025 41.565 25.5391C42.6171 25.358 43.736 25.2342 44.7307 25.6343C46.1653 26.206 46.9974 27.6828 47.6764 29.0738C50.5551 34.9619 52.8314 41.1359 54.4572 47.4813C55.2797 47.0049 56.1501 46.6333 57.0682 46.3666C57.1352 46.3189 57.1925 46.2618 57.2595 46.2141C57.3456 46.2236 57.4316 46.2427 57.5177 46.2522C60.1287 45.6043 62.9596 45.8235 65.408 46.9382C68.8032 48.4817 71.8732 51.1971 72.6383 54.8176C72.6575 54.8462 72.6766 54.8748 72.7053 54.9033C73.0018 53.5599 73.1548 52.188 73.1931 50.816L73.1644 50.835Z" fill="#9E513E"/>
<path d="M43.2004 5.30226C41.8806 3.25382 39.1453 2.54877 36.8595 2.32963C31.8863 1.85325 26.913 4.15894 24.1012 8.26537C22.571 10.5139 21.7006 13.2388 21.6719 15.9637C21.6719 16.6307 21.5476 17.5739 22.1215 18.0217C22.5614 18.3742 23.1544 18.5457 23.7091 18.5838C24.6368 18.6601 25.5358 18.3266 26.2053 17.7168C27.0278 17.4215 27.7546 16.7926 28.3667 16.221C30.2508 14.4679 32.5079 13.3436 35.1284 13.3246C37.4621 13.3055 40.1782 14.2106 42.091 12.3813C43.8125 10.733 44.5203 7.33166 43.2004 5.28321V5.30226Z" fill="#FDFCF1"/>
<path d="M78.7975 25.4246C78.0706 24.5481 76.9804 24.0336 75.8996 23.7097C74.465 23.2809 72.9157 23.1761 71.4237 23.0808C69.6735 22.9665 67.9137 22.957 66.1635 23.0427C65.8288 22.4329 64.6907 22.5568 64.7002 23.4143C64.7289 27.4636 62.8831 31.3127 59.7461 33.8757C58.981 34.5236 60.0808 35.6002 60.8459 34.9714C62.7874 33.3231 65.4462 32.5704 67.9807 32.9039C70.6299 33.2564 73.1835 35.6002 75.9379 34.6665C78.2524 33.8852 79.1609 31.3127 79.5148 29.1214C79.7252 27.7875 79.687 26.5013 78.7879 25.4151L78.7975 25.4246Z" fill="#FDFCF1"/>
<path d="M23.9195 40.7356C21.978 38.5728 18.8601 38.6109 16.2396 39.2493C14.2121 39.7447 11.5055 40.8309 10.9125 43.0699C10.7308 43.3557 10.5682 43.6415 10.4439 43.956C9.93696 45.185 10.243 46.557 11.4481 47.2335C12.5479 47.8528 13.9634 47.8242 15.178 47.9385C17.9611 48.2053 21.2224 48.8627 23.6039 46.9953C25.6697 45.3661 25.5932 42.6126 23.9099 40.7356H23.9195Z" fill="#FDFCF1"/>
<path d="M91.7949 50.5396C92.3209 48.8151 92.8469 47.1001 92.933 45.2518C93.0574 42.5364 92.9617 39.8019 92.9713 37.077C92.9713 36.1529 92.5983 35.3716 92.1488 34.5903C91.5654 33.5804 90.8289 32.6753 90.1021 31.7892C89.7004 31.3033 89.337 30.7983 88.964 30.2933C89.8056 33.4375 90.4273 36.6388 90.3794 39.8972C90.3221 43.8512 89.184 48.0243 86.4869 51.0255C85.081 52.5881 83.3021 53.5694 81.5423 54.6746C79.6774 55.8465 78.2045 57.19 77.1812 59.1527C76.2056 61.0105 75.1919 62.6493 73.4512 63.8879C71.8349 65.0408 69.9795 65.7934 68.0476 66.2031C62.6439 67.3655 57.1064 65.6886 51.9514 64.1642C51.655 64.0784 51.4159 64.1642 51.2437 64.3166C50.6699 63.764 50.1534 63.1733 49.5987 62.5921C48.0493 61.001 45.8879 61.0296 43.8316 60.8676C42.9326 60.8009 41.7849 60.6104 41.0868 59.9816C40.4747 59.429 40.3312 57.5425 39.633 57.4948C38.1985 53.3312 37.9689 48.758 39.1453 44.4705C39.394 43.5654 38.2271 43.2129 37.7203 43.8703C35.5014 46.7857 36.1135 50.6159 35.3771 53.9887C34.9754 55.7989 34.0955 57.3043 32.5844 58.419C30.9394 59.629 28.9597 60.4294 27.0182 61.0201C23.0013 62.2587 18.6306 62.4683 14.585 61.2392C11.1324 60.1912 7.93807 58.1141 5.75749 55.2368C2.98394 51.5877 2.03711 46.7762 3.1274 42.3363C3.16565 42.1839 3.15609 42.041 3.11783 41.9171C2.84048 42.5936 2.58225 43.2891 2.28577 43.9465C1.74062 45.147 1.50152 46.4427 0.975506 47.6337C0.420796 48.8913 0.439924 50.2348 0.191261 51.5305C-1.07118 58.2189 3.73949 63.9832 9.65002 66.2793C12.0219 67.2035 15.1302 67.3274 17.6742 67.3846C21.2415 67.4703 25.4306 67.7085 28.4241 65.3361C29.4666 64.5167 30.7386 63.9737 31.7141 63.0971C32.8044 62.1158 33.9903 61.182 34.7554 59.8672C35.2623 58.9907 35.884 58.1713 36.5056 57.2566C36.936 57.6854 37.3568 58.0665 37.7298 58.4952C38.055 58.8668 38.581 59.2956 38.5715 59.6671C38.5428 60.3436 39.0592 60.6199 39.2792 61.0963C39.8339 62.3254 40.8572 63.221 42.1197 63.6592C43.1622 64.0213 44.2333 64.3929 45.3906 64.3166C46.2322 64.2595 47.0834 64.3166 47.9346 64.3071C48.3458 64.3071 48.7093 64.3738 49.1014 64.5739C50.5551 65.3075 51.9897 66.0507 53.3382 66.9653C54.5815 67.8133 55.8153 68.3564 57.2307 68.8137C57.8524 69.0138 58.4741 69.2615 59.1244 69.3568C64.7193 70.2143 70.4099 69.8236 76.0239 69.6426C78.5871 69.5664 81.5806 68.6231 83.4743 66.8224C84.9089 65.4695 85.7887 64.9931 87.2807 64.0594C87.4911 63.926 87.6059 63.6973 87.7111 63.4687C89.0309 60.6294 90.3603 57.733 90.7811 54.6365C90.9724 53.2074 91.3741 51.864 91.7853 50.5206L91.7949 50.5396Z" fill="#E2AE6D"/>
<path d="M34.2103 42.7937C32.441 42.4316 30.7864 41.6408 29.4474 40.4213C28.1085 39.1922 27.1903 37.6011 25.7462 36.4768C24.9428 35.8575 24.0534 35.3621 23.1257 34.981C21.4233 33.9901 19.5296 33.4375 17.502 33.8567C17.2725 33.9044 17.1195 34.0282 17.0334 34.1807C16.9856 34.1807 16.9473 34.1807 16.8995 34.1902C15.1589 34.4284 13.4852 35.0572 12.0506 36.0767C11.2472 36.6483 12.0219 38.0013 12.8348 37.4201C15.6275 35.4383 19.3766 35.1049 22.5231 36.3911C23.9386 37.2772 25.2106 38.5158 26.3009 39.6019C27.0086 40.307 27.7355 41.0025 28.5006 41.6408C28.9884 42.0791 29.524 42.4697 30.0787 42.8127C31.1785 43.5178 32.3836 44.0513 33.7321 44.2705C33.7512 44.2705 33.7799 44.28 33.799 44.2895C33.866 44.2895 33.9329 44.3086 34.0095 44.3181C34.8798 44.4229 35.0711 42.9652 34.2199 42.7937H34.2103Z" fill="#E2AE6D"/>
<path d="M63.8968 20.7275C63.0456 20.9657 62.2136 21.223 61.2763 21.5088C61.2763 20.8514 61.2381 20.2512 61.2763 19.6604C61.2763 19.6319 61.2763 19.6128 61.2763 19.5842C60.779 22.5378 59.2201 25.3008 57.7185 27.8828C57.269 28.6546 58.3019 29.4168 58.9427 28.8261C59.2296 28.5593 59.4974 28.283 59.7652 28.0067C59.9374 28.0067 60.1095 27.9305 60.253 27.778C60.9416 27.0349 61.4772 26.1869 61.8693 25.2818C62.7492 23.8717 63.4282 22.3377 63.8968 20.7466V20.7275Z" fill="#E2AE6D"/>
<path d="M66.8521 53.5504C66.5461 52.8739 66.0583 52.3689 65.4749 51.9783C65.1975 51.721 64.901 51.5019 64.5854 51.3209C63.3421 50.6063 61.7928 50.1966 60.3773 50.0251C59.1627 49.8727 57.7281 49.9965 56.8578 50.9588C56.2935 51.5781 56.1118 52.3403 56.1883 53.1026C56.1022 53.4646 56.1022 53.8457 56.1883 54.2078C56.5613 55.7894 58.4262 56.4563 59.7843 56.9231C59.9182 56.9708 60.0426 57.0089 60.1764 57.0565C60.4634 57.1709 60.7503 57.2852 61.0276 57.3995C61.7736 57.6949 62.577 57.9045 63.3708 57.9331C63.8873 58.0855 64.4133 58.1427 64.9297 57.8473C65.0828 57.7616 65.2262 57.6473 65.3506 57.5139C65.4558 57.4567 65.5705 57.4091 65.6757 57.3519C67.0051 56.523 67.512 54.9795 66.8617 53.5504H66.8521Z" fill="#FDFCF1"/>
<path d="M41.8137 33.1326C41.7563 32.7801 41.3737 32.5895 41.0677 32.5609C39.6331 32.418 38.1794 33.1135 37.2325 34.1711C36.2283 35.2954 35.731 36.7817 36.0275 38.268C36.0753 38.5062 36.324 38.773 36.5726 38.8111C36.5917 38.8111 36.6109 38.8111 36.63 38.8111C36.7448 38.8968 36.8882 38.9445 37.0604 38.9445C37.3855 38.9254 37.7012 38.8778 38.0072 38.8016C38.275 38.8397 38.5524 38.8016 38.801 38.7158C39.5087 38.449 40.1017 37.8964 40.5608 37.3152C41.039 36.7055 41.412 36.0481 41.6511 35.3049C41.7563 34.9714 41.8424 34.5999 41.8424 34.2378C41.871 33.8758 41.8615 33.5042 41.8041 33.1231L41.8137 33.1326Z" fill="#FDFCF1"/>
<path d="M45.4671 34.6094C45.4479 34.5141 45.4097 34.4283 45.3714 34.3331C45.3523 34.295 45.3332 34.2473 45.3141 34.2092C45.2854 34.152 45.228 34.0758 45.1802 34.0377C45.1228 33.9806 45.0558 33.9329 44.9793 33.8853C44.8932 33.8281 44.7976 33.79 44.702 33.7614C44.4533 33.6661 44.1281 33.6757 43.889 33.7614C43.7647 33.8091 43.6308 33.8567 43.516 33.9424C43.4013 34.0187 43.2865 34.1044 43.2004 34.2092C43.0187 34.4188 42.8561 34.657 42.7892 34.9333C42.7127 35.2668 42.7413 35.6003 42.9039 35.9051C43.0283 36.1433 43.2482 36.3339 43.5065 36.4006C43.736 36.4577 43.9177 36.4482 44.1472 36.4196C44.1951 36.4196 44.2525 36.3911 44.3003 36.3815C44.329 36.3911 44.3577 36.4101 44.3959 36.4196C44.5011 36.4482 44.6063 36.4577 44.702 36.4292C44.8072 36.4292 44.9028 36.3911 44.9889 36.3339C45.1036 36.2672 45.1993 36.1719 45.2662 36.0576C45.3523 35.8956 45.4288 35.7146 45.4671 35.5336C45.5053 35.3525 45.5245 35.1525 45.5053 34.9714C45.4958 34.8571 45.4766 34.7332 45.4479 34.6189L45.4671 34.6094Z" fill="#FDFCF1"/>
<path d="M38.5428 48.6912C38.5906 48.5102 38.3515 48.3578 38.2176 48.5007C38.2081 48.5102 38.1985 48.5293 38.1889 48.5388C38.2846 47.9576 38.3802 47.3859 38.4758 46.8047C38.5141 46.557 38.1411 46.4522 38.1029 46.6999C38.0359 47.1096 37.969 47.5193 37.8924 47.929C37.7681 47.8718 37.596 47.9195 37.6151 48.091C37.6438 48.3673 37.6438 48.6341 37.6438 48.9104C37.5386 48.796 37.309 48.8627 37.309 49.0437C37.309 49.4249 37.309 49.8155 37.309 50.1966C36.9552 51.5114 37.1082 53.0168 36.9934 54.3507C36.9074 55.3892 36.7161 56.4086 36.4387 57.409C36.4674 57.3614 36.4961 57.3233 36.5248 57.2852C36.6204 57.3805 36.7065 57.4662 36.8022 57.552C37.0317 56.8183 37.1943 56.0752 37.3186 55.3225V55.4845C37.309 55.5416 37.3186 55.5797 37.3569 55.6178C37.3569 55.8274 37.3569 56.0371 37.3377 56.2371C37.2517 56.2371 37.1656 56.2752 37.156 56.3705C37.0891 56.7897 37.003 57.1994 36.9169 57.6187C37.1943 57.9331 37.4908 58.2189 37.7585 58.5143C38.0837 58.8858 38.6097 59.3146 38.6002 59.6862C38.5811 59.991 38.6863 60.2197 38.8297 60.4198C38.8775 56.5039 37.6247 52.5785 38.5619 48.6912H38.5428Z" fill="#D9943E"/>
</g>
<defs>
<clipPath id="clip0_72_54">
<rect width="93" height="70" fill="white"/>
</clipPath>
</defs>
</svg>
