<svg width="81" height="82" viewBox="0 0 81 82" fill="none" xmlns="http://www.w3.org/2000/svg">
<g clip-path="url(#clip0_72_50)">
<path d="M43.8519 58.606C43.6874 59.5157 43.5948 60.2312 43.42 60.916C43.2452 61.5804 43.3995 62.3163 42.8648 62.9091C42.433 63.3895 42.6695 64.1152 42.1965 64.6876C41.8264 65.1271 41.7955 65.8631 41.5693 66.4661C41.2403 67.3554 40.829 68.2037 40.4177 69.0419C39.7391 70.4319 38.9783 71.7811 38.1866 73.1099C37.2407 74.7146 36.1919 76.2478 34.8759 77.597C34.3001 78.1898 33.7757 78.7929 33.0868 79.2937C31.4726 80.4589 30.0228 81.1233 27.9973 81.2868C26.6196 81.3993 25.2521 81.5117 23.8538 81.4913C22.4246 81.4708 21.0468 81.2664 19.7308 80.9087C18.4764 80.5714 17.15 80.2034 16.1013 79.3141C15.4124 78.7418 14.4048 78.6191 13.8187 77.8627C12.2148 77.2393 10.981 76.074 9.68545 75.0417C8.17403 73.856 7.24866 72.2615 6.85796 70.34C6.62147 69.1543 6.57007 68.0504 6.6626 66.8647C6.80655 65.0863 6.75514 63.2873 6.36443 61.5395C6.16908 60.64 5.69611 59.7712 5.27456 58.9331C4.87357 58.1461 4.36976 57.3999 3.90708 56.6436C3.30045 55.6623 3.11538 54.5584 2.86862 53.4852C2.16946 50.3984 2.58073 47.3423 3.38271 44.3577C3.61919 43.4787 3.82483 42.569 4.14356 41.7206C4.45202 40.8927 4.78103 40.0443 5.19231 39.2573C5.69611 38.317 6.03541 37.2744 6.65232 36.426C7.30007 35.5164 7.46458 34.4431 8.06093 33.5437C7.05331 33.0939 6.05598 32.7464 5.1409 32.2354C3.85567 31.5097 2.82749 30.6102 2.09748 29.2201C1.01789 27.1861 0.637468 25.009 0.185069 22.8523C0.041124 22.147 -0.0925394 21.3191 0.185069 20.5525C0.267324 20.3175 0.164506 20.021 0.185069 19.7553C0.215915 19.2544 0.092533 18.5798 0.370142 18.2732C0.863668 17.7417 0.812259 17.1489 0.904795 16.5765C1.05902 15.6566 1.43945 14.8185 1.84044 14.0212C2.33396 13.0502 2.90975 12.0281 3.72201 11.3126C4.93526 10.2496 6.17936 9.18658 7.74219 8.49154C9.08911 7.88849 10.436 7.37743 11.8755 7.02991C12.3176 6.92769 12.7597 6.84592 13.2018 6.75393C14.2608 6.53929 15.0834 5.99757 15.7414 5.19009C15.9676 4.91412 16.2761 4.69947 16.5023 4.41328C16.7285 4.13731 16.9341 3.84089 17.0781 3.52404C17.4071 2.74723 17.3968 2.79833 18.2605 2.72679C18.7437 2.6859 19.2578 2.52236 19.6794 2.28727C20.6973 1.72511 21.8385 1.60245 22.949 1.36737C23.2163 1.30604 23.5145 1.38781 23.7921 1.43892C25.5811 1.75577 27.3804 2.04197 29.1489 2.42015C30.0948 2.62457 30.9791 3.05386 31.8941 3.40138C32.7989 3.7489 33.6832 4.16797 34.5777 4.47461C35.3899 4.7608 35.9966 5.30253 36.7266 5.67049C37.4771 6.04867 38.2174 6.53929 38.8343 7.14234C39.4513 7.74539 40.3458 8.0418 40.8085 8.82883C40.8393 8.87994 41.0038 8.8595 41.0758 8.9106C41.2711 9.03326 41.4562 9.27857 41.631 9.26835C41.8264 9.2479 42.0217 9.02304 42.1554 8.84928C42.5666 8.328 42.9162 7.75561 43.3583 7.26499C44.2734 6.22243 44.9212 4.97545 46.0213 4.0862C46.885 3.39116 47.6561 2.55302 48.6123 1.98064C49.219 1.6229 49.9078 1.30604 50.5967 1.03007C51.7174 0.580335 52.8998 0.498566 54.0514 0.294142C54.8534 0.151045 55.7376 0.304363 56.5807 0.416796C57.65 0.559893 58.7399 0.682547 59.7681 1.00963C61.2075 1.46958 62.6778 1.87843 63.8808 2.8801C64.8267 3.67736 65.6904 4.46439 66.3073 5.58872C66.8831 6.6415 67.4177 7.71473 67.9215 8.78795C68.6207 10.2802 68.9806 11.8952 69.4844 13.459C70.019 15.1558 70.2864 16.9036 70.5228 18.6412C70.7285 20.113 71.2323 21.4827 71.8081 22.8319C72.2193 23.8029 72.754 24.7228 73.3092 25.6222C73.5971 26.0822 73.9261 26.5217 74.3888 26.8999C74.8618 27.2883 75.0982 27.9731 75.3759 28.5557C76.0442 29.9254 77.0107 31.111 77.8538 32.3682C79.1596 34.3103 80.2083 36.3647 80.4242 38.7258C81.0514 39.8399 80.8766 41.0971 80.9075 42.2623C80.9486 43.5707 80.527 44.8892 80.2392 46.1873C80.126 46.7086 79.6942 47.1276 79.6634 47.7C79.6428 48.2315 79.1904 48.5382 78.8922 48.9368C78.5529 49.3763 78.1417 49.7238 77.8229 50.1429C77.4939 50.5824 77.0724 50.8481 76.6405 51.1139C76.0442 51.4819 75.4376 51.9725 74.7795 52.0542C73.0625 52.2791 72.2296 53.4545 71.5305 54.7118C70.9444 55.7645 70.0807 56.6129 69.433 57.6146C69.1142 58.095 68.4048 58.3096 67.9113 58.698C66.3484 59.9041 64.5183 60.6298 62.6367 61.1818C61.2589 61.5906 59.8709 62.0199 58.4109 62.1732C56.1592 62.4083 56.1695 62.4185 54.0823 61.6826C53.8561 61.6008 53.5887 61.6213 53.3625 61.5395C52.7867 61.3351 52.1493 61.4986 51.6146 60.9876C51.2136 60.6094 50.35 60.9876 49.9284 60.3539C49.9078 60.3232 49.8359 60.3334 49.7845 60.3232C48.5815 60.0063 47.3785 59.7099 46.1858 59.3726C45.425 59.158 44.6847 58.882 43.821 58.5958L43.8519 58.606Z" fill="#FEF3CD"/>
<path d="M80.7738 39.8092C80.0746 36.0989 78.0594 32.777 76.0133 29.5982C73.957 26.4194 71.7875 23.2304 70.7285 19.6019C69.7414 16.2187 69.7517 12.5799 68.4768 9.29892C65.8241 2.44051 57.1668 -1.43332 50.2472 1.16286C54.7197 1.65348 59.2026 3.2071 62.4722 6.29389C65.7315 9.38069 67.5617 14.154 66.3793 18.4776C65.1969 22.7909 60.6112 26.1537 56.2003 25.2849C55.4909 25.1418 54.3804 25.2338 54.4833 25.9492C54.5347 26.2763 54.8637 26.4807 55.1721 26.6034C57.7426 27.6562 60.6215 26.6341 63.2845 25.8368C65.896 25.0498 69.0526 24.6103 71.1089 26.3581C70.6565 27.3904 69.9265 28.2388 68.9497 28.8418C68.703 28.9952 68.7544 29.3018 68.9189 29.4755C69.2273 29.8128 69.505 30.1808 69.762 30.5488C69.7826 30.5897 69.8031 30.6203 69.834 30.651C72.0857 33.9831 72.2605 38.3986 71.0472 42.1805C70.2761 44.5825 69.0012 46.8209 67.5 48.8447C67.1504 49.3251 66.7803 49.8055 66.3999 50.2757C63.9425 52.1973 61.1459 53.7509 58.5651 54.9672C58.4006 54.957 58.2361 54.9365 58.0716 54.9059C57.5986 54.681 57.1051 54.5072 56.591 54.3948C56.2003 54.1699 55.8302 53.8735 55.5217 53.5056C55.3161 53.2603 54.9871 53.2909 54.8226 53.5567C53.5682 55.5396 50.9463 56.0404 48.7666 55.5498C47.9954 55.3045 47.2449 55.0081 46.5149 54.6606C44.4585 53.4851 42.8237 51.5329 41.3328 49.7748C41.1066 49.5091 40.7262 49.6317 40.6131 49.877C39.2353 47.9657 38.2894 45.7681 37.5903 43.5195C36.521 40.0954 35.9555 36.426 36.6546 32.9099C37.3641 29.3325 39.297 26.1434 40.6337 22.75C42.4535 18.13 43.1527 13.0705 42.6489 8.13371C42.3199 8.54256 42.0011 8.96163 41.6721 9.37047C41.23 9.02295 40.7982 8.67543 40.3561 8.33813C40.3869 10.3108 40.2532 12.2835 39.9756 14.2358C39.6775 16.3004 39.1428 18.4571 37.652 19.9187C34.7114 22.7704 29.4779 21.3906 26.7635 18.314C26.3728 17.8745 25.7662 17.3532 25.2727 17.6803C24.81 17.9869 24.9848 18.6922 25.2521 19.1726C26.9589 22.2389 30.5986 24.1094 34.0944 23.7415C33.5495 26.7976 30.7529 29.1485 27.6992 29.8026C24.6455 30.4568 21.4273 29.6698 18.6306 28.2592C17.0575 27.462 15.2685 26.4501 13.6337 27.1247C13.2018 27.2984 12.8111 27.5949 12.3484 27.646C11.896 27.6971 11.4539 27.5131 11.0529 27.3087C4.91471 24.2321 2.33398 15.6872 5.74753 9.75888C1.85073 12.6617 -0.380419 17.6496 0.0514167 22.4945C0.483252 27.3291 3.54723 31.8571 7.89643 34.0751C9.83969 32.4193 12.112 30.651 14.6619 30.9372C16.1938 31.1007 17.5305 32.0002 18.9391 32.6441C20.9954 33.5845 23.2883 34.0138 25.54 33.8707C27.9562 33.7173 30.8454 33.0938 32.4082 34.9337C33.0046 35.6287 33.2513 36.5486 33.4775 37.4379C34.7114 42.2418 35.9349 47.0355 37.1687 51.8395C38.2791 56.1937 39.2662 61.2328 36.5415 64.8102C34.9581 66.8749 32.3671 68.0094 29.7658 68.2547C27.1645 68.5103 24.5529 67.9685 22.0545 67.2122C17.1089 65.7097 11.9577 62.7966 10.5491 57.8393C10.0762 56.1529 10.0556 54.3028 9.14053 52.8003C8.50305 51.7475 7.48516 50.9809 6.7243 50.0099C4.19498 46.7902 4.9764 42.1805 5.89148 38.1942C2.22088 43.7137 1.59369 51.0934 4.26695 57.1545C5.0895 59.025 6.2205 60.8035 6.6112 62.8171C7.18698 65.8221 6.03542 69.0929 7.22811 71.9139C7.93756 73.5902 9.38729 74.827 10.8267 75.9411C15.3713 79.4469 20.9132 82.4213 26.6093 81.6241C31.6885 80.9086 35.9555 77.2392 38.6287 72.8849C41.302 68.5307 42.6181 63.5121 43.893 58.5753C48.2114 60.3333 52.7045 61.9074 57.3724 62.0096C62.0404 62.1118 66.9448 60.5173 69.8648 56.9092C70.7388 55.836 71.4174 54.5992 72.425 53.6487C73.9364 52.2075 76.0442 51.5227 77.6584 50.1837C78.4912 49.4989 79.1596 48.6709 79.6634 47.7408C80.9486 45.4104 81.2571 42.4871 80.7635 39.8296L80.7738 39.8092Z" fill="#F2CE97"/>
<path d="M35.5339 8.71633C34.2178 6.84585 32.1923 5.55798 30.0228 4.83228C27.2159 3.89193 24.0491 3.59552 21.0982 3.57507C19.8233 3.57507 18.5072 3.79994 17.479 4.57675C16.4097 5.374 15.7517 6.54944 14.8983 7.54089C14.0141 8.57323 12.9859 9.46248 11.8549 10.2188C10.7753 10.9343 9.56205 11.3943 8.49274 12.1098C6.25131 13.6123 5.84004 16.2187 6.7654 18.6207C7.53653 20.6445 9.54148 23.4246 12.0811 22.7705C13.2841 22.4536 14.1991 21.3088 14.9086 20.3583C15.7311 19.2544 16.348 18.0381 16.7902 16.74C17.15 15.6872 17.4482 14.4709 18.209 13.6123C19.0624 12.6617 20.2962 12.7026 21.4478 12.999C22.8975 13.367 24.2547 14.0211 25.7045 14.3993C27.2159 14.7877 28.8507 14.9717 30.393 14.7059C33.0868 14.2358 35.5956 12.3755 36.1199 9.60557C36.2125 9.1354 35.9143 8.81854 35.5441 8.71633H35.5339Z" fill="#FDFCF1"/>
<path d="M25.4886 21.5031C25.0876 20.7672 24.409 20.2459 23.9566 19.5406C23.7407 19.2135 23.679 18.8354 23.5556 18.4674C23.422 18.0586 23.2163 17.6906 22.9182 17.3737C22.8565 17.3124 22.7948 17.2511 22.7331 17.2C22.6714 16.9751 22.5891 16.7707 22.4658 16.5765C22.219 16.1881 21.9003 16.0348 21.561 16.0348C21.1394 15.8508 20.6253 15.861 20.1523 16.0859C19.4018 16.4232 18.8054 16.9649 18.3325 17.5986C17.9006 18.0177 17.5408 18.5287 17.294 19.0909C16.9547 19.8575 16.7594 20.6854 16.6257 21.5031C16.4715 22.4332 16.5332 23.2611 17.366 23.854C18.4044 24.5899 19.7822 25.1112 21.1291 25.2338C21.1805 25.2543 21.2319 25.2747 21.2833 25.2849C22.7536 25.704 24.7894 25.4587 25.6325 24.0277C26.1055 23.2305 25.9307 22.2799 25.4989 21.5031H25.4886Z" fill="#FDFCF1"/>
<path d="M62.3488 14.8287C61.2692 11.2717 58.8633 7.68405 55.8199 5.49672C54.1337 4.2804 52.0876 3.6058 50.1135 4.55637C48.3553 5.40473 47.214 7.06056 47.1421 8.99236C47.1421 9.22745 47.214 9.40121 47.3374 9.52387C46.7513 11.1082 46.1653 12.7027 45.5998 14.2972C44.9417 16.1676 44.1603 18.0177 45.2296 19.8984C46.2373 21.6666 48.2525 22.4537 50.1752 22.7807C52.2727 23.1487 54.4421 23.0874 56.5191 22.6376C58.2978 22.2492 60.128 21.6155 61.4132 20.2868C62.8629 18.7945 62.9246 16.7094 62.3488 14.8184V14.8287Z" fill="#FDFCF1"/>
<path d="M61.5057 28.157C60.3953 27.7993 59.2026 27.738 58.0716 28.0548C56.8069 28.4023 55.8816 29.4347 54.6375 29.7924C53.3625 30.1604 51.9951 29.8537 50.6996 29.9764C49.6097 30.0786 48.5507 30.4261 47.7692 31.1927C47.4197 31.0701 47.0084 31.1518 46.8028 31.5811C45.5689 34.1466 44.4482 36.7735 43.4406 39.431C42.9985 40.5962 42.4227 41.8023 42.7723 43.0595C43.0705 44.1634 43.9136 45.0118 44.6641 45.8295C46.3812 47.7306 48.2216 49.6317 50.607 50.6845C52.8382 51.676 55.3469 51.7986 57.5575 50.6845C59.5213 49.7033 61.043 48.027 62.2974 46.2587C63.778 44.1838 65.1352 41.925 65.9166 39.4923C67.2841 35.2505 66.3073 29.6902 61.516 28.157H61.5057Z" fill="#FDFCF1"/>
<path d="M30.136 37.7344C27.9459 35.9866 24.8717 35.1586 22.1264 34.7805C19.2784 34.3818 16.2967 34.5965 13.6954 35.9048C13.3458 36.0786 13.2121 36.4056 13.2224 36.7123C11.6082 37.857 10.5286 39.656 10.1687 41.598C9.74715 43.8671 10.3846 45.9727 11.7624 47.7818C12.4924 48.7426 13.3561 49.6727 13.644 50.8788C13.9421 52.136 13.829 53.4546 14.2609 54.6811C15.0731 57.0116 17.5099 58.2994 19.885 58.3812C24.7277 58.5447 29.3134 54.8958 31.5034 50.8175C33.6421 46.8312 34.0225 40.8314 30.136 37.7344Z" fill="#FDFCF1"/>
<path d="M33.714 55.233C32.3877 54.9366 31.3595 55.8463 30.4753 56.6947C30.1154 57.0422 29.7658 57.3795 29.406 57.727C29.334 57.727 29.2723 57.7168 29.1901 57.727C28.0591 57.8497 26.9589 58.2278 26.013 58.882C25.0876 59.5157 24.2034 60.4765 24.4296 61.6826C24.8306 63.8188 27.5964 64.6059 29.4779 64.3503C31.6577 64.0437 33.4159 62.623 34.3926 60.6911C35.1741 59.158 36.1817 55.7952 33.7038 55.2433L33.714 55.233Z" fill="#FDFCF1"/>
<path d="M13.0888 30.3955C9.36675 29.772 5.97375 27.6255 3.90711 24.4672C1.78906 21.2475 1.23385 17.1999 2.23118 13.5101C2.25174 13.4181 2.26203 13.3363 2.26203 13.2648C2.11808 13.5203 1.98442 13.7758 1.85075 14.0211C1.43948 14.8184 1.06934 15.6565 0.91511 16.5764C0.822574 17.1488 0.873983 17.7417 0.380457 18.2732C0.102848 18.5696 0.22623 19.2442 0.195384 19.7552C0.174821 20.021 0.28792 20.3174 0.195384 20.5525C-0.0822244 21.3293 0.051439 22.147 0.195384 22.8522C0.647783 25.0089 1.02821 27.186 2.1078 29.22C2.83781 30.5999 3.86599 31.5096 5.15121 32.2353C6.05601 32.7464 7.06362 33.0939 8.07124 33.5436C7.55715 34.3204 7.3618 35.2301 6.89912 36.058C7.21785 36.2318 7.63941 36.2216 7.88617 35.8945C9.25365 34.0751 11.0735 32.7157 13.2224 31.9491C13.973 31.6834 13.8907 30.5284 13.0888 30.3955Z" fill="#E2AE6D"/>
<path d="M39.7803 48.5688C39.6055 48.16 39.441 47.7613 39.2662 47.3525C39.225 47.2605 39.1531 47.1685 39.0605 47.1276C36.3153 39.2675 33.2719 29.3019 39.4718 22.2288C39.77 21.8915 39.2867 21.3293 38.9372 21.636C38.9063 21.6564 38.8857 21.6871 38.8652 21.7075C36.4592 23.8131 34.9375 26.6444 32.727 28.893C31.5857 30.0582 30.2182 30.9986 28.604 31.3665C26.5784 31.8163 24.481 31.3768 22.5274 30.8146C20.1009 30.1196 17.7052 29.3019 15.2993 28.5353C14.8058 28.382 14.6618 29.169 15.1554 29.3325C15.1965 29.3427 15.2376 29.3632 15.2787 29.3734C15.2273 29.5778 15.3199 29.8129 15.5769 29.8742C17.6024 30.3138 19.0624 31.9083 20.872 32.8179C22.8256 33.789 25.0362 33.7276 27.1542 33.4312C28.2647 33.2779 29.4882 32.8895 30.6192 33.0122C31.7605 33.1246 32.4185 34.0036 32.8812 34.9644C33.858 37.0086 34.5982 39.2062 35.4311 41.322C36.449 43.8875 37.4669 46.453 38.4848 49.0185C38.6287 49.3763 39.0708 49.3149 39.2251 49.0696C39.3176 49.1105 39.4512 49.1207 39.5438 49.0901C39.7391 49.0083 39.8728 48.7834 39.7906 48.5688H39.7803Z" fill="#E2AE6D"/>
<path d="M41.0861 10.4641C41.3431 12.7128 41.2917 14.9717 40.9524 17.1999C40.8702 17.7212 41.6002 17.8234 41.7544 17.343C42.7723 14.1029 43.2967 10.7299 43.3172 7.34668C42.906 7.82708 42.5667 8.35858 42.176 8.84919C42.032 9.02295 41.8367 9.25804 41.6516 9.26826C41.4768 9.27848 41.2917 9.03318 41.0964 8.91052C41.0244 8.85942 40.8599 8.89008 40.829 8.82875C40.9319 9.36025 41.0244 9.89176 41.0861 10.4437V10.4641Z" fill="#E2AE6D"/>
<path d="M80.928 42.2828C80.8972 41.1176 81.0617 39.8706 80.4448 38.7462C80.2288 36.3851 79.1801 34.3409 77.8743 32.3887C77.0312 31.1315 76.0647 29.9458 75.3964 28.5762C75.1188 27.9936 74.8823 27.3087 74.4093 26.9203C73.9467 26.5421 73.6176 26.1026 73.3298 25.6427C73.2783 25.5609 73.2372 25.4894 73.1858 25.4076C73.1138 25.5507 73.1138 25.7347 73.2578 25.8778C76.0544 28.8317 77.4528 32.8793 77.4219 36.9064C77.4014 38.9098 77.0209 40.9234 76.2601 42.7734C75.8694 43.724 75.3861 44.6541 74.8001 45.5024C74.5944 45.8091 74.286 46.0748 74.286 46.4428C73.9158 46.4939 73.5354 46.4837 73.155 46.4019C73.1036 46.3917 73.0419 46.4019 72.9905 46.4019C72.6203 45.8909 72.4352 45.2367 72.5586 44.6234C72.5895 44.4906 72.6306 44.3679 72.6717 44.2452C72.7128 44.1226 72.6717 44.0204 72.61 43.9386C72.6409 43.7955 72.61 43.6422 72.4866 43.54C72.3324 43.4071 72.0445 43.4071 71.9109 43.5809C71.4893 44.1635 71.1809 44.8278 71.1706 45.5638C71.1706 46.0748 71.3454 46.5859 71.6435 47.005C72.2707 47.8635 73.3195 48.3133 74.3682 48.1089C74.3579 48.2008 74.3477 48.2826 74.3271 48.3746C73.7924 50.9401 71.4173 52.4733 69.2273 53.5772C68.2505 54.0678 67.2327 54.4971 66.3484 55.1513C65.4231 55.8361 64.9192 56.6742 64.5183 57.7372C64.0967 58.8411 63.4901 59.6792 62.4413 60.2618C61.4851 60.7933 60.3747 61.0489 59.2951 61.1818C57.0537 61.4679 54.7711 61.3248 52.5708 60.8342C47.6047 59.7303 43.091 56.8173 40.1504 52.6777C39.8419 52.2587 39.1839 52.7084 39.4821 53.1377C42.2684 56.9808 41.4253 62.7456 39.2764 66.6808C37.0453 70.7795 32.9326 73.5289 28.2132 73.7232C25.9512 73.8151 23.679 73.3041 21.7254 72.1798C21.5815 71.9038 21.4581 71.6176 21.3347 71.3314C21.3039 70.5239 21.2216 69.7062 21.1291 68.8988C21.1496 68.633 21.1599 68.3673 21.1599 68.1015C21.1599 67.9482 21.0879 67.8562 20.9851 67.7949C20.9029 67.3042 20.286 67.2634 20.1729 67.7131C19.9569 68.5717 19.9878 69.42 20.1729 70.2377C20.0495 70.9941 19.8644 71.73 19.6074 72.4557C17.9006 73.6925 15.5152 73.9378 13.5617 73.0997C11.0632 72.0264 10.1275 69.4303 9.62374 66.9567C9.24331 65.1271 8.99655 63.226 8.32823 61.4782C8.33851 61.4271 8.34879 61.376 8.34879 61.3351C8.33851 61.192 8.25626 61.0898 8.14316 61.0284C7.98893 60.6707 7.81414 60.3129 7.6085 59.9654C7.57766 59.3726 7.56738 58.79 7.57766 58.2074C7.59822 57.0319 7.70104 55.8667 7.88611 54.7117C7.96837 54.2007 7.18695 54.0576 7.08413 54.5686C6.89906 55.5499 6.72427 56.5209 6.5392 57.5021C5.93257 57.3181 5.39792 56.9706 4.99693 56.4596C4.94552 56.3982 4.89411 56.3574 4.83242 56.3369C4.75016 56.2245 4.66791 56.1018 4.58566 55.9792C3.80424 54.7935 3.30043 53.4443 3.02282 52.0645C2.72465 50.5619 2.66296 49.0288 2.72465 47.5058C2.44704 49.4683 2.42648 51.4614 2.87888 53.4545C3.12564 54.5278 3.31071 55.6419 3.91734 56.6129C4.38002 57.3692 4.88383 58.1154 5.28482 58.9024C5.71665 59.7406 6.17933 60.6094 6.37469 61.5088C6.7654 63.2567 6.80652 65.0658 6.67286 66.8341C6.58032 68.0197 6.63173 69.1338 6.86821 70.3093C7.25892 72.2309 8.18429 73.8254 9.69571 75.011C10.9912 76.0331 12.225 77.2086 13.829 77.8321C14.4151 78.5884 15.4227 78.7009 16.1116 79.2835C17.1706 80.1727 18.4866 80.5305 19.741 80.878C21.0571 81.2357 22.4349 81.4504 23.864 81.4606C25.2624 81.481 26.6298 81.3686 28.0076 81.2562C30.0331 81.0926 31.4828 80.4282 33.0971 79.263C33.786 78.7622 34.3103 78.1591 34.8861 77.5663C36.2022 76.2069 37.2509 74.6737 38.1969 73.0792C38.9886 71.7505 39.7494 70.4013 40.428 69.0112C40.8393 68.173 41.2505 67.3247 41.5796 66.4354C41.7955 65.8324 41.8366 65.0965 42.2068 64.657C42.6797 64.0846 42.4432 63.3589 42.8751 62.8785C43.4097 62.2856 43.2555 61.5497 43.4303 60.8853C43.6154 60.2005 43.6976 59.485 43.8621 58.5753C44.7258 58.8615 45.4661 59.1375 46.2269 59.3522C47.4196 59.6895 48.6226 59.9859 49.8256 60.3027C49.877 60.313 49.9489 60.3027 49.9695 60.3334C50.3808 60.9773 51.2547 60.5889 51.6557 60.9671C52.2007 61.4884 52.8381 61.3248 53.4036 61.5191C53.6298 61.6008 53.8972 61.5804 54.1234 61.6621C56.2106 62.4083 56.2106 62.3981 58.452 62.1528C59.912 61.9994 61.2898 61.5702 62.6778 61.1613C64.5697 60.5991 66.3895 59.8837 67.9524 58.6776C68.4459 58.2994 69.1553 58.0745 69.4741 57.5941C70.1321 56.5924 70.9855 55.7441 71.5716 54.6913C72.2707 53.4341 73.1036 52.2587 74.8206 52.0338C75.4786 51.952 76.0956 51.4614 76.6816 51.0934C77.1135 50.8277 77.5247 50.5619 77.864 50.1224C78.1828 49.7034 78.594 49.3456 78.9333 48.9163C79.2418 48.5177 79.6839 48.2111 79.7045 47.6796C79.7353 47.097 80.1672 46.6779 80.2803 46.1668C80.5681 44.8687 80.9897 43.5502 80.9486 42.2419L80.928 42.2828Z" fill="#E2AE6D"/>
<path d="M67.6439 18.9478C67.099 21.1862 65.896 23.302 63.8397 24.4672C63.4387 24.6921 63.7882 25.3565 64.2098 25.1725C65.8138 24.4877 67.5514 24.1708 69.2993 24.2832C70.1218 24.3344 70.9547 24.4877 71.7464 24.7228C72.1782 24.8556 72.5997 25.0294 73.0316 25.1725C72.5792 24.4161 72.1576 23.6495 71.8183 22.8523C71.2425 21.5031 70.7387 20.1334 70.5331 18.6616C70.2966 16.924 70.0293 15.1762 69.4946 13.4794C69.0011 11.9156 68.631 10.3007 67.9318 8.80837C67.428 7.73514 66.8933 6.66192 66.3176 5.60913C65.7007 4.4848 64.837 3.68755 63.8911 2.90052C62.6881 1.89884 61.2178 1.49 59.7783 1.03004C59.4904 0.938051 59.1923 0.866503 58.8941 0.805176C65.3099 4.10662 69.3713 11.8441 67.6439 18.9478Z" fill="#E2AE6D"/>
<path d="M73.6382 37.2744C73.7308 35.7514 73.5046 34.2284 72.9185 32.8077C72.5998 32.0309 72.1474 31.3256 71.7875 30.5693C71.6744 30.3342 71.5716 30.0889 71.4893 29.8436C71.5716 29.2303 71.5921 28.6068 71.5202 27.9833C71.479 27.5949 70.9135 27.4722 70.749 27.8402C70.7285 27.8811 70.7182 27.922 70.6976 27.9629C70.5845 27.7891 70.3583 27.6767 70.1218 27.8095C68.6824 28.6477 67.2018 29.3938 65.6595 30.0378C65.2586 30.2115 65.3614 30.8759 65.8343 30.8146C67.171 30.6408 68.5179 30.6613 69.8545 30.8452C70.6565 31.9696 71.2529 33.2165 71.623 34.5351C71.623 34.5555 71.623 34.576 71.623 34.5964C71.7669 35.1484 71.88 35.7003 71.9726 36.2522C72.2399 37.9796 72.2399 39.7274 71.9726 41.4446C71.9006 41.8841 72.5381 42.109 72.7334 41.6899C73.4017 40.2998 73.6896 38.7667 73.6074 37.2437L73.6382 37.2744ZM70.5742 29.8027C70.4714 29.404 70.4406 28.9748 70.492 28.5455C70.5228 28.525 70.5434 28.5148 70.5742 28.4944C70.492 28.9645 70.5434 29.4347 70.6771 29.8844C70.6462 29.8538 70.6154 29.8231 70.5742 29.7924V29.8027Z" fill="#E2AE6D"/>
</g>
<defs>
<clipPath id="clip0_72_50">
<rect width="81" height="82" fill="white"/>
</clipPath>
</defs>
</svg>
