<svg width="93" height="82" viewBox="0 0 93 82" fill="none" xmlns="http://www.w3.org/2000/svg">
<g clip-path="url(#clip0_72_53)">
<path d="M21.4259 41.7091C21.2898 40.8637 21.6165 40.2002 21.1537 39.5366C21.0085 39.3275 20.5729 35.6007 20.0828 34.1282C19.7561 33.1465 19.493 32.1466 19.2389 31.1467C18.9122 29.8469 19.0574 28.5471 19.012 27.2563C18.9666 25.8383 19.2752 24.4476 19.5837 23.0932C19.7562 22.3388 19.9286 21.5661 20.1554 20.8117C20.3732 20.0845 20.4549 19.3209 20.6364 18.6029C21.0811 16.8122 21.553 15.0124 22.3334 13.3217C22.5422 12.8763 22.8326 12.4673 23.0776 12.0309C23.3226 11.6037 23.6947 11.1856 23.7673 10.722C23.9215 9.65852 24.466 8.77681 24.8926 7.84965C25.6549 6.16805 26.9798 4.9591 28.6042 4.11376C29.4391 3.67745 30.3194 3.28659 31.1271 2.84119C32.8059 1.89585 34.6391 1.45045 36.4177 0.823258C36.9622 0.632372 37.6338 0.959604 38.1511 0.523295C40.0659 0.468756 41.9716 0.0415369 43.8864 0.277871C44.9845 0.414218 46.0009 0.914155 46.9719 1.47772C48.1244 2.14127 48.8413 3.19569 49.5946 4.23192C49.6944 4.36827 49.767 4.5228 49.8668 4.65005C50.1663 5.00455 50.4476 5.1409 50.9739 4.90457C51.8724 4.50462 52.8252 4.20465 53.7872 4.00468C54.7038 3.81379 55.6657 3.68654 56.6004 3.75016C57.7076 3.81379 58.7421 3.40475 59.8129 3.45929C60.5299 3.49565 61.2468 3.66836 61.9637 3.70472C62.7623 3.75016 63.5609 3.71381 64.3595 3.71381C65.1127 3.71381 65.8659 3.66836 66.6191 3.7229C67.4268 3.77743 68.1165 4.2501 68.7336 4.67732C69.6229 5.28634 70.4578 6.01352 71.1657 6.8316C72.5088 8.39504 73.8519 9.94939 74.6958 11.8855C75.1042 12.8218 75.6578 13.7126 75.921 14.7033C76.1751 15.6669 76.7014 16.5304 76.7649 17.5666C76.7922 18.1211 77.1189 18.6574 77.2641 19.2119C78.0263 22.0297 77.8086 24.9202 77.7632 27.7835C77.7541 28.438 77.6815 29.1743 77.4909 29.7924C77.2913 30.4468 77.4728 31.1195 77.2368 31.683C76.9011 32.5011 77.0553 33.3101 77.019 34.1191C76.9827 34.9645 76.9918 35.8098 77.019 36.6461C77.019 36.8279 77.1642 37.0915 77.3094 37.1733C78.3894 37.7641 79.4965 38.3186 80.5946 38.8821C80.6309 38.9003 80.6853 38.8821 80.7216 38.8821C81.8832 38.973 83.0448 39.0458 84.2064 39.1548C84.9687 39.2276 85.7582 39.2366 86.466 39.473C87.2737 39.7548 88.0269 40.2183 88.762 40.6728C90.1232 41.5364 90.9944 43.0907 91.7114 44.6087C92.2468 45.7449 92.4464 46.963 92.9546 48.0901C93.0545 48.3082 92.9728 48.6173 92.9728 48.8809C92.9728 49.7717 92.9455 50.6534 92.9728 51.5442C93.0454 53.6803 92.147 55.4255 90.9037 57.089C90.1142 58.1525 89.1795 59.0705 88.2357 59.9613C87.0468 61.0975 85.5132 61.6975 84.0158 62.2883C83.1809 62.6246 79.5782 62.7337 78.6797 62.5701C77.1461 62.2792 75.1224 61.5702 73.9335 60.2067C73.0896 59.2432 72.0823 58.4524 70.8934 57.9343C70.5577 57.7889 70.2219 57.5798 69.868 57.5344C69.3598 57.4707 68.906 57.5162 68.4251 57.9161C67.5902 58.607 67.3996 59.5614 67.1818 60.4794C67.0003 61.2521 66.9549 62.0974 66.8279 62.8882C66.5556 64.6335 66.6464 66.3696 66.6191 68.1149C66.5919 69.8419 66.6464 71.5781 66.601 73.3051C66.5828 74.005 66.3651 74.6868 66.0928 75.3503C65.6663 76.4047 65.1581 77.4773 64.3686 78.2045C62.8803 79.5862 61.2286 80.8133 59.1232 81.2405C57.5624 81.5586 56.0196 81.7859 54.4224 81.7768C52.7889 81.7768 51.2553 81.3132 49.7125 80.9042C49.0864 80.7315 48.433 80.6042 47.8068 80.386C47.226 80.177 46.6089 80.077 46.019 79.8861C45.4382 79.6952 44.8121 79.5498 44.2948 79.2316C42.4435 78.0682 41.5179 77.2955 39.966 74.9685C39.358 74.0596 38.8861 73.1051 38.4324 72.1325C38.0603 71.3326 37.8516 70.46 37.8879 69.5601C37.9333 68.3966 37.6701 67.2877 37.3615 66.1787C37.1528 65.4334 36.6446 64.8698 36.2544 64.2426C35.9186 63.6972 35.483 63.2973 34.9839 62.8973C34.5846 62.5792 34.031 62.7337 33.7497 62.2974C32.8059 62.3519 31.9438 61.9247 31.0545 61.7157C30.1833 61.5157 29.2395 61.4793 28.4409 60.9703C28.3773 60.9339 28.2684 60.9521 28.1777 60.9703C26.9163 61.1066 25.6821 60.7612 24.4297 60.7158C23.1865 60.6703 21.9432 60.6431 20.709 60.7249C20.0193 60.7703 19.3115 60.9794 18.6762 61.2521C17.5328 61.7338 16.344 61.8702 15.1552 62.0974C13.93 62.3338 12.7321 62.2429 11.5252 62.2974C9.82816 62.361 8.4034 61.7157 7.21458 60.5067C6.71546 59.9977 6.21634 59.4978 5.70814 58.9978C4.01113 57.298 3.37588 56.0345 2.18706 53.3985C1.45199 51.7624 1.15252 50.0171 0.444676 48.39C0.408376 48.3173 0.353926 48.2264 0.372076 48.1537C0.56265 47.272 0.072603 46.463 0.0998278 45.5995C0.117978 44.7087 3.42727e-06 43.8088 0.127053 42.9362C0.299476 41.7909 0.353926 40.591 0.907498 39.5366C1.48829 38.4186 2.23244 37.3642 3.25791 36.6733C4.30153 35.9643 5.46312 35.4189 6.72453 35.0917C7.66833 34.8463 8.60305 34.919 9.54684 34.8281C10.1458 34.7645 10.6903 34.9735 11.144 35.1735C12.0424 35.5735 13.0044 35.8552 13.8756 36.2825C15.4002 37.0369 16.834 37.9732 18.2225 38.973C19.1481 39.6457 19.9286 40.4547 20.7453 41.2455C20.8814 41.3818 21.0811 41.4545 21.4259 41.6727V41.7091Z" fill="#FEF3CD"/>
<path d="M92.9728 48.899C92.9728 48.6354 93.0545 48.3264 92.9546 48.1082C92.5735 47.2629 92.3648 46.363 92.0562 45.4903C91.9564 45.1995 91.8384 44.9086 91.7114 44.6268C91.5299 44.245 91.3484 43.8633 91.1396 43.4906C90.8311 42.927 90.4953 42.3907 90.1051 41.909C89.7149 41.4272 89.2702 41.0091 88.762 40.6819C88.5805 40.5637 88.399 40.4546 88.2084 40.3364C88.0179 40.2183 87.8364 40.1092 87.6458 40.0092C87.2646 39.8001 86.8744 39.6184 86.4751 39.4729C86.3027 39.4093 86.1121 39.3638 85.9306 39.3275C85.3771 39.2184 84.7872 39.2002 84.2155 39.1457C83.7073 39.1002 83.1991 39.0548 82.6909 39.0184C82.7181 39.073 82.7635 39.1366 82.8088 39.182C86.9198 43.1815 85.9941 50.2988 81.8106 53.862C79.5419 55.7891 76.5108 56.7162 73.5705 56.7344C70.6484 56.7526 67.3542 55.9436 65.2125 53.8438C64.1145 52.7713 63.4974 51.3805 63.5972 49.8353C63.697 48.2627 64.5319 46.7538 65.5392 45.5722C67.7898 42.9179 71.1294 41.5727 73.8519 39.482C75.1133 38.5094 76.166 37.3732 77.019 36.1279C77.019 35.8188 77.0009 35.5007 77.0009 35.1916C77.0009 34.828 77.0009 34.4645 77.019 34.0918C77.0281 33.8918 77.019 33.6827 77.019 33.4828C77.019 32.9737 76.9918 32.4738 77.137 31.9648C77.1642 31.8648 77.2005 31.7557 77.2368 31.6557C77.4637 31.0921 77.2913 30.4195 77.4909 29.765C77.5363 29.6105 77.5817 29.4469 77.6089 29.2833C77.7087 28.7833 77.7541 28.247 77.7632 27.7562C77.8176 24.8929 78.0263 22.0024 77.2641 19.1845C77.1098 18.6301 76.7922 18.0938 76.7649 17.5393C76.7468 17.2848 76.7105 17.0303 76.647 16.7939C76.5834 16.5485 76.5018 16.3213 76.4201 16.0849C76.3747 15.9668 76.3293 15.8486 76.284 15.7395C76.1478 15.3941 76.0208 15.0487 75.921 14.6851C75.8574 14.4397 75.7758 14.1943 75.6759 13.9579C75.5852 13.7216 75.4763 13.4853 75.3674 13.258C75.1496 12.7944 74.9046 12.3399 74.7049 11.8673C73.8609 9.93116 72.5179 8.36771 71.1748 6.81336C70.476 5.99528 69.632 5.2681 68.7427 4.65909C68.4614 4.4682 68.171 4.26823 67.8715 4.10461C67.9622 4.3773 66.4558 3.7592 65.6481 3.70466C64.8949 3.65012 64.1417 3.69557 63.3885 3.69557C62.5899 3.69557 61.7913 3.73193 60.9927 3.68648C60.2758 3.65012 59.5588 3.47742 58.8419 3.44106C57.762 3.38652 56.7275 3.79556 55.6294 3.73193C54.7038 3.67739 53.7327 3.79556 52.8162 3.98644C51.8542 4.18642 50.8923 4.48638 50.0029 4.88633C49.7761 4.98632 49.5946 5.02268 49.4312 4.99541C47.0808 9.33123 47.4801 12.9035 47.0536 16.3213C48.6054 11.8764 49.4403 9.23124 53.6601 7.16786C56.555 5.75895 59.8492 5.56806 63.089 5.54988C63.2705 5.59533 63.452 5.64987 63.6335 5.70441C63.6516 5.70441 63.6698 5.7135 63.6789 5.72259C66.2652 6.56794 68.2526 8.66768 69.4233 11.1128C69.8045 11.9218 70.1039 12.7581 70.3217 13.6125C70.6484 15.8304 70.7573 18.0665 70.5214 20.3208C69.9859 25.3656 67.572 29.9377 63.2705 32.7192C59.1777 35.3643 54.2318 36.4097 49.4675 37.0096C45.1206 37.5641 40.6376 37.755 36.2998 37.0096C36.0457 36.546 35.7462 36.1006 35.4286 35.6825C35.3651 35.5734 35.3106 35.4643 35.238 35.3643C34.9748 34.9735 34.6572 34.6372 34.3124 34.3372C33.4593 33.3373 32.4792 32.4465 31.3993 31.6921C29.7567 30.5559 27.969 29.9377 26.0814 29.3469C24.9379 28.9924 23.6856 28.5197 22.7509 27.7471C20.9631 26.2746 21.6347 22.9386 21.6347 20.9207C21.6347 20.3208 21.2444 15.0669 21.798 14.9124C22.0703 14.8305 22.2971 14.6124 22.2971 14.2397C22.2971 14.0306 22.2518 13.8307 22.1882 13.6398C21.4985 15.2305 21.0539 16.9212 20.6364 18.5937C20.5457 18.9573 20.4821 19.3209 20.4095 19.6936C20.337 20.0663 20.2644 20.4389 20.1555 20.7934C20.0375 21.1661 19.9377 21.5479 19.8469 21.9387C19.7562 22.3296 19.6654 22.7023 19.5837 23.0841C19.5474 23.2568 19.5021 23.4204 19.4658 23.5931C19.2752 24.4475 19.1028 25.3111 19.0302 26.1928C19.0029 26.5473 18.9939 26.8927 19.0029 27.2472C19.0029 27.4108 19.0029 27.5744 19.0029 27.738C19.0029 28.547 18.9666 29.356 19.0483 30.1741C19.0846 30.5013 19.13 30.8285 19.2207 31.1467C19.4748 32.1557 19.738 33.1555 20.0647 34.1281C20.3733 35.0462 20.6999 35.9552 20.9087 36.8914C21.0357 37.455 20.9994 39.3275 21.1446 39.5365C21.1991 39.6093 21.2354 39.682 21.2717 39.7638C21.2717 39.782 21.3896 40.2001 21.3987 40.2728C21.3987 40.291 21.3987 40.3001 21.3987 40.3183C21.3987 40.4001 21.3987 40.4728 21.3987 40.5728C21.3987 40.6728 21.3987 40.7728 21.3896 40.8818C24.3753 43.636 28.0325 45.6449 31.8803 46.9447C34.6935 47.89 37.6156 48.4718 40.565 48.7536C42.0442 48.899 43.5234 48.9626 45.0117 48.9536C46.5272 48.9536 48.0337 48.8172 49.5492 48.8808C51.0375 48.9354 52.5348 49.2081 53.7781 50.0807C54.8126 50.8079 55.5477 51.9168 56.0196 53.0803C57.0451 55.6254 57.154 58.5887 56.8908 61.2884C56.6276 64.0335 55.6929 67.0513 53.4696 68.8329C51.7181 70.2327 49.0773 70.8508 46.9538 69.9782C44.2494 68.8692 43.9681 65.7424 43.4962 63.2245C42.9608 60.3339 41.6812 57.6525 39.5304 55.6164C35.3015 51.6259 29.3574 51.7078 23.9397 52.0804C18.5764 52.4531 12.4962 53.153 7.96781 49.5898C4.35598 46.7447 2.64989 42.4725 1.8876 38.0458C1.51552 38.5185 1.1979 39.0457 0.916578 39.582C0.843978 39.7183 0.789528 39.8456 0.735079 39.9819C0.46283 40.6637 0.353931 41.3909 0.254107 42.109C0.217807 42.3998 0.181507 42.6907 0.136133 42.9725C0.072608 43.4088 0.0635331 43.8542 0.081683 44.2996C0.081683 44.5268 0.0998329 44.745 0.0998329 44.9722C0.0998329 45.1995 0.108908 45.4176 0.0998329 45.6358C0.0998329 45.8539 0.117983 46.063 0.163357 46.2721C0.181507 46.3811 0.208732 46.4811 0.226882 46.5902C0.326706 47.0083 0.435606 47.4265 0.417456 47.8628C0.417456 47.9719 0.399306 48.0809 0.381156 48.19C0.363006 48.2627 0.417456 48.3445 0.453756 48.4263C0.807678 49.2353 1.0527 50.0807 1.31587 50.926C1.44292 51.3442 1.56997 51.7714 1.71517 52.1895C1.86037 52.6076 2.01465 53.0258 2.19614 53.4348C2.30504 53.6802 2.41394 53.9166 2.52284 54.1529C2.55007 54.1802 2.55914 54.2074 2.56822 54.2438C3.53924 56.3435 4.21078 57.5161 5.7263 59.0341C6.22542 59.534 6.73361 60.034 7.23274 60.543C8.42155 61.752 9.84632 62.3973 11.5433 62.3337C12.7503 62.2882 13.9391 62.3701 15.1733 62.1337C15.5998 62.0519 16.0354 61.9792 16.462 61.9065C16.9157 61.7065 17.3241 61.5974 17.6689 61.6429C18.0138 61.552 18.3586 61.4429 18.7035 61.2975C19.3478 61.0248 20.0466 60.8157 20.7362 60.7703C21.9704 60.6884 23.2228 60.7066 24.457 60.7612C24.7655 60.7703 25.0831 60.8066 25.3917 60.843C25.546 60.8612 25.7002 60.8793 25.8545 60.9066C26.1631 60.943 26.4807 60.9884 26.7892 61.0157C27.2611 61.0611 27.724 61.0793 28.2049 61.0157C28.2957 61.0066 28.4046 60.9793 28.4681 61.0157C28.5679 61.0793 28.6677 61.1338 28.7766 61.1884C29.4028 61.4883 30.0925 61.5702 30.755 61.6974C30.8639 61.7156 30.9728 61.7429 31.0817 61.761C31.3086 61.8156 31.5264 61.8792 31.7441 61.9428C31.9619 62.0156 32.1888 62.0792 32.4066 62.1428C32.6244 62.2064 32.8513 62.261 33.0782 62.2973C33.1961 62.3155 33.305 62.3246 33.423 62.3337C33.541 62.3337 33.659 62.3337 33.7769 62.3337C33.8495 62.4428 33.9312 62.5155 34.031 62.57C34.0764 62.5973 34.1309 62.6155 34.1853 62.6337C34.394 62.7064 34.6391 62.7337 34.8569 62.8336C34.9113 62.8609 34.9658 62.8882 35.0111 62.9336C35.2652 63.1336 35.5012 63.3336 35.7099 63.5517C35.9186 63.7699 36.1183 64.0062 36.2816 64.2789C36.6809 64.9152 37.18 65.4697 37.3888 66.215C37.4704 66.4877 37.543 66.7695 37.6066 67.0422C37.8153 67.8785 37.9514 68.7147 37.9151 69.5873C37.906 69.8146 37.9151 70.0327 37.9333 70.26C37.9696 70.7054 38.0694 71.1326 38.2146 71.5507C38.2872 71.7598 38.3689 71.9598 38.4596 72.1597C38.5776 72.4052 38.6865 72.6415 38.8045 72.8869C39.1584 73.605 39.5395 74.314 39.9933 74.9958C41.5451 77.3227 42.4707 78.1045 44.322 79.2589C44.4491 79.3407 44.5852 79.4043 44.7213 79.4679C44.93 79.5588 45.1478 79.6315 45.3747 79.7043C45.6016 79.777 45.8194 79.8406 46.0372 79.9133C46.1824 79.9588 46.3367 80.0042 46.4819 80.0406C46.9265 80.1587 47.3893 80.2587 47.8249 80.4133C48.2968 80.5769 48.7778 80.695 49.2588 80.8132C49.4221 80.8496 49.5764 80.895 49.7307 80.9314C51.0738 81.295 52.4169 81.6858 53.8326 81.7858C54.0322 81.7949 54.2409 81.804 54.4406 81.804C55.2392 81.804 56.0287 81.7495 56.8091 81.6586C57.5896 81.5586 58.37 81.4313 59.1414 81.2677C59.4046 81.2132 59.6587 81.1495 59.9128 81.0677C60.4119 80.9132 60.8838 80.7132 61.3375 80.4769C61.7913 80.2405 62.2178 79.977 62.6352 79.677C62.844 79.5315 63.0436 79.377 63.2433 79.2225C63.6426 78.9044 64.0237 78.568 64.3958 78.2226C64.5954 78.0408 64.7679 77.8318 64.9403 77.6136C65.1036 77.3954 65.2579 77.1591 65.394 76.9137C65.6754 76.4228 65.9113 75.8865 66.12 75.3684C66.2561 75.0321 66.3741 74.6958 66.4649 74.3595C66.5556 74.0231 66.6191 73.6686 66.6282 73.3232C66.6736 71.5962 66.6282 69.86 66.6464 68.133C66.6554 67.2604 66.6464 66.3968 66.6554 65.5242C66.6554 65.0879 66.6736 64.6516 66.7099 64.2153C66.7281 63.9971 66.7462 63.779 66.7643 63.5608C66.7916 63.3427 66.8188 63.1245 66.8551 62.9064C66.8823 62.7064 66.9095 62.5064 66.9368 62.3064C66.964 62.1065 66.9821 61.8974 67.0094 61.6974C67.0547 61.2884 67.1183 60.8884 67.209 60.4976C67.3451 59.9249 67.4722 59.3432 67.7535 58.8069C67.8624 58.5978 67.9985 58.3887 68.171 58.2069C68.2526 58.116 68.3525 58.0251 68.4523 57.9342C68.5703 57.8343 68.6882 57.7615 68.8062 57.6979C68.9242 57.6343 69.0422 57.5979 69.1601 57.5707C69.3416 57.5343 69.5141 57.5252 69.7046 57.5343C69.7682 57.5343 69.8317 57.5434 69.8952 57.5525C69.9859 57.5616 70.0676 57.5888 70.1584 57.6161C70.2491 57.6434 70.3308 57.6797 70.4125 57.7161C70.5849 57.7888 70.7482 57.8797 70.9207 57.9524C71.8191 58.3433 72.6086 58.8796 73.2983 59.534C73.5342 59.7522 73.7521 59.9794 73.9608 60.2249C74.7049 61.0793 75.7758 61.6792 76.8466 62.0701C77.4909 62.3064 78.1352 62.4791 78.707 62.5882C78.8794 62.6155 79.1335 62.6427 79.4602 62.6518C79.678 62.6518 79.9139 62.6609 80.168 62.6609C80.4221 62.6609 80.6944 62.6609 80.9757 62.6518C81.257 62.6427 81.5384 62.6337 81.8106 62.6155C82.3642 62.5791 82.8905 62.5337 83.308 62.47C83.6256 62.4246 83.8797 62.3701 84.034 62.3064C85.5313 61.7156 87.0559 61.1066 88.2538 59.9794C88.4898 59.7522 88.7257 59.525 88.9616 59.2977C89.6604 58.616 90.332 57.8979 90.9218 57.098C91.2304 56.6799 91.5208 56.2617 91.7749 55.8254C91.9019 55.6073 92.0199 55.3891 92.1379 55.171C92.3648 54.7256 92.5462 54.2711 92.6915 53.8075C92.8366 53.3348 92.9274 52.844 92.9728 52.3349C92.9909 52.0804 93 51.8168 92.9909 51.5532C92.9637 50.6624 92.9909 49.7807 92.9909 48.8899L92.9728 48.899Z" fill="#F2CE97"/>
<path d="M68.7699 57.0525C67.454 56.5798 66.2017 56.198 65.0038 55.4345C62.726 53.9801 60.9655 51.8168 59.4499 49.6079C58.6786 48.4717 57.9526 47.2991 57.2447 46.1266C56.7547 45.3176 55.5386 46.0357 55.9833 46.8628C57.8074 50.3351 59.0688 54.0892 59.7313 57.9524C60.3121 61.3519 60.548 64.9969 59.8311 68.3874C59.2321 71.2143 57.889 74.0504 55.2029 75.4138C51.8633 77.1045 47.7886 75.841 44.5126 74.6412C42.8519 74.0322 41.2456 73.2505 40.0568 71.9052C39.0222 70.7326 38.3598 69.26 37.7427 67.8329C37.8516 68.4147 37.906 68.9964 37.8788 69.5964C37.8425 70.4962 38.0512 71.3689 38.4233 72.1688C38.877 73.1414 39.358 74.0958 39.957 75.0048C41.5088 77.3318 42.4344 78.1135 44.2857 79.2679C44.7939 79.586 45.4201 79.7315 46.0099 79.9223C46.5998 80.1132 47.2169 80.2223 47.7977 80.4223C48.4239 80.6404 49.0773 80.7677 49.7034 80.9404C51.2371 81.3494 52.7799 81.813 54.4133 81.813C56.0105 81.813 57.5623 81.5949 59.1142 81.2767C61.2105 80.8495 62.8621 79.6224 64.3595 78.2407C65.149 77.5136 65.6572 76.441 66.0837 75.3865C66.3469 74.723 66.5738 74.0413 66.5919 73.3414C66.6373 71.6143 66.5919 69.8781 66.6101 68.1511C66.6373 66.4059 66.5465 64.6697 66.8188 62.9245C66.9458 62.1337 66.9821 61.2974 67.1727 60.5157C67.3905 59.5976 67.5811 58.6523 68.416 57.9524C68.8697 57.5706 69.3144 57.5161 69.7954 57.5615C69.4777 57.3706 69.1329 57.1979 68.7518 57.0707L68.7699 57.0525Z" fill="#E2AE6D"/>
<path d="M92.8185 48.9172C92.6642 47.4719 92.3648 46.0175 91.7114 44.6268C90.9945 43.0997 90.1323 41.5545 88.762 40.6909C88.036 40.2274 87.2737 39.7638 86.4661 39.4911C86.1757 39.3911 85.858 39.3366 85.5495 39.2911C85.5132 39.3729 85.486 39.4729 85.486 39.5729C85.486 39.7638 85.486 39.9638 85.495 40.1546C85.4224 39.8456 85.3317 39.5456 85.2319 39.2548C84.8961 39.2184 84.5512 39.2002 84.2064 39.1729C83.9977 39.1548 83.7889 39.1366 83.5711 39.1184C84.1792 40.1728 84.3153 41.5726 84.3062 42.7452C84.3062 45.3085 83.5621 47.7901 82.8542 50.2261C82.6274 51.0078 83.8343 51.5532 84.1882 50.7897C84.8144 49.4626 85.4406 48.1264 86.0577 46.7993C86.6566 45.5267 87.3554 44.245 87.7547 42.8907C88.0088 42.0453 88.0723 41.1091 87.918 40.2364C87.9453 40.2546 87.9725 40.2728 87.9906 40.291C88.7439 40.8546 89.4608 41.509 89.9962 42.2816C90.087 42.4089 90.1596 42.5362 90.2412 42.6634C90.8039 45.9903 90.2049 49.5262 88.5805 52.4713C86.4116 56.389 82.464 58.9432 78.0717 59.6159C76.4564 59.8613 74.8138 59.8249 73.2166 59.5249C73.4617 59.7522 73.6976 59.9885 73.9154 60.243C74.233 60.6157 74.6233 60.9339 75.0407 61.2066C76.166 61.961 77.5454 62.3973 78.6616 62.6064C79.56 62.7791 83.1537 62.6609 83.9977 62.3246C85.495 61.7338 87.0196 61.1248 88.2175 59.9976C89.1613 59.0977 90.096 58.1888 90.8856 57.1253C92.1197 55.4618 93.0182 53.7166 92.9546 51.5805C92.9274 50.7079 92.8911 49.8171 92.8004 48.9354L92.8185 48.9172Z" fill="#E2AE6D"/>
<path d="M41.4997 58.1887C40.0296 55.5254 37.7064 53.3712 34.7661 52.3258C32.5972 51.5532 30.1561 51.435 27.9418 52.0804C25.8364 52.6985 23.9942 53.9256 22.1973 55.1618C21.1719 55.8618 20.1464 56.5799 19.0574 57.1889C16.471 57.607 13.8847 58.0797 11.3256 57.407C8.231 56.5889 5.64464 54.3619 3.96577 51.6896C1.94206 48.4718 1.20699 44.6086 1.10717 40.8455C1.08902 40.3001 1.09809 39.7547 1.10717 39.2184C1.04364 39.3366 0.971044 39.4547 0.907519 39.5729C0.353948 40.6273 0.299498 41.8271 0.127074 42.9725C-0.399272 46.4266 0.771395 50.2897 2.18709 53.4257C3.3759 56.0617 4.01115 57.3161 5.70816 59.025C6.20728 59.5249 6.71548 60.0249 7.2146 60.5339C8.40342 61.7428 9.82819 62.3882 11.5252 62.3246C12.7322 62.2791 13.921 62.3609 15.1552 62.1246C16.3531 61.8974 17.5419 61.761 18.6763 61.2793C19.3206 61.0066 20.0193 60.7975 20.709 60.7521C23.0595 60.5884 25.4371 60.6884 27.7693 61.0429C28.6496 61.1793 33.3323 61.6701 33.7407 62.3246C34.022 62.7609 34.5756 62.6155 34.9748 62.9245C35.2108 63.1063 35.4195 63.2881 35.6192 63.4881C35.5466 63.3699 35.4649 63.2517 35.3923 63.1427C34.4576 61.8065 33.3232 60.6612 32.0164 59.6886C29.8475 58.0706 27.2248 57.0707 24.5387 56.8253C25.0559 56.0617 25.5914 55.4618 26.4626 54.9801C30.2377 52.9258 34.9204 54.0983 38.0694 56.7526C38.9134 57.4616 39.6847 58.2615 40.3654 59.1341C40.9643 60.3067 41.3908 61.5701 41.6177 62.87C41.7538 63.6244 42.8247 63.5063 43.0334 62.87C43.5688 61.1975 42.6159 59.534 41.5088 58.1797L41.4997 58.1887Z" fill="#E2AE6D"/>
<path d="M45.3656 46.0357C41.0823 45.7994 36.9169 44.7086 32.8694 43.336C29.1215 42.0635 25.1376 40.7909 22.2155 38.0003C21.7073 37.5186 21.2444 37.0005 20.8088 36.4551C20.9903 37.155 21.1174 37.8731 21.1265 38.6184C21.1265 38.9275 21.0085 39.3274 21.1537 39.5365C21.5348 40.0819 21.3896 40.6273 21.3987 41.2817C21.7799 41.6363 22.161 41.9817 22.5422 42.3089C24.4388 43.936 26.7711 44.6177 29.1487 45.2449C31.6262 45.8994 34.149 46.4175 36.69 46.7901C39.5667 47.2083 42.4616 47.4446 45.3656 47.4992C46.3094 47.5173 46.3003 46.0811 45.3656 46.0357Z" fill="#E2AE6D"/>
<path d="M77.019 36.646C76.9918 35.8007 76.9736 34.9553 77.019 34.1191C77.0553 33.3101 76.901 32.5011 77.2368 31.683C77.4637 31.1194 77.2913 30.4468 77.4909 29.7923C77.6815 29.1742 77.7541 28.438 77.7632 27.7835C77.8176 24.9202 78.0263 22.0297 77.264 19.2118C77.1098 18.6574 76.7921 18.1211 76.7649 17.5666C76.7105 16.5304 76.175 15.6668 75.9209 14.7033C75.6578 13.7125 75.1042 12.8217 74.6958 11.8855C73.9335 10.1221 72.7538 8.67679 71.5377 7.25879C71.5105 7.41332 71.5196 7.57693 71.6103 7.74964C74.233 13.0581 74.5506 19.13 73.9789 24.9293C73.4888 29.8741 72.7175 36.0461 68.4976 39.3093C66.2924 41.0182 63.5699 41.9908 61.9909 44.4178C61.5644 45.0723 62.3811 45.7267 62.9891 45.4177C63.8331 44.9904 71.3472 40.8091 73.1622 39.9547C74.4326 39.3548 75.7939 38.9639 77.1007 38.4549C77.2731 38.5003 77.4727 38.4822 77.6452 38.3822C77.9537 38.2186 78.2532 38.0186 78.5345 37.8186C78.2623 37.6823 77.9991 37.5368 77.7269 37.3914C77.5907 37.3187 77.4455 37.246 77.3094 37.1732C77.1551 37.0914 77.019 36.8278 77.0099 36.646H77.019Z" fill="#E2AE6D"/>
<path d="M56.6004 3.74103C55.6748 3.68649 54.7128 3.80465 53.7872 3.99554C52.8252 4.19552 51.8633 4.49548 50.9739 4.89543C50.4476 5.13176 50.1663 5.0045 49.8668 4.64091C49.7579 4.51366 49.6853 4.35913 49.5946 4.22278C49.3586 3.89555 49.1227 3.55923 48.8686 3.24109C48.8504 3.7683 48.7597 4.28641 48.5782 4.79544C48.2152 5.82258 47.4529 6.57704 46.8448 7.45874C46.2822 8.26773 45.9011 9.19489 45.6833 10.1493C45.3656 11.5401 45.3566 12.9671 45.4655 14.3852C45.4201 14.6397 45.3838 14.9033 45.3475 15.1669C45.3293 15.2759 45.3203 15.3396 45.3112 15.4032C45.2749 15.685 45.4201 15.885 45.6197 16.0031C45.6379 16.1849 45.6651 16.3667 45.6833 16.5485C45.7831 17.3757 46.8085 17.5393 47.1171 16.7394C48.6871 12.7399 50.3659 8.54043 53.7418 5.69533C54.8217 4.78635 56.0105 4.15916 57.2992 3.72285C57.0632 3.74103 56.8364 3.75012 56.6004 3.74103Z" fill="#E2AE6D"/>
<path d="M41.5179 4.71359C40.683 3.65917 39.3671 2.97744 37.7427 3.03198C28.459 3.33194 19.2389 26.8381 29.5753 26.7017C32.8876 26.6563 33.6862 23.4203 34.757 20.9388C36.563 16.7212 40.6467 13.7579 42.1985 9.56753C42.8519 7.8132 42.5252 5.99525 41.5179 4.72268V4.71359Z" fill="#FDFCF1"/>
<path d="M67.2272 11.8945C67.0094 9.64025 65.031 8.21316 62.9801 7.65868C60.8566 7.08603 58.5334 7.24055 56.4824 7.995C53.5966 9.05851 50.4748 11.5309 50.2298 14.8487C50.1391 16.094 50.6473 17.4484 51.7272 18.0756C55.9924 20.5389 67.8624 18.4028 67.2272 11.8945Z" fill="#FDFCF1"/>
<path d="M17.6508 42.8816C15.3548 37.6459 1.69704 32.7465 4.1019 40.3455C5.1546 43.6815 7.87708 46.4357 11.1894 47.5355C12.7594 48.0537 14.5835 48.19 15.981 47.2992C18.0138 46.0084 18.3314 44.4268 17.6599 42.8725L17.6508 42.8816Z" fill="#FDFCF1"/>
<path d="M80.6127 42.9725C80.6399 42.7998 80.6127 42.627 80.531 42.4816C80.5219 42.3998 80.5219 42.318 80.4947 42.2453C80.1862 40.8909 78.7251 40.4909 77.4909 40.6C77.2368 40.6182 76.9918 40.6637 76.7468 40.7182C74.596 40.8 72.4815 41.8362 71.0386 43.4269C70.2673 44.2723 69.6774 45.2722 69.3325 46.3629C68.9877 47.481 68.8334 48.9263 69.75 49.8171C70.6666 50.7169 72.2002 50.5351 73.3437 50.2897C74.478 50.0443 75.5761 49.5535 76.529 48.8899C76.6469 48.8081 76.7558 48.7172 76.8738 48.6263C77.0462 48.5081 77.2187 48.3809 77.382 48.2627C78.3621 47.5537 79.2968 46.7265 79.923 45.6721C80.3767 44.8995 80.7307 43.8996 80.6127 42.9725Z" fill="#FDFCF1"/>
<path d="M52.2808 54.6437C51.2099 53.4711 46.6089 51.0351 45.0208 52.1985C43.4327 53.362 46.4183 59.5067 46.3094 61.8337C46.2459 63.2426 46.3004 64.7424 47.0717 65.9241C50.4839 71.1053 54.4678 62.1882 54.5949 59.4249C54.6584 57.9615 53.6692 56.1708 52.2717 54.6437H52.2808Z" fill="#FDFCF1"/>
<path d="M44.1677 30.0468C44.0044 29.7378 43.596 29.5014 43.4145 28.956C43.0969 27.9925 42.3437 27.2562 41.4634 26.7836C40.9008 26.2927 40.2383 25.9291 39.4397 25.811C37.7064 25.5656 37.1891 26.929 35.7916 27.5199C35.5375 27.6289 35.2652 27.6744 35.0202 27.7835C32.7696 28.7652 35.0656 30.7013 36.2272 31.4194C37.8243 32.4101 39.8118 32.7646 41.6449 32.3283C42.38 32.1556 43.4599 31.7011 43.9227 31.0649C44.2857 30.5649 44.2948 30.2831 44.1768 30.0468H44.1677Z" fill="#FDFCF1"/>
</g>
<defs>
<clipPath id="clip0_72_53">
<rect width="93" height="82" fill="white"/>
</clipPath>
</defs>
</svg>
