<svg preserveAspectRatio="none" width="100%" height="100%" overflow="visible" style="display: block;" viewBox="0 0 58.2243 49.5813" fill="none" xmlns="http://www.w3.org/2000/svg">
<g id="Vector">
<path d="M27.0786 36.123V24.7897C27.0786 23.6161 27.988 22.6647 29.1098 22.6647C30.2317 22.6647 31.1411 23.6161 31.1411 24.7897V36.123C31.1411 37.2966 30.2317 38.248 29.1098 38.248C27.988 38.248 27.0786 37.2966 27.0786 36.123Z" fill="var(--fill-0, #EF4444)"/>
<path d="M29.1363 45.3313C30.2581 45.3313 31.1675 46.2827 31.1675 47.4563C31.1675 48.6299 30.2581 49.5813 29.1363 49.5813H29.1098C27.988 49.5813 27.0786 48.6299 27.0786 47.4563C27.0786 46.2827 27.988 45.3313 29.1098 45.3313H29.1363Z" fill="var(--fill-0, #EF4444)"/>
<path d="M54.1618 29.0407C54.1618 26.2228 53.091 23.5183 51.1863 21.5257C49.2817 19.5337 46.6987 18.4157 44.0055 18.4157H39.1575C38.2593 18.4156 37.4676 17.7971 37.2109 16.8967C36.3734 13.9589 34.8216 11.2989 32.7067 9.17693C30.5912 7.05473 27.9838 5.54358 25.1424 4.79135C22.3011 4.03914 19.3221 4.0714 16.4964 4.88542C13.6706 5.69949 11.0948 7.26633 9.02201 9.43425C6.94953 11.6019 5.45009 14.2952 4.67122 17.2508C3.89242 20.2068 3.86026 23.3259 4.57865 26.2987C5.2971 29.2711 6.74282 31.9986 8.77075 34.2121C10.7987 36.4251 13.3419 38.0502 16.1499 38.9269C17.224 39.2629 17.8349 40.4453 17.5146 41.5693C17.1938 42.6939 16.0611 43.3355 14.9862 42.9998C11.5038 41.9124 8.35229 39.8953 5.8376 37.1506C3.32278 34.4056 1.53125 31.0252 0.640457 27.339C-0.250252 23.653 -0.211498 19.7873 0.754186 16.1219C1.71989 12.4568 3.57981 9.11738 6.14969 6.42937C8.71984 3.74121 11.9134 1.79707 15.4173 0.787602C18.9213 -0.221842 22.6162 -0.261367 26.1395 0.671391C29.6626 1.6042 32.8951 3.477 35.5182 6.1084C37.7719 8.36943 39.5086 11.1241 40.6122 14.1657H44.0055C47.7762 14.1657 51.3922 15.7318 54.0586 18.5208C56.7252 21.3104 58.2243 25.0956 58.2243 29.0407C58.224 32.9854 56.7249 36.7684 54.0586 39.5578C51.3922 42.347 47.7763 43.9157 44.0055 43.9157H42.6514C41.5299 43.9156 40.6206 42.9638 40.6201 41.7907C40.6201 40.6171 41.5296 39.6658 42.6514 39.6657H44.0055C46.6989 39.6657 49.2817 38.5451 51.1863 36.5529C53.0908 34.5606 54.1615 31.8582 54.1618 29.0407Z" fill="var(--fill-0, #EF4444)"/>
</g>
</svg>
