<svg preserveAspectRatio="none" width="100%" height="100%" overflow="visible" style="display: block;" viewBox="0 0 58.2292 55.25" fill="none" xmlns="http://www.w3.org/2000/svg">
<g id="Vector">
<path d="M21.6667 53.125V50.2917C21.6667 49.1181 22.5761 48.1667 23.6979 48.1667C24.8197 48.1667 25.7292 49.1181 25.7292 50.2917V53.125C25.7292 54.2986 24.8197 55.25 23.6979 55.25C22.5761 55.25 21.6667 54.2986 21.6667 53.125Z" fill="var(--fill-0, #D1D5DB)"/>
<path d="M21.6667 4.95833V2.125C21.6667 0.951395 22.5761 0 23.6979 0C24.8197 0 25.7292 0.951395 25.7292 2.125V4.95833C25.7292 6.13194 24.8197 7.08333 23.6979 7.08333C22.5761 7.08333 21.6667 6.13194 21.6667 4.95833Z" fill="var(--fill-0, #D1D5DB)"/>
<path d="M13.5417 27.625C13.5417 24.8071 14.6125 22.1054 16.5171 20.1128C18.4218 18.1202 21.0043 17 23.6979 17C24.8197 17 25.7292 17.9514 25.7292 19.125C25.7292 20.2986 24.8197 21.25 23.6979 21.25C22.0818 21.25 20.5322 21.9221 19.3894 23.1177C18.2466 24.3132 17.6042 25.9342 17.6042 27.625C17.6042 29.3158 18.2466 30.9368 19.3894 32.1323C20.5322 33.3279 22.0818 34 23.6979 34C24.8197 34 25.7292 34.9514 25.7292 36.125C25.7292 37.2986 24.8197 38.25 23.6979 38.25C21.0043 38.25 18.4218 37.1298 16.5171 35.1372C14.6125 33.1446 13.5417 30.4429 13.5417 27.625Z" fill="var(--fill-0, #D1D5DB)"/>
<path d="M38.279 41.1165L45.7269 42.5332C46.8303 42.7431 47.5641 43.8498 47.3641 45.0041C47.1635 46.1583 46.1056 46.926 45.0022 46.7168L39.0513 45.5824L36.3483 51.2407C35.8467 52.2901 34.6273 52.7165 33.6241 52.1925C32.621 51.6679 32.2134 50.3921 32.7142 49.3426L36.0997 42.2593C36.5032 41.4149 37.3912 40.9482 38.279 41.1165Z" fill="var(--fill-0, #D1D5DB)"/>
<path d="M33.6241 3.05745C34.6273 2.53345 35.8467 2.95994 36.3483 4.00928L39.0513 9.66488L45.0022 8.5332C46.1056 8.32402 47.1635 9.09166 47.3641 10.2459C47.5641 11.4002 46.8303 12.5069 45.7269 12.7168L38.279 14.1335C37.3912 14.3018 36.5032 13.8351 36.0997 12.9907L32.7142 5.90739C32.2134 4.85789 32.621 3.58212 33.6241 3.05745Z" fill="var(--fill-0, #D1D5DB)"/>
<path d="M56.1979 25.5C57.3197 25.5 58.2292 26.4514 58.2292 27.625C58.2292 28.7986 57.3197 29.75 56.1979 29.75H39.8501L36.8005 36.125L44.4733 52.1759C44.9742 53.2254 44.5665 54.5012 43.5634 55.0259C42.5602 55.5499 41.3408 55.1234 40.8392 54.0741L32.7142 37.0741C32.429 36.4764 32.429 35.7736 32.7142 35.1759L36.7767 26.6759C37.1208 25.956 37.8244 25.5 38.5938 25.5H56.1979Z" fill="var(--fill-0, #D1D5DB)"/>
<path d="M40.8392 1.17594C41.3408 0.126609 42.5602 -0.299879 43.5634 0.224121C44.5665 0.748789 44.9742 2.02456 44.4733 3.07406L36.8005 19.125L40.4108 26.6759C40.9117 27.7254 40.504 29.0012 39.5009 29.5259C38.4977 30.0499 37.2783 29.6234 36.7767 28.5741L32.7142 20.0741C32.429 19.4764 32.429 18.7736 32.7142 18.1759L40.8392 1.17594Z" fill="var(--fill-0, #D1D5DB)"/>
<path d="M4.73958 25.5C5.86141 25.5 6.77083 26.4514 6.77083 27.625C6.77083 28.7986 5.86141 29.75 4.73958 29.75H2.03125C0.909422 29.75 0 28.7986 0 27.625C0 26.4514 0.909422 25.5 2.03125 25.5H4.73958Z" fill="var(--fill-0, #D1D5DB)"/>
<path d="M49.1573 20.6828C49.8306 19.7447 51.1034 19.5555 52.0005 20.2594C52.8973 20.9638 53.0781 22.2953 52.4052 23.2339L49.2552 27.625L52.4052 32.0161C53.0781 32.9547 52.8973 34.2862 52.0005 34.9906C51.1034 35.6945 49.8306 35.5053 49.1573 34.5672L45.0948 28.9006C44.5531 28.145 44.5531 27.105 45.0948 26.3494L49.1573 20.6828Z" fill="var(--fill-0, #D1D5DB)"/>
<path d="M6.93312 42.1592C7.7264 41.3296 9.01227 41.3294 9.80544 42.1592C10.5983 42.989 10.5983 44.3343 9.80544 45.1641L7.90907 47.148C7.11589 47.9775 5.82995 47.9775 5.03676 47.148C4.24359 46.3182 4.24377 44.973 5.03676 44.1431L6.93312 42.1592Z" fill="var(--fill-0, #D1D5DB)"/>
<path d="M5.03676 8.10256C5.83001 7.27269 7.11582 7.27269 7.90908 8.10256L9.80544 10.0864C10.5982 10.9164 10.5985 12.2616 9.80544 13.0913C9.01236 13.921 7.72642 13.9206 6.93312 13.0913L5.03676 11.1074C4.24351 10.2776 4.24351 8.93242 5.03676 8.10256Z" fill="var(--fill-0, #D1D5DB)"/>
</g>
</svg>
