<svg preserveAspectRatio="none" width="100%" height="100%" overflow="visible" style="display: block;" viewBox="0 0 58.2292 60.9167" fill="none" xmlns="http://www.w3.org/2000/svg">
<g id="Vector">
<path d="M37.9167 30.4583C37.9167 25.3727 33.9758 21.25 29.1146 21.25C24.2533 21.25 20.3125 25.3727 20.3125 30.4583C20.3125 35.544 24.2533 39.6667 29.1146 39.6667C33.9758 39.6667 37.9167 35.544 37.9167 30.4583ZM41.9792 30.4583C41.9792 37.8912 36.2195 43.9167 29.1146 43.9167C22.0097 43.9167 16.25 37.8912 16.25 30.4583C16.25 23.0255 22.0097 17 29.1146 17C36.2195 17 41.9792 23.0255 41.9792 30.4583Z" fill="var(--fill-0, #EAB308)"/>
<path d="M27.0833 7.79167V2.125C27.0833 0.951395 27.9928 0 29.1146 0C30.2364 0 31.1458 0.951395 31.1458 2.125V7.79167C31.1458 8.96527 30.2364 9.91667 29.1146 9.91667C27.9928 9.91667 27.0833 8.96527 27.0833 7.79167Z" fill="var(--fill-0, #EAB308)"/>
<path d="M27.0833 58.7917V53.125C27.0833 51.9514 27.9928 51 29.1146 51C30.2364 51 31.1458 51.9514 31.1458 53.125V58.7917C31.1458 59.9653 30.2364 60.9167 29.1146 60.9167C27.9928 60.9167 27.0833 59.9653 27.0833 58.7917Z" fill="var(--fill-0, #EAB308)"/>
<path d="M8.53051 8.92423C9.32376 8.09436 10.6096 8.09436 11.4028 8.92423L15.222 12.9197C16.0148 13.7496 16.0151 15.0948 15.222 15.9246C14.4289 16.7543 13.143 16.754 12.3497 15.9246L8.53051 11.9291C7.73726 11.0992 7.73726 9.75409 8.53051 8.92423Z" fill="var(--fill-0, #EAB308)"/>
<path d="M43.0076 44.9926C43.8008 44.1627 45.0867 44.1627 45.8799 44.9926L49.6991 48.988C50.4919 49.8179 50.4922 51.1632 49.6991 51.9929C48.906 52.8226 47.6201 52.8223 46.8268 51.9929L43.0076 47.9974C42.2143 47.1676 42.2143 45.8224 43.0076 44.9926Z" fill="var(--fill-0, #EAB308)"/>
<path d="M7.44792 28.3333C8.56975 28.3333 9.47917 29.2847 9.47917 30.4583C9.47917 31.6319 8.56975 32.5833 7.44792 32.5833H2.03125C0.909422 32.5833 0 31.6319 0 30.4583C0 29.2847 0.909422 28.3333 2.03125 28.3333H7.44792Z" fill="var(--fill-0, #EAB308)"/>
<path d="M56.1979 28.3333C57.3197 28.3333 58.2292 29.2847 58.2292 30.4583C58.2292 31.6319 57.3197 32.5833 56.1979 32.5833H50.7813C49.6594 32.5833 48.75 31.6319 48.75 30.4583C48.75 29.2847 49.6594 28.3333 50.7813 28.3333H56.1979Z" fill="var(--fill-0, #EAB308)"/>
<path d="M12.3497 44.9926C13.143 44.1629 14.4288 44.1628 15.222 44.9926C16.015 45.8224 16.015 47.1676 15.222 47.9974L11.4028 51.9929C10.6096 52.8225 9.32371 52.8225 8.53051 51.9929C7.73733 51.1631 7.73747 49.8179 8.53051 48.988L12.3497 44.9926Z" fill="var(--fill-0, #EAB308)"/>
<path d="M46.8268 8.92423C47.62 8.09458 48.9059 8.09444 49.6991 8.92423C50.4921 9.75403 50.4921 11.0993 49.6991 11.9291L45.8799 15.9246C45.0867 16.7541 43.8008 16.7541 43.0076 15.9246C42.2144 15.0948 42.2146 13.7496 43.0076 12.9197L46.8268 8.92423Z" fill="var(--fill-0, #EAB308)"/>
</g>
</svg>
