<svg preserveAspectRatio="none" width="100%" height="100%" overflow="visible" style="display: block;" viewBox="0 0 12.5417 13.4375" fill="none" xmlns="http://www.w3.org/2000/svg">
<g id="Vector">
<path d="M8.16667 6.71875C8.16667 5.59692 7.31787 4.6875 6.27083 4.6875C5.22379 4.6875 4.375 5.59692 4.375 6.71875C4.375 7.84058 5.22379 8.75 6.27083 8.75C7.31787 8.75 8.16667 7.84058 8.16667 6.71875ZM9.04167 6.71875C9.04167 8.35835 7.80112 9.6875 6.27083 9.6875C4.74054 9.6875 3.5 8.35835 3.5 6.71875C3.5 5.07915 4.74054 3.75 6.27083 3.75C7.80112 3.75 9.04167 5.07915 9.04167 6.71875Z" fill="var(--fill-0, #EAB308)"/>
<path d="M5.83333 1.71875V0.46875C5.83333 0.209867 6.02921 0 6.27083 0C6.51246 0 6.70833 0.209867 6.70833 0.46875V1.71875C6.70833 1.97763 6.51246 2.1875 6.27083 2.1875C6.02921 2.1875 5.83333 1.97763 5.83333 1.71875Z" fill="var(--fill-0, #EAB308)"/>
<path d="M5.83333 12.9688V11.7188C5.83333 11.4599 6.02921 11.25 6.27083 11.25C6.51246 11.25 6.70833 11.4599 6.70833 11.7188V12.9688C6.70833 13.2276 6.51246 13.4375 6.27083 13.4375C6.02921 13.4375 5.83333 13.2276 5.83333 12.9688Z" fill="var(--fill-0, #EAB308)"/>
<path d="M1.83734 1.96858C2.00819 1.78552 2.28514 1.78552 2.45599 1.96858L3.27858 2.84993C3.44935 3.03299 3.44941 3.32974 3.27858 3.51277C3.10776 3.69579 2.83079 3.69573 2.65993 3.51277L1.83734 2.63142C1.66649 2.44836 1.66649 2.15164 1.83734 1.96858Z" fill="var(--fill-0, #EAB308)"/>
<path d="M9.26317 9.92483C9.43403 9.74177 9.71097 9.74177 9.88183 9.92483L10.7044 10.8062C10.8752 10.9892 10.8752 11.286 10.7044 11.469C10.5336 11.652 10.2566 11.652 10.0858 11.469L9.26317 10.5877C9.09232 10.4046 9.09232 10.1079 9.26317 9.92483Z" fill="var(--fill-0, #EAB308)"/>
<path d="M1.60417 6.25C1.84579 6.25 2.04167 6.45987 2.04167 6.71875C2.04167 6.97763 1.84579 7.1875 1.60417 7.1875H0.4375C0.195875 7.1875 0 6.97763 0 6.71875C0 6.45987 0.195875 6.25 0.4375 6.25H1.60417Z" fill="var(--fill-0, #EAB308)"/>
<path d="M12.1042 6.25C12.3458 6.25 12.5417 6.45987 12.5417 6.71875C12.5417 6.97763 12.3458 7.1875 12.1042 7.1875H10.9375C10.6959 7.1875 10.5 6.97763 10.5 6.71875C10.5 6.45987 10.6959 6.25 10.9375 6.25H12.1042Z" fill="var(--fill-0, #EAB308)"/>
<path d="M2.65993 9.92483C2.83079 9.74182 3.10774 9.74179 3.27858 9.92483C3.44938 10.1079 3.44938 10.4046 3.27858 10.5877L2.45599 11.469C2.28515 11.652 2.00818 11.652 1.83734 11.469C1.6665 11.286 1.66653 10.9892 1.83734 10.8062L2.65993 9.92483Z" fill="var(--fill-0, #EAB308)"/>
<path d="M10.0858 1.96858C10.2566 1.78557 10.5336 1.78554 10.7044 1.96858C10.8752 2.15162 10.8752 2.44837 10.7044 2.63142L9.88183 3.51277C9.71098 3.69576 9.43402 3.69576 9.26317 3.51277C9.09234 3.32973 9.09237 3.03299 9.26317 2.84993L10.0858 1.96858Z" fill="var(--fill-0, #EAB308)"/>
</g>
</svg>
