<svg preserveAspectRatio="none" width="100%" height="100%" overflow="visible" style="display: block;" viewBox="0 0 85.9921 82.0533" fill="none" xmlns="http://www.w3.org/2000/svg">
<g id="Vector">
<path d="M79.9907 59.9596C79.9907 57.8872 79.6039 55.833 78.8501 53.9183C78.0963 52.0043 76.9887 50.2668 75.5962 48.8018C74.2036 47.3367 72.5524 46.1714 70.7329 45.3784C68.913 44.5853 66.9606 44.1783 64.9907 44.1783H57.8306C56.5042 44.178 55.3346 43.2595 54.9556 41.9221C53.6308 37.2486 51.0989 33.0527 47.6392 29.8067C44.179 26.5603 39.9269 24.3908 35.3618 23.5394C30.7973 22.6882 26.0972 23.1892 21.7876 24.986C17.4776 26.7832 13.7267 29.8087 10.9556 33.7192C8.18533 37.6288 6.50325 42.2715 6.09621 47.1291C5.68943 51.988 6.57215 56.8737 8.6509 61.2336C10.7296 65.5931 13.921 69.2582 17.8657 71.8202C21.8104 74.3821 26.355 75.7393 30.9907 75.7408H64.9907C66.9606 75.7408 68.913 75.3339 70.7329 74.5408C72.5524 73.7478 74.2036 72.5825 75.5962 71.1174C76.9887 69.6524 78.0963 67.9149 78.8501 66.0009C79.6039 64.0862 79.9907 62.032 79.9907 59.9596ZM85.9907 59.9596C85.9907 62.8606 85.4481 65.733 84.3931 68.4132C83.338 71.093 81.7916 73.5293 79.8423 75.5806C77.8923 77.6322 75.5737 79.2622 73.0259 80.3725C70.4786 81.4823 67.7478 82.0533 64.9907 82.0533H30.9907C25.2419 82.0518 19.6053 80.3687 14.7134 77.1916C9.82189 74.0145 5.86513 69.467 3.28762 64.0611C0.710698 58.6556 -0.384484 52.6024 0.119648 46.5784C0.624035 40.5537 2.71103 34.7953 6.14699 29.9464C9.5832 25.0975 14.2323 21.3459 19.5767 19.1174C24.9207 16.8892 30.7486 16.2701 36.4087 17.3256C42.0693 18.3813 47.3407 21.0715 51.6314 25.097C55.3575 28.5929 58.2152 32.9768 59.979 37.8658H64.9907C67.7478 37.8658 70.4786 38.4369 73.0259 39.5467C75.5737 40.657 77.8923 42.287 79.8423 44.3386C81.7916 46.3899 83.338 48.8261 84.3931 51.5059C85.4481 54.1861 85.9907 57.0586 85.9907 59.9596Z" fill="var(--fill-0, #9CA3AF)"/>
<path d="M79.9921 32.6062C79.9921 30.0953 79.0427 27.6872 77.3554 25.9115C75.6677 24.136 73.3788 23.1377 70.9921 23.1375H62.164C60.8232 23.1375 59.6441 22.2009 59.2773 20.8442C58.1053 16.5057 55.5738 12.7108 52.0937 10.0768C48.6134 7.4429 44.3879 6.1224 40.1054 6.3329C35.8235 6.54366 31.7351 8.27237 28.5038 11.2358C25.2722 14.1996 23.087 18.226 22.3046 22.6607C22.0022 24.3743 20.4372 25.5059 18.8085 25.1882C17.1799 24.8702 16.1046 23.2234 16.4062 21.51C17.4356 15.6755 20.3107 10.3761 24.5624 6.47674C28.8139 2.57807 34.1943 0.305533 39.828 0.0286164C45.4618 -0.247977 51.0192 1.48697 55.5976 4.95204C59.5517 7.94467 62.5719 12.0772 64.3163 16.825H70.9921C74.9701 16.8252 78.7847 18.489 81.5976 21.4484C84.4102 24.4079 85.9921 28.4211 85.9921 32.6062C85.9917 34.3488 84.6484 35.7621 82.9921 35.7625C81.3355 35.7625 79.9925 34.349 79.9921 32.6062Z" fill="var(--fill-0, #9CA3AF)"/>
</g>
</svg>
