<svg xmlns="http://www.w3.org/2000/svg" width="86" height="74" viewBox="0 0 86 74" fill="none">
  <path d="M51 50.4993C52.7425 50.4993 54.4605 50.934 56.0117 51.7691C57.5625 52.6044 58.9029 53.8169 59.9219 55.3035C60.9408 56.7908 61.612 58.5132 61.875 60.3255C62.1378 62.1379 61.9844 63.9905 61.4336 65.7298C60.8824 67.4695 59.9472 69.0484 58.7031 70.3327C57.4594 71.6164 55.9443 72.5723 54.2812 73.119C52.618 73.6656 50.854 73.7871 49.1367 73.4766C47.419 73.1657 45.7928 72.4316 44.3984 71.3313C43.0737 70.2855 42.8074 68.3077 43.8008 66.9134C44.7949 65.5189 46.6745 65.2346 48 66.2805C48.6337 66.7806 49.3716 67.1132 50.1523 67.2545C50.9331 67.3958 51.736 67.3428 52.4922 67.0942C53.2473 66.8459 53.935 66.4111 54.5 65.8284C55.0652 65.245 55.4916 64.5269 55.7422 63.7366C55.9927 62.9458 56.0609 62.103 55.9414 61.279C55.8219 60.4552 55.5178 59.6742 55.0547 58.9981C54.5914 58.3219 53.9826 57.771 53.2773 57.3912C52.5722 57.0115 51.7922 56.8118 51 56.8118H3C1.34315 56.8118 0 55.3987 0 53.6555C0 51.9124 1.34315 50.4993 3 50.4993H51Z" fill="#9CA3AF"/>
  <path d="M74.168 12.6777C76.3748 12.8871 78.4936 13.6903 80.3242 15.0038C82.1547 16.3173 83.638 18.1011 84.6289 20.1861C85.6194 22.2709 86.0879 24.5894 85.9883 26.9178C85.8884 29.2462 85.2233 31.5106 84.0586 33.4933C82.8938 35.4758 81.2668 37.1132 79.332 38.2482C77.3966 39.3835 75.2159 39.9784 73 39.9784H3C1.34315 39.9784 0 38.5653 0 36.8222C1.03082e-06 35.079 1.34315 33.6659 3 33.6659H73C74.1932 33.6659 75.368 33.3443 76.4102 32.733C77.4516 32.1218 78.3261 31.2399 78.9531 30.1727C79.5801 29.1053 79.9383 27.8876 79.9922 26.6342C80.0458 25.3807 79.7948 24.1318 79.2617 23.0095C78.7284 21.8873 77.9303 20.9262 76.9453 20.219C75.9596 19.5117 74.8172 19.0783 73.6289 18.9655C72.4405 18.8528 71.2425 19.0634 70.1523 19.5738C69.063 20.0842 68.114 20.8797 67.3984 21.8834C66.4041 23.2768 64.5243 23.5577 63.1992 22.5122C61.8748 21.466 61.6078 19.4883 62.6016 18.0943C63.931 16.2298 65.6908 14.7513 67.7148 13.8037C69.7392 12.8562 71.9613 12.4683 74.168 12.6777Z" fill="#9CA3AF"/>
  <path d="M37.1367 0.167746C38.854 -0.142814 40.618 -0.0213194 42.2812 0.52529C43.9443 1.07206 45.4594 2.0279 46.7031 3.31167C47.9472 4.59596 48.8824 6.17488 49.4336 7.91453C49.9844 9.65382 50.1378 11.5064 49.875 13.3188C49.612 15.1311 48.9408 16.8535 47.9219 18.3408C46.9029 19.8275 45.5625 21.04 44.0117 21.8752C42.4605 22.7104 40.7425 23.1451 39 23.1451H3C1.34315 23.1451 0 21.732 0 19.9888C0 18.2457 1.34315 16.8326 3 16.8326H39C39.7922 16.8326 40.5722 16.6329 41.2773 16.2531C41.9826 15.8733 42.5914 15.3224 43.0547 14.6462C43.5178 13.9701 43.8219 13.1891 43.9414 12.3653C44.0609 11.5413 43.9927 10.6985 43.7422 9.90774C43.4916 9.11748 43.0652 8.39937 42.5 7.8159C41.935 7.23322 41.2473 6.79845 40.4922 6.55011C39.736 6.30158 38.9331 6.24852 38.1523 6.38983C37.3716 6.53118 36.6337 6.86377 36 7.36383C34.6745 8.40972 32.7949 8.12546 31.8008 6.73094C30.8074 5.33667 31.0737 3.35886 32.3984 2.31301C33.7928 1.21276 35.419 0.478642 37.1367 0.167746Z" fill="#9CA3AF"/>
</svg>
