<svg preserveAspectRatio="none" width="100%" height="100%" overflow="visible" style="display: block;" viewBox="0 0 92.2708 96.75" fill="none" xmlns="http://www.w3.org/2000/svg">
<g id="Vector">
<path d="M60.0833 48.375C60.0833 40.2978 53.8386 33.75 46.1354 33.75C38.4322 33.75 32.1875 40.2978 32.1875 48.375C32.1875 56.4522 38.4322 63 46.1354 63C53.8386 63 60.0833 56.4522 60.0833 48.375ZM66.5208 48.375C66.5208 60.1801 57.394 69.75 46.1354 69.75C34.8769 69.75 25.75 60.1801 25.75 48.375C25.75 36.5699 34.8769 27 46.1354 27C57.394 27 66.5208 36.5699 66.5208 48.375Z" fill="var(--fill-0, #EAB308)"/>
<path d="M42.9167 12.375V3.375C42.9167 1.51104 44.3578 0 46.1354 0C47.9131 0 49.3542 1.51104 49.3542 3.375V12.375C49.3542 14.239 47.9131 15.75 46.1354 15.75C44.3578 15.75 42.9167 14.239 42.9167 12.375Z" fill="var(--fill-0, #EAB308)"/>
<path d="M42.9167 93.375V84.375C42.9167 82.511 44.3578 81 46.1354 81C47.9131 81 49.3542 82.511 49.3542 84.375V93.375C49.3542 95.239 47.9131 96.75 46.1354 96.75C44.3578 96.75 42.9167 95.239 42.9167 93.375Z" fill="var(--fill-0, #EAB308)"/>
<path d="M13.5176 14.1738C14.7746 12.8557 16.8121 12.8557 18.0691 14.1738L24.121 20.5195C25.3773 21.8375 25.3778 23.9741 24.121 25.2919C22.8642 26.6097 20.8266 26.6093 19.5695 25.2919L13.5176 18.9462C12.2606 17.6282 12.2606 15.4918 13.5176 14.1738Z" fill="var(--fill-0, #EAB308)"/>
<path d="M68.1505 71.4588C69.4075 70.1408 71.445 70.1408 72.702 71.4588L78.7539 77.8045C80.0103 79.1225 80.0107 81.2591 78.7539 82.5769C77.4972 83.8947 75.4595 83.8942 74.2024 82.5769L68.1505 76.2312C66.8935 74.9132 66.8935 72.7768 68.1505 71.4588Z" fill="var(--fill-0, #EAB308)"/>
<path d="M11.8021 45C13.5798 45 15.0208 46.511 15.0208 48.375C15.0208 50.239 13.5798 51.75 11.8021 51.75H3.21875C1.44108 51.75 0 50.239 0 48.375C0 46.511 1.44108 45 3.21875 45H11.8021Z" fill="var(--fill-0, #EAB308)"/>
<path d="M89.0521 45C90.8298 45 92.2708 46.511 92.2708 48.375C92.2708 50.239 90.8298 51.75 89.0521 51.75H80.4688C78.6911 51.75 77.25 50.239 77.25 48.375C77.25 46.511 78.6911 45 80.4688 45H89.0521Z" fill="var(--fill-0, #EAB308)"/>
<path d="M19.5695 71.4588C20.8265 70.1411 22.8641 70.1409 24.121 71.4588C25.3776 72.7767 25.3776 74.9133 24.121 76.2312L18.0691 82.5769C16.8122 83.8945 14.7745 83.8945 13.5176 82.5769C12.2607 81.259 12.2609 79.1225 13.5176 77.8045L19.5695 71.4588Z" fill="var(--fill-0, #EAB308)"/>
<path d="M74.2024 14.1738C75.4594 12.8561 77.497 12.8559 78.7539 14.1738C80.0105 15.4917 80.0105 17.6283 78.7539 18.9462L72.702 25.2919C71.4451 26.6095 69.4074 26.6095 68.1505 25.2919C66.8936 23.974 66.8938 21.8375 68.1505 20.5195L74.2024 14.1738Z" fill="var(--fill-0, #EAB308)"/>
</g>
</svg>
