<svg preserveAspectRatio="none" width="100%" height="100%" overflow="visible" style="display: block;" viewBox="0 0 85.996 90.4792" fill="none" xmlns="http://www.w3.org/2000/svg">
<g id="Vector">
<path d="M39.996 11.5729V3.15625C39.996 1.4131 41.3392 0 42.996 0C44.6529 0 45.996 1.4131 45.996 3.15625V11.5729C45.996 13.3161 44.6529 14.7292 42.996 14.7292C41.3392 14.7292 39.996 13.3161 39.996 11.5729Z" fill="var(--fill-0, #FB923C)"/>
<path d="M12.5949 13.2551C13.7665 12.0225 15.6655 12.0225 16.8371 13.2551L22.4777 19.1895C23.6487 20.4221 23.6491 22.4203 22.4777 23.6526C21.3064 24.885 19.4072 24.8846 18.2355 23.6526L12.5949 17.7182C11.4233 16.4856 11.4233 14.4877 12.5949 13.2551Z" fill="var(--fill-0, #FB923C)"/>
<path d="M82.996 42.0833C84.6529 42.0833 85.996 43.4964 85.996 45.2396C85.996 46.9827 84.6529 48.3958 82.996 48.3958H74.996C73.3392 48.3958 71.996 46.9827 71.996 45.2396C71.996 43.4964 73.3392 42.0833 74.996 42.0833H82.996Z" fill="var(--fill-0, #FB923C)"/>
<path d="M69.1555 13.2551C70.3271 12.0228 72.2263 12.0226 73.3977 13.2551C74.5689 14.4876 74.5689 16.4857 73.3977 17.7182L67.7571 23.6526C66.5856 24.8848 64.6864 24.8848 63.5149 23.6526C62.3435 22.4202 62.3437 20.4221 63.5149 19.1895L69.1555 13.2551Z" fill="var(--fill-0, #FB923C)"/>
<path d="M43.8614 25.2641C47.4462 25.4361 50.9129 26.6734 53.8575 28.8313C56.8023 30.9899 59.1065 33.9828 60.502 37.4617C61.8972 40.9402 62.3285 44.7629 61.7442 48.488C61.4743 50.2079 59.9297 51.3734 58.295 51.0895C56.6604 50.8054 55.5525 49.1803 55.8223 47.4606C56.2223 44.9115 55.9294 42.2955 54.9746 39.9152C54.0198 37.535 52.4426 35.4864 50.4278 34.0096C48.4132 32.5334 46.0404 31.686 43.5879 31.5684C41.1355 31.4511 38.7021 32.0704 36.5684 33.3479C35.1288 34.2096 33.2983 33.6784 32.4785 32.1643C31.6593 30.6497 32.1605 28.7239 33.5996 27.8614C36.7184 25.9941 40.2766 25.0925 43.8614 25.2641Z" fill="var(--fill-0, #FB923C)"/>
<path d="M55.9962 74.6979C55.9962 72.1867 55.0472 69.7789 53.3595 68.0032C51.6717 66.2275 49.3831 65.2292 46.9962 65.2292H42.5977C41.1727 65.2292 39.942 64.1745 39.6563 62.7058C39.013 59.3901 37.4898 56.3312 35.2618 53.8905C33.0341 51.4504 30.1927 49.7279 27.0704 48.9178C23.9474 48.1077 20.6683 48.2451 17.6173 49.3164C14.5667 50.3878 11.8664 52.3465 9.83212 54.9672C7.79757 57.5883 6.51323 60.7643 6.12509 64.1236C5.73707 67.4828 6.26237 70.8885 7.64071 73.9458C9.01903 77.0031 11.1923 79.5876 13.9102 81.3967C16.6284 83.2058 19.7798 84.1659 22.9962 84.1667H46.9962C49.3831 84.1666 51.6717 83.1683 53.3595 81.3926C55.0472 79.6169 55.9962 77.2091 55.9962 74.6979ZM61.9962 74.6979C61.9962 78.8833 60.4146 82.8962 57.6017 85.8557C54.7886 88.8153 50.9744 90.4791 46.9962 90.4792H22.9962C18.6444 90.4782 14.3808 89.1788 10.7032 86.7311C7.02573 84.2834 4.08372 80.7866 2.21884 76.65C0.354283 72.5136 -0.357035 67.9038 0.168056 63.3592C0.693461 58.815 2.43535 54.5223 5.18759 50.9767C7.94019 47.4306 11.591 44.778 15.7188 43.3286C19.8461 41.8794 24.2794 41.6907 28.504 42.7861C32.7291 43.8821 36.5756 46.2158 39.5899 49.5178C42.0284 52.189 43.8292 55.4108 44.8946 58.9167H46.9962C50.9744 58.9167 54.7886 60.5805 57.6017 63.5401C60.4146 66.4996 61.9962 70.5125 61.9962 74.6979Z" fill="var(--fill-0, #FB923C)"/>
</g>
</svg>
