<svg preserveAspectRatio="none" width="100%" height="100%" overflow="visible" style="display: block;" viewBox="0 0 86 82.0623" fill="none" xmlns="http://www.w3.org/2000/svg">
<g id="Vector">
<path d="M29.9531 61.0208C31.0915 61.0016 32.1617 61.6693 32.6836 62.7674L37.6836 73.2882C38.4234 74.847 37.8213 76.7419 36.3398 77.5212C34.8582 78.2995 33.0571 77.666 32.3164 76.1075L28.3203 67.7031L19.5352 69.3881C17.9056 69.6988 16.3432 68.5586 16.0469 66.8442C15.7516 65.1298 16.8353 63.4859 18.4648 63.1742L29.4648 61.0701L29.9531 61.0208Z" fill="var(--fill-0, #A855F7)"/>
<path d="M32.3164 5.95487C33.0571 4.3963 34.8582 3.76284 36.3398 4.54113C37.8213 5.32042 38.4234 7.21532 37.6836 8.77412L32.6836 19.295C32.0876 20.5491 30.7761 21.2423 29.4648 20.9923L18.4648 18.8881C16.8353 18.5764 15.7516 16.9325 16.0469 15.2181C16.3432 13.5037 17.9056 12.3635 19.5352 12.6742L28.3203 14.3551L32.3164 5.95487Z" fill="var(--fill-0, #A855F7)"/>
<path d="M56.5352 61.0701L67.5352 63.1742C69.1647 63.486 70.2484 65.1298 69.9531 66.8442C69.6568 68.5586 68.0944 69.6988 66.4648 69.3881L57.6758 67.7031L53.6836 76.1075C52.9429 77.666 51.1418 78.2995 49.6602 77.5212C48.1787 76.7419 47.5766 74.847 48.3164 73.2882L53.3164 62.7674C53.9124 61.5132 55.2239 60.8201 56.5352 61.0701Z" fill="var(--fill-0, #A855F7)"/>
<path d="M49.6602 4.54113C51.1418 3.76284 52.9429 4.3963 53.6836 5.95487L57.6758 14.3551L66.4648 12.6742C68.0944 12.3635 69.6568 13.5037 69.9531 15.2181C70.2484 16.9325 69.1647 18.5764 67.5352 18.8881L56.5352 20.9923C55.2239 21.2423 53.9124 20.5491 53.3164 19.295L48.3164 8.77412C47.5766 7.21532 48.1787 5.32042 49.6602 4.54113Z" fill="var(--fill-0, #A855F7)"/>
<path d="M51 50.4999C52.1363 50.4999 53.1754 51.1773 53.6836 52.2465L65.6836 77.4965C66.4234 79.0553 65.8213 80.9502 64.3398 81.7295C62.8582 82.5078 61.0571 81.8744 60.3164 80.3158L49.1445 56.8124H35C33.3431 56.8124 32 55.3993 32 53.6562C32 51.913 33.3431 50.4999 35 50.4999H51Z" fill="var(--fill-0, #A855F7)"/>
<path d="M60.3164 1.74654C61.0571 0.187965 62.8582 -0.445495 64.3398 0.332799C65.8213 1.11209 66.4234 3.00698 65.6836 4.56579L54.3516 28.4062L59.6836 39.6215C60.4234 41.1803 59.8213 43.0752 58.3398 43.8545C56.8582 44.6328 55.0571 43.9994 54.3164 42.4408L48.3164 29.8158C47.8952 28.9281 47.8952 27.8842 48.3164 26.9965L60.3164 1.74654Z" fill="var(--fill-0, #A855F7)"/>
<path d="M32.3164 26.9965C33.0571 25.438 34.8582 24.8045 36.3398 25.5828C37.8213 26.3621 38.4234 28.257 37.6836 29.8158L31.6836 42.4408C31.1754 43.5101 30.1363 44.1874 29 44.1874H3C1.34315 44.1874 0 42.7743 0 41.0312C0 39.288 1.34315 37.8749 3 37.8749H27.1445L32.3164 26.9965Z" fill="var(--fill-0, #A855F7)"/>
<path d="M72.6016 30.7199C73.5959 29.3265 75.4757 29.0456 76.8008 30.0911C78.1252 31.1373 78.3922 33.115 77.3984 34.5091L72.7461 41.0312L77.3984 47.5533C78.3922 48.9473 78.1252 50.925 76.8008 51.9712C75.4757 53.0167 73.5959 52.7358 72.6016 51.3424L66.6016 42.9257C65.8016 41.8035 65.8016 40.2588 66.6016 39.1366L72.6016 30.7199Z" fill="var(--fill-0, #A855F7)"/>
<path d="M83 37.8749C84.6569 37.8749 86 39.288 86 41.0312C86 42.7743 84.6569 44.1874 83 44.1874H58.8555L53.6836 55.0658C52.9429 56.6244 51.1418 57.2578 49.6602 56.4795C48.1787 55.7002 47.5766 53.8053 48.3164 52.2465L54.3164 39.6215C54.8246 38.5523 55.8637 37.8749 57 37.8749H83Z" fill="var(--fill-0, #A855F7)"/>
<path d="M9.19922 30.0911C10.5243 29.0456 12.4041 29.3265 13.3984 30.7199L19.3984 39.1366C20.1984 40.2588 20.1984 41.8035 19.3984 42.9257L13.3984 51.3424C12.4041 52.7358 10.5243 53.0167 9.19922 51.9712C7.87482 50.925 7.60776 48.9473 8.60156 47.5533L13.25 41.0312L8.60156 34.5091C7.60776 33.115 7.87482 31.1373 9.19922 30.0911Z" fill="var(--fill-0, #A855F7)"/>
<path d="M27.6602 38.2078C29.1418 37.4295 30.9429 38.063 31.6836 39.6215L37.6836 52.2465C38.1048 53.1342 38.1048 54.1781 37.6836 55.0658L25.6836 80.3158C24.9429 81.8744 23.1418 82.5078 21.6602 81.7295C20.1787 80.9503 19.5766 79.0554 20.3164 77.4965L31.6445 53.6562L26.3164 42.4408C25.5766 40.882 26.1787 38.9871 27.6602 38.2078Z" fill="var(--fill-0, #A855F7)"/>
<path d="M21.6602 0.332799C23.1418 -0.445495 24.9429 0.187965 25.6836 1.74654L36.8555 25.2499H51C52.6569 25.2499 54 26.663 54 28.4062C54 30.1493 52.6569 31.5624 51 31.5624H35C33.8637 31.5624 32.8246 30.8851 32.3164 29.8158L20.3164 4.56579C19.5766 3.00698 20.1787 1.11209 21.6602 0.332799Z" fill="var(--fill-0, #A855F7)"/>
</g>
</svg>
