<svg preserveAspectRatio="none" width="100%" height="100%" overflow="visible" style="display: block;" viewBox="0 0 85.9897 86.2589" fill="none" xmlns="http://www.w3.org/2000/svg">
<g id="Vector">
<path d="M28.5506 0.101979C33.2389 -0.288959 37.9501 0.447307 42.3279 2.25546C46.7064 4.06402 50.6365 6.89751 53.8201 10.5406C56.4915 13.5976 58.571 17.1605 59.9685 21.0286H64.9881C69.4936 21.028 73.8807 22.5532 77.4998 25.3766C81.1189 28.2003 83.7779 32.1749 85.0857 36.7112C86.3935 41.2474 86.2798 46.106 84.7615 50.5691C83.2431 55.0317 80.4025 58.864 76.656 61.4968C75.2788 62.4644 73.4164 62.0737 72.4959 60.6255C71.5756 59.176 71.9462 57.2128 73.324 56.2446C75.9996 54.3639 78.0288 51.6277 79.1131 48.4403C80.1972 45.2531 80.281 41.7836 79.3474 38.5441C78.4133 35.3039 76.5107 32.4649 73.9256 30.448C71.3405 28.4312 68.2063 27.3407 64.9881 27.3411H57.8279C56.5023 27.3404 55.3322 26.4255 54.9529 25.089C53.8676 21.265 51.9694 17.7485 49.4021 14.8106C46.8352 11.8737 43.6665 9.59056 40.1365 8.13233C36.6055 6.6738 32.8048 6.0784 29.0232 6.39393C25.2417 6.70947 21.5768 7.92706 18.3084 9.95293C15.0409 11.9785 12.2547 14.7599 10.1599 18.086C8.06481 21.4131 6.7173 25.2012 6.21854 29.1576C5.72009 33.1134 6.08287 37.1375 7.28104 40.9236C8.47942 44.7098 10.4795 48.1611 13.1326 51.013C14.2911 52.2586 14.2733 54.2569 13.0896 55.4761C11.9055 56.6954 10.0025 56.6725 8.84354 55.4268C5.5538 51.8902 3.0715 47.6118 1.58572 42.9168C0.100031 38.222 -0.348823 33.2327 0.269318 28.3274C0.887755 23.4218 2.5583 18.7264 5.15604 14.601C7.75401 10.4754 11.2126 7.02377 15.2654 4.51169C19.3177 2.00029 23.8621 0.493181 28.5506 0.101979Z" fill="var(--fill-0, #60A5FA)"/>
<path d="M55.9894 74.6859V49.4359C55.9894 47.6928 57.3326 46.2797 58.9894 46.2797C60.6463 46.2797 61.9894 47.6928 61.9894 49.4359V74.6859C61.9894 76.4291 60.6463 77.8422 58.9894 77.8422C57.3326 77.8422 55.9894 76.4291 55.9894 74.6859Z" fill="var(--fill-0, #60A5FA)"/>
<path d="M23.9894 74.6859V49.4359C23.9894 47.6928 25.3326 46.2797 26.9894 46.2797C28.6463 46.2797 29.9894 47.6928 29.9894 49.4359V74.6859C29.9894 76.4291 28.6463 77.8422 26.9894 77.8422C25.3326 77.8422 23.9894 76.4291 23.9894 74.6859Z" fill="var(--fill-0, #60A5FA)"/>
<path d="M39.9894 83.1026V57.8526C39.9894 56.1095 41.3326 54.6964 42.9894 54.6964C44.6463 54.6964 45.9894 56.1095 45.9894 57.8526V83.1026C45.9894 84.8458 44.6463 86.2589 42.9894 86.2589C41.3326 86.2589 39.9894 84.8458 39.9894 83.1026Z" fill="var(--fill-0, #60A5FA)"/>
</g>
</svg>
