<svg width="78" height="74" viewBox="0 0 78 74" fill="none" xmlns="http://www.w3.org/2000/svg">
<path d="M75 0C76.6569 0 78 1.4131 78 3.15625C78 4.8994 76.6569 6.3125 75 6.3125H3C1.34315 6.3125 0 4.8994 0 3.15625C0 1.4131 1.34315 0 3 0H75Z" fill="#DC2626"/>
<path d="M63 16.8333C64.6569 16.8333 66 18.2464 66 19.9896C66 21.7327 64.6569 23.1458 63 23.1458H15C13.3431 23.1458 12 21.7327 12 19.9896C12 18.2464 13.3431 16.8333 15 16.8333H63Z" fill="#DC2626"/>
<path d="M67 33.6667C68.6569 33.6667 70 35.0798 70 36.8229C70 38.5661 68.6569 39.9792 67 39.9792H27C25.3431 39.9792 24 38.5661 24 36.8229C24 35.0798 25.3431 33.6667 27 33.6667H67Z" fill="#DC2626"/>
<path d="M55 50.5C56.6569 50.5 58 51.9131 58 53.6563C58 55.3994 56.6569 56.8125 55 56.8125H31C29.3431 56.8125 28 55.3994 28 53.6563C28 51.9131 29.3431 50.5 31 50.5H55Z" fill="#DC2626"/>
<path d="M35 67.3333C36.6569 67.3333 38 68.7464 38 70.4896C38 72.2327 36.6569 73.6458 35 73.6458H27C25.3431 73.6458 24 72.2327 24 70.4896C24 68.7464 25.3431 67.3333 27 67.3333H35Z" fill="#DC2626"/>
</svg>
