<svg preserveAspectRatio="none" width="100%" height="100%" overflow="visible" style="display: block;" viewBox="0 0 86.0199 86.2602" fill="none" xmlns="http://www.w3.org/2000/svg">
<g id="Vector">
<path d="M24.4913 0.72694C29.5419 -0.413687 34.7852 -0.209766 39.7413 1.32285C44.6976 2.85576 49.2134 5.67017 52.8741 9.50526C55.9977 12.7781 58.4076 16.7104 59.9678 21.0289H64.9874C70.3592 21.02 75.5304 23.178 79.4366 27.0578C83.3437 30.9389 85.6883 36.2493 85.9874 41.8938C86.2863 47.5382 84.5187 53.09 81.046 57.4038C77.5728 61.7177 72.6569 64.4666 67.3155 65.0849C65.6696 65.2746 64.1888 64.0258 64.0069 62.2944C63.8257 60.5621 65.013 59.0006 66.6592 58.8093C70.4745 58.3677 73.987 56.4043 76.4678 53.3229C78.9476 50.2421 80.2083 46.2781 79.9952 42.2472C79.7816 38.2155 78.11 34.4206 75.3194 31.6483C72.5288 28.8763 68.833 27.3346 64.9952 27.3414H57.8272C56.5016 27.3407 55.3315 26.4258 54.9522 25.0892C53.7603 20.8896 51.5916 17.0693 48.6397 13.9766C45.6875 10.8838 42.0469 8.61677 38.0499 7.38054C34.0529 6.14436 29.8263 5.97988 25.753 6.89971C21.6796 7.81964 17.8884 9.79602 14.7256 12.6492C11.5634 15.5022 9.1291 19.1411 7.64361 23.2358C6.15813 27.3306 5.66652 31.7507 6.21783 36.095C6.76924 40.4395 8.34513 44.5704 10.7999 48.1118C13.2547 51.6532 16.513 54.4922 20.2764 56.3723C21.7729 57.1201 22.409 59.0061 21.6983 60.5806C20.9871 62.1538 19.1982 62.8236 17.7022 62.0766C13.0355 59.7452 8.99624 56.2225 5.95221 51.8311C2.90835 47.4398 0.956258 42.3164 0.272518 36.9293C-0.410957 31.5424 0.196115 26.061 2.03814 20.9837C3.88014 15.9067 6.89849 11.3948 10.8194 7.85727C14.7407 4.31977 19.4409 1.86782 24.4913 0.72694Z" fill="var(--fill-0, #3B82F6)"/>
<path d="M44.4145 39.3962C45.2667 37.9018 47.1111 37.4154 48.5317 38.3112C49.952 39.2078 50.4144 41.1483 49.5629 42.6428L40.2895 58.9049H50.9887C52.0695 58.9049 53.0656 59.5182 53.5981 60.5077C54.13 61.4967 54.1182 62.7099 53.5629 63.6845L41.5629 84.7262C40.7107 86.2205 38.8663 86.707 37.4457 85.8111C36.0254 84.9145 35.563 82.9741 36.4145 81.4795L45.6879 65.2174H34.9887C33.9079 65.2174 32.9119 64.6042 32.3793 63.6146C31.8474 62.6257 31.8592 61.4125 32.4145 60.4378L44.4145 39.3962Z" fill="var(--fill-0, #3B82F6)"/>
</g>
</svg>
